<?xml version="1.0" encoding="UTF-8" standalone="no"?>
<!-- Created with Inkscape (http://www.inkscape.org/) -->

<svg
   width="321.71301mm"
   height="68.005997mm"
   viewBox="0 0 321.71303 68.005997"
   version="1.1"
   id="svg1"
   inkscape:version="1.4.1 (93de688d07, 2025-03-30)"
   sodipodi:docname="mimick_logo.svg"
   xml:space="preserve"
   inkscape:export-filename="mimick_logo.png"
   inkscape:export-xdpi="96"
   inkscape:export-ydpi="96"
   xmlns:inkscape="http://www.inkscape.org/namespaces/inkscape"
   xmlns:sodipodi="http://sodipodi.sourceforge.net/DTD/sodipodi-0.dtd"
   xmlns:xlink="http://www.w3.org/1999/xlink"
   xmlns="http://www.w3.org/2000/svg"
   xmlns:svg="http://www.w3.org/2000/svg"><sodipodi:namedview
     id="namedview1"
     pagecolor="#ffffff"
     bordercolor="#000000"
     borderopacity="0.25"
     inkscape:showpageshadow="2"
     inkscape:pageopacity="0.0"
     inkscape:pagecheckerboard="0"
     inkscape:deskcolor="#d1d1d1"
     inkscape:document-units="mm"
     inkscape:zoom="0.70710678"
     inkscape:cx="591.84838"
     inkscape:cy="365.57421"
     inkscape:window-width="1600"
     inkscape:window-height="840"
     inkscape:window-x="0"
     inkscape:window-y="0"
     inkscape:window-maximized="1"
     inkscape:current-layer="layer1" /><defs
     id="defs1"><linearGradient
       id="linearGradient242"
       inkscape:collect="always"><stop
         style="stop-color:#0089ff;stop-opacity:1;"
         offset="0"
         id="stop242" /><stop
         style="stop-color:#0089ff;stop-opacity:0;"
         offset="1"
         id="stop243" /></linearGradient><linearGradient
       id="linearGradient237"
       inkscape:collect="always"><stop
         style="stop-color:#000000;stop-opacity:1;"
         offset="0"
         id="stop237" /><stop
         style="stop-color:#000000;stop-opacity:0;"
         offset="1"
         id="stop238" /></linearGradient><linearGradient
       id="linearGradient192"
       inkscape:collect="always"><stop
         style="stop-color:#ab132c;stop-opacity:1;"
         offset="0"
         id="stop191" /><stop
         style="stop-color:#62156f;stop-opacity:1;"
         offset="0.31586769"
         id="stop193" /><stop
         style="stop-color:#62156f;stop-opacity:1;"
         offset="0.46652317"
         id="stop194" /><stop
         style="stop-color:#ab132c;stop-opacity:1;"
         offset="0.99989998"
         id="stop192" /></linearGradient><linearGradient
       id="linearGradient188"
       inkscape:collect="always"><stop
         style="stop-color:#5e1573;stop-opacity:1;"
         offset="0"
         id="stop187" /><stop
         style="stop-color:#aa132c;stop-opacity:1;"
         offset="0.29255384"
         id="stop189" /><stop
         style="stop-color:#aa132c;stop-opacity:1;"
         offset="0.72622854"
         id="stop190" /><stop
         style="stop-color:#5e1573;stop-opacity:1;"
         offset="1"
         id="stop188" /></linearGradient><rect
       x="83.149605"
       y="249.44882"
       width="622.08221"
       height="301.80228"
       id="rect1" /><linearGradient
       id="linearGradient2800"><stop
         style="stop-color:#88a6c1;stop-opacity:1"
         offset="0"
         id="stop2796" /><stop
         style="stop-color:#b8e2c4;stop-opacity:1;"
         offset="1"
         id="stop2798" /></linearGradient><linearGradient
       id="linearGradient29924"><stop
         style="stop-color:#88c19c;stop-opacity:1"
         offset="0"
         id="stop29920" /><stop
         style="stop-color:#ceb8e2;stop-opacity:1;"
         offset="1"
         id="stop29922" /></linearGradient><linearGradient
       id="linearGradient25008"><stop
         style="stop-color:#88c19c;stop-opacity:1"
         offset="0"
         id="stop28056" /><stop
         style="stop-color:#e2bcb8;stop-opacity:1;"
         offset="1"
         id="stop28058" /></linearGradient><filter
       style="color-interpolation-filters:sRGB"
       inkscape:label="Drop Shadow"
       id="filter14936"
       x="-0.090197295"
       y="-0.056936212"
       width="1.199856"
       height="1.1207836"><feFlood
         flood-opacity="0.498039"
         flood-color="rgb(0,0,0)"
         result="flood"
         id="feFlood14926" /><feComposite
         in="flood"
         in2="SourceGraphic"
         operator="in"
         result="composite1"
         id="feComposite14928" /><feGaussianBlur
         in="composite1"
         stdDeviation="0.8"
         result="blur"
         id="feGaussianBlur14930" /><feOffset
         dx="1.8"
         dy="0.9"
         result="offset"
         id="feOffset14932" /><feComposite
         in="SourceGraphic"
         in2="offset"
         operator="over"
         result="composite2"
         id="feComposite14934" /></filter><filter
       style="color-interpolation-filters:sRGB"
       inkscape:label="Drop Shadow"
       id="filter17275"
       x="-0.30822697"
       y="-0.095508769"
       width="1.6905766"
       height="1.2025017"><feFlood
         flood-opacity="0.278431"
         flood-color="rgb(0,0,0)"
         result="flood"
         id="feFlood17265" /><feComposite
         in="flood"
         in2="SourceGraphic"
         operator="in"
         result="composite1"
         id="feComposite17267" /><feGaussianBlur
         in="composite1"
         stdDeviation="0.8"
         result="blur"
         id="feGaussianBlur17269" /><feOffset
         dx="1.8"
         dy="0.9"
         result="offset"
         id="feOffset17271" /><feComposite
         in="SourceGraphic"
         in2="offset"
         operator="over"
         result="composite2"
         id="feComposite17273" /></filter><filter
       style="color-interpolation-filters:sRGB"
       inkscape:label="Drop Shadow"
       id="filter17287"
       x="-0.39714545"
       y="-0.12618054"
       width="1.8897969"
       height="1.2675331"><feFlood
         flood-opacity="0.278431"
         flood-color="rgb(0,0,0)"
         result="flood"
         id="feFlood17277" /><feComposite
         in="flood"
         in2="SourceGraphic"
         operator="in"
         result="composite1"
         id="feComposite17279" /><feGaussianBlur
         in="composite1"
         stdDeviation="0.8"
         result="blur"
         id="feGaussianBlur17281" /><feOffset
         dx="1.8"
         dy="0.9"
         result="offset"
         id="feOffset17283" /><feComposite
         in="SourceGraphic"
         in2="offset"
         operator="over"
         result="composite2"
         id="feComposite17285" /></filter><filter
       style="color-interpolation-filters:sRGB"
       inkscape:label="Drop Shadow"
       id="filter17299"
       x="-0.45131415"
       y="-0.14985438"
       width="2.0111609"
       height="1.3177273"><feFlood
         flood-opacity="0.278431"
         flood-color="rgb(0,0,0)"
         result="flood"
         id="feFlood17289" /><feComposite
         in="flood"
         in2="SourceGraphic"
         operator="in"
         result="composite1"
         id="feComposite17291" /><feGaussianBlur
         in="composite1"
         stdDeviation="0.8"
         result="blur"
         id="feGaussianBlur17293" /><feOffset
         dx="1.8"
         dy="0.9"
         result="offset"
         id="feOffset17295" /><feComposite
         in="SourceGraphic"
         in2="offset"
         operator="over"
         result="composite2"
         id="feComposite17297" /></filter><filter
       style="color-interpolation-filters:sRGB"
       inkscape:label="Drop Shadow"
       id="filter17311"
       x="-0.58773506"
       y="-0.20372258"
       width="2.3168092"
       height="1.4319409"><feFlood
         flood-opacity="0.278431"
         flood-color="rgb(0,0,0)"
         result="flood"
         id="feFlood17301" /><feComposite
         in="flood"
         in2="SourceGraphic"
         operator="in"
         result="composite1"
         id="feComposite17303" /><feGaussianBlur
         in="composite1"
         stdDeviation="0.8"
         result="blur"
         id="feGaussianBlur17305" /><feOffset
         dx="1.8"
         dy="0.9"
         result="offset"
         id="feOffset17307" /><feComposite
         in="SourceGraphic"
         in2="offset"
         operator="over"
         result="composite2"
         id="feComposite17309" /></filter><linearGradient
       inkscape:collect="always"
       xlink:href="#linearGradient192"
       id="linearGradient190"
       gradientUnits="userSpaceOnUse"
       x1="291.96579"
       y1="13.874714"
       x2="294.44589"
       y2="2.2415998"
       spreadMethod="reflect" /><linearGradient
       inkscape:collect="always"
       xlink:href="#linearGradient188"
       id="linearGradient208"
       gradientUnits="userSpaceOnUse"
       x1="167.19781"
       y1="177.73463"
       x2="167.19781"
       y2="198.65385"
       spreadMethod="reflect" /><linearGradient
       inkscape:collect="always"
       xlink:href="#linearGradient188"
       id="linearGradient210"
       gradientUnits="userSpaceOnUse"
       x1="167.19781"
       y1="177.73463"
       x2="167.19781"
       y2="198.65385"
       spreadMethod="reflect" /><linearGradient
       inkscape:collect="always"
       xlink:href="#linearGradient192"
       id="linearGradient220"
       gradientUnits="userSpaceOnUse"
       x1="291.96579"
       y1="13.874714"
       x2="294.44589"
       y2="2.2415998"
       spreadMethod="reflect" /><linearGradient
       inkscape:collect="always"
       xlink:href="#linearGradient192"
       id="linearGradient221"
       gradientUnits="userSpaceOnUse"
       x1="291.96579"
       y1="13.874714"
       x2="294.44589"
       y2="2.2415998"
       spreadMethod="reflect" /><linearGradient
       inkscape:collect="always"
       xlink:href="#linearGradient192"
       id="linearGradient230"
       gradientUnits="userSpaceOnUse"
       x1="291.96579"
       y1="13.874714"
       x2="294.44589"
       y2="2.2415998"
       spreadMethod="reflect" /><linearGradient
       inkscape:collect="always"
       xlink:href="#linearGradient237"
       id="linearGradient239" /><linearGradient
       inkscape:collect="always"
       xlink:href="#linearGradient242"
       id="linearGradient243"
       x1="268.36813"
       y1="42.871761"
       x2="252.46622"
       y2="14.799556"
       gradientUnits="userSpaceOnUse" /><meshgradient
       inkscape:collect="always"
       id="meshgradient250"
       gradientUnits="userSpaceOnUse"
       x="223.80405"
       y="30.171183"><meshrow
         id="meshrow1729"><meshpatch
           id="meshpatch1729"><stop
             path="c 39.4811,2.26746e-06  70.7142,-47.0033  110.193,-47.0038"
             style="stop-color:#ad3283;stop-opacity:1"
             id="stop1729" /><stop
             path="c -1.77223,21.3376  -2.88381,43.5166  -2.88377,70.6525"
             style="stop-color:#380b90;stop-opacity:1"
             id="stop1730" /><stop
             path="c -105.153,26.1989  -115.077,34.6711  -157.64,22.9795"
             style="stop-color:#f4e527;stop-opacity:1"
             id="stop1731" /><stop
             path="c -0.00175345,-27.1327  50.3298,-19.4933  50.3308,-46.6282"
             style="stop-color:#d37e5c;stop-opacity:1"
             id="stop1732" /></meshpatch></meshrow></meshgradient></defs><g
     inkscape:label="Layer 1"
     inkscape:groupmode="layer"
     id="layer1"
     transform="translate(-34.211396,-56.852452)"><g
       id="g15-4-0"
       transform="matrix(1.3883608,-1.2914965,1.2914965,1.3883608,-202.94632,491.30094)"
       style="fill:url(#linearGradient208);fill-opacity:1" /><g
       id="g15-6-4-2"
       transform="matrix(0.91949157,-1.6583257,1.6583257,0.91949157,-49.813378,620.35293)"
       style="fill:url(#linearGradient210);fill-opacity:1" /><g
       id="g12-0-90"
       transform="matrix(2.452018,-0.30175477,0.30175477,2.452018,-442.14255,152.78477)"
       style="fill:url(#linearGradient190);fill-opacity:1"><g
         id="g11-6-8-2-3"
         transform="translate(48.903408,-13.210684)"
         style="fill:url(#linearGradient220);fill-opacity:1;stroke:none" /><g
         id="rect9-1-8-5-9-2"
         style="opacity:1;fill:url(#linearGradient221);fill-opacity:1" /><g
         id="g11-6-8-2-3-8"
         transform="matrix(0.80231789,0.59689698,0.59689698,-0.80231789,83.527123,-118.00522)"
         style="fill:url(#linearGradient230);fill-opacity:1;stroke:none" /></g><g
       id="g13-1-5"
       transform="matrix(2.1395294,1.2352579,-1.2352579,2.1395294,-329.02734,-306.87746)"
       style="fill:url(#linearGradient243);fill-opacity:1"><g
         id="g11-5-4-9-4"
         transform="matrix(1,0,0,-1,48.90701,37.973294)"
         style="fill:url(#linearGradient243);fill-opacity:1" /><path
         id="path239"
         style="fill:url(#meshgradient250);stroke-width:0.379259;stroke-linecap:round;stroke-linejoin:round;paint-order:stroke markers fill;fill-opacity:1"
         d="m 285.84343,5.4402154 c -0.43766,0.2517878 -0.88523,0.547423 -1.34133,0.8913173 -7.29759,5.5022723 -2.05499,12.2256583 -2.05499,12.2256583 l 14.3745,-10.8381049 c 0,0 -4.41343,-6.0556243 -10.97818,-2.2788707 z m 0.29496,0.8798802 1.9e-4,-1.046e-4 c 2.49497,-1.4573924 4.59045,-1.2290275 6.09703,-0.5579816 1.72184,0.7669421 2.68963,2.1007975 2.68963,2.1007975 l 0.0738,0.1010901 -11.81494,8.907951 -0.0766,-0.0983 c 0,0 -1.0165,-1.297672 -1.28018,-3.164044 -0.26364,-1.866402 0.24042,-4.3125668 3.2181,-6.5576927 l -2.1e-4,-3.623e-4 c 0.37216,-0.2806 0.73674,-0.5231566 1.09312,-0.7313514 z m 0.12866,0.2199072 c -0.34699,0.203558 -0.70289,0.4411464 -1.06761,0.7161378 -2.91778,2.1999674 -3.37223,4.5244544 -3.11907,6.3167164 0.23723,1.679149 1.05411,2.789249 1.16302,2.934356 l 11.38789,-8.5862778 c -0.10956,-0.1446198 -0.95232,-1.2354065 -2.50142,-1.9254175 -1.44677,-0.644406 -3.43388,-0.8804204 -5.86281,0.5444851 z m -3.67546,12.2540452 1.58784,8.369432 14.80845,-1.67e-4 1.58767,-8.368861 z m 1.27201,0.981203 15.44094,1.04e-4 -1.39618,6.355279 -12.6508,2.63e-4 z m 0.36706,0.294812 1.2654,5.76566 12.17588,3.6e-5 1.26578,-5.765775 z m 7.41638,1.344394 c 0.0255,-0.01383 0.0546,-0.02155 0.0858,-0.02155 l 0.25237,-6e-5 c 0.0997,0 0.17988,0.08044 0.17988,0.180191 l 2.2e-4,0.09117 c 0.62749,0.147236 1.09642,0.713092 1.09642,1.384495 0,0.782563 -0.63722,1.421854 -1.41978,1.421851 -0.78256,-4e-6 -1.4216,-0.639301 -1.4216,-1.42186 0,-0.683563 0.48749,-1.257599 1.13247,-1.391955 l -1.7e-4,-0.08396 c 0,-0.06858 0.0382,-0.127902 0.0943,-0.158321 z m -0.31631,0.761569 c -0.29994,0.17453 -0.50032,0.498907 -0.50032,0.872888 0,0.560777 0.45093,1.011443 1.01171,1.011446 0.56078,2e-6 1.00965,-0.451105 1.00965,-1.011885 0,-0.447468 -0.28592,-0.823239 -0.68635,-0.957036 l 7e-5,0.02146 c 0,0.09975 -0.0805,0.179874 -0.18019,0.179874 l -0.25237,6e-5 c -0.0997,0 -0.17987,-0.08044 -0.17987,-0.180191 l -2.5e-4,-0.03222 c -0.0786,0.0231 -0.15286,0.05534 -0.22208,0.09561 z m 1.9076,-18.034902 c -0.0349,0.018345 -0.0685,0.038904 -0.10059,0.06172 -0.0447,0.031579 -0.0856,0.067247 -0.12274,0.1066088 -0.10475,0.1108725 -0.17495,0.2456255 -0.21249,0.3958558 0.20099,0.077261 0.39533,0.1612099 0.58293,0.2503668 0.026,-0.069528 0.0644,-0.1325796 0.11559,-0.186774 0.0239,-0.025443 0.05,-0.048738 0.079,-0.06903 0.0206,-0.014657 0.0422,-0.027684 0.0646,-0.039506 0.33661,-0.1768275 0.86734,-0.034418 1.27879,0.3541357 0.40064,0.3783629 0.56952,0.8762102 0.44299,1.2178274 0.18634,0.154631 0.35599,0.3063051 0.50824,0.4502434 0.2703,-0.5305289 0.0152,-1.3649076 -0.64659,-1.9900809 -0.64008,-0.6046643 -1.46606,-0.8265529 -1.98973,-0.551369 z m -3.84926,-0.2902787 a 0.54443908,0.82082536 89.007046 0 0 -0.31399,0.4254641 c 0.0996,-0.014315 0.19844,-0.026469 0.29647,-0.036612 a 0.34999657,0.52767347 89.007046 0 1 0.19835,-0.2379367 0.34999657,0.52767347 89.007046 0 1 0.31958,-0.077774 0.34999657,0.52767347 89.007046 0 1 0.5255,0.2818277 c 0.10071,0.00363 0.20035,0.010115 0.2991,0.018152 a 0.54443908,0.82082536 89.007046 0 0 -0.82764,-0.4943245 0.54443908,0.82082536 89.007046 0 0 -0.49737,0.1212256 z m 1.82902,0.083074 a 0.82082536,0.54443908 17.070073 0 0 -0.18527,0.2279766 0.82082536,0.54443908 17.070073 0 0 -0.0159,0.092973 c 0.0965,0.011898 0.19212,0.025755 0.28661,0.041282 a 0.52767347,0.34999657 17.070073 0 1 0.009,-0.048174 0.52767347,0.34999657 17.070073 0 1 0.11865,-0.1467574 0.52767347,0.34999657 17.070073 0 1 0.48867,-0.033356 0.52767347,0.34999657 17.070073 0 1 0.40607,0.4715559 c 0.0944,0.029512 0.18759,0.060816 0.27949,0.093048 a 0.82082536,0.54443908 17.070073 0 0 -0.62859,-0.750309 0.82082536,0.54443908 17.070073 0 0 -0.75908,0.051562 z m 5.38243,3.9521272 -1.38855,1.0469309 c 0.63508,0.6921454 1.56272,1.4682456 2.70365,2.1362476 0.10927,-0.233055 -0.37724,-2.0460012 -1.3151,-3.1831785 z m -1.67053,1.2592575 -1.25408,0.946018 c 0.52061,0.550457 1.33281,1.195031 2.4234,1.903033 0.11367,-0.203256 -0.43031,-1.797438 -1.16932,-2.849051 z m -1.56327,1.179427 -1.23352,0.92997 c 0.74061,0.700079 1.5753,1.153815 2.45553,1.647589 0.12082,-0.665479 -0.44784,-1.790666 -1.22201,-2.577559 z m -1.55447,1.171955 -1.11169,0.838153 c 0.6254,0.536993 1.31701,0.91382 2.04161,1.320292 0.10065,-0.554419 -0.31998,-1.456529 -0.92992,-2.158445 z m -1.45257,1.095228 -1.05279,0.793405 c 0.56758,0.456674 1.18679,0.795457 1.83347,1.158219 0.091,-0.501033 -0.25547,-1.293863 -0.78068,-1.951624 z m -1.43487,1.081428 -0.86517,0.652265 c 0.4142,0.281273 0.85149,0.521971 1.30251,0.774969 0.0674,-0.371373 -0.11701,-0.910644 -0.43734,-1.427234 z m -1.37375,1.035397 -0.76767,0.579264 c 0.35432,0.230596 0.72513,0.435195 1.10626,0.648995 0.0585,-0.322351 -0.0824,-0.777626 -0.33859,-1.228259 z m -1.31675,0.993539 -0.64566,0.486745 c 0.28409,0.176761 0.57822,0.339711 0.87976,0.508861 0.0481,-0.264919 -0.0476,-0.62602 -0.2341,-0.995606 z m 13.12383,-0.125356 c -0.47951,1.171012 -0.74432,2.302231 -0.84015,3.21739 l 1.72992,1.15e-4 c 0.0169,-1.447968 -0.66713,-3.101628 -0.88977,-3.217507 z m -2.00512,0.367617 c -0.41137,1.153651 -0.66063,2.112786 -0.75456,2.849923 l 1.54911,8.6e-5 c -0.0788,-1.26083 -0.58765,-2.760477 -0.79455,-2.850012 z m -1.75175,0.195669 c -0.38016,0.881614 -0.74957,1.709815 -0.92534,2.654354 l 1.53474,4.8e-5 c 0.10272,-1.060048 -0.12999,-2.21774 -0.6094,-2.654378 z m -1.92424,0.523206 c -0.30745,0.712994 -0.60772,1.387873 -0.78519,2.131272 l 1.36386,-3.55e-4 c 0.0281,-0.881372 -0.18427,-1.771692 -0.57867,-2.130904 z m -1.81232,0.266447 c -0.27015,0.626509 -0.53427,1.222385 -0.70997,1.864676 l 1.27521,1.15e-4 c -0.01,-0.78616 -0.21261,-1.543601 -0.56524,-1.864767 z m -1.75119,0.636912 c -0.17895,0.414983 -0.35528,0.816019 -0.50257,1.227587 l 1.00204,2.68e-4 c -0.0744,-0.534023 -0.24715,-0.998046 -0.49947,-1.227869 z m -1.67795,0.229441 c -0.14548,0.337385 -0.28885,0.665285 -0.41494,0.997984 l 0.86243,3.64e-4 c -0.0816,-0.435265 -0.23461,-0.804429 -0.44749,-0.998311 z m -1.59076,0.258472 c -0.10779,0.249971 -0.21412,0.494189 -0.31239,0.739473 l 0.68808,1.83e-4 c -0.0817,-0.321414 -0.20904,-0.587828 -0.37569,-0.739614 z m -74.30319,54.399829 c 0.66139,-0.520807 1.06514,-0.876844 1.21127,-1.068115 0.22134,-0.320211 0.26857,-0.673508 0.14168,-1.059909 l -6.15334,-18.76754 0.88993,-0.5138 15.12797,10.844102 -2.03171,-18.405232 0.81777,-0.47214 12.35683,13.598531 c 0.7386,0.834944 1.31934,1.285353 1.74219,1.35122 0.23905,0.04371 0.50073,0.01556 0.78505,-0.08445 0.28436,-0.09997 0.65115,-0.242295 1.10045,-0.426895 l 0.57629,0.998165 -6.84277,3.950675 -0.57629,-0.998165 c 0.77115,-0.626934 1.21882,-1.045754 1.34305,-1.256439 0.20406,-0.331618 0.17649,-0.721911 -0.0827,-1.170875 -0.0694,-0.120268 -0.16247,-0.25362 -0.27912,-0.400066 l -0.35172,-0.470382 -7.75456,-8.959907 1.87919,17.418983 -0.80575,0.4652 -14.26594,-10.267492 4.18735,12.029618 c 0.0592,0.158205 0.13052,0.309471 0.21384,0.453787 0.0787,0.136295 0.18886,0.243719 0.33042,0.322337 0.14157,0.07861 0.32371,0.107074 0.54638,0.08541 0.42468,-0.04208 1.10048,-0.28795 2.02743,-0.737606 l 0.5763,0.998164 -6.13323,3.54102 z m 28.23186,-16.283638 0.0171,-0.02593 0.35007,-0.282367 c 0.67405,-0.517422 1.03862,-0.904295 1.09374,-1.160603 0.0798,-0.398805 -0.13727,-1.043169 -0.65107,-1.933089 l -6.95707,-12.050008 c -0.52768,-0.913968 -0.93864,-1.403596 -1.23289,-1.468888 -0.29425,-0.06529 -0.59156,-0.0433 -0.89192,0.06598 -0.30499,0.101238 -0.69755,0.263743 -1.17768,0.487514 l -0.60405,-1.046254 6.5782,-3.797925 0.60405,1.046254 c -0.42119,0.307331 -0.7542,0.563733 -0.99901,0.769201 -0.24945,0.197481 -0.4093,0.402013 -0.47955,0.613594 -0.11092,0.36335 0.0998,1.006012 0.63209,1.928 l 6.95708,12.050015 c 0.51842,0.89793 0.90069,1.393445 1.14686,1.486497 0.24613,0.09306 0.48963,0.107471 0.73048,0.04325 0.24427,-0.07683 0.56297,-0.191395 0.95614,-0.343571 l 0.49864,-0.191699 0.57629,0.998154 -6.5782,3.797925 z m 8.71187,-5.045833 c 0.66138,-0.520806 1.06514,-0.876844 1.21126,-1.068109 0.22134,-0.320212 0.26858,-0.673513 0.1417,-1.059921 l -6.15336,-18.767534 0.88992,-0.513795 15.128,10.844092 -2.03173,-18.405226 0.81778,-0.472142 12.35682,13.598531 c 0.73861,0.834945 1.31935,1.285351 1.74221,1.351214 0.23904,0.04372 0.50071,0.01557 0.78504,-0.08444 0.28436,-0.09997 0.65116,-0.242301 1.10045,-0.426899 l 0.57629,0.998165 -6.84278,3.950677 -0.57629,-0.998165 c 0.77116,-0.626941 1.21884,-1.045763 1.34307,-1.256443 0.20405,-0.331616 0.17648,-0.721911 -0.0827,-1.170874 -0.0694,-0.120268 -0.16247,-0.253628 -0.27913,-0.400066 l -0.3518,-0.470332 -7.75457,-8.959905 1.87919,17.418984 -0.80573,0.465188 -14.26594,-10.267492 4.18736,12.029613 c 0.0592,0.158209 0.13052,0.309473 0.21384,0.453789 0.0787,0.136295 0.18886,0.243718 0.33041,0.32234 0.14157,0.07862 0.32372,0.107069 0.54639,0.0854 0.42466,-0.04208 1.10047,-0.287946 2.02742,-0.737602 l 0.57629,0.998165 -6.13323,3.541021 z m 28.23185,-16.283639 0.0171,-0.02593 0.35008,-0.282369 c 0.67404,-0.517416 1.03861,-0.904289 1.09374,-1.160604 0.0798,-0.398805 -0.13727,-1.043166 -0.65107,-1.933086 l -6.95707,-12.050008 c -0.52768,-0.913969 -0.93865,-1.403596 -1.2329,-1.468885 -0.29425,-0.06529 -0.59156,-0.0433 -0.89191,0.06597 -0.30499,0.101241 -0.69755,0.263745 -1.17768,0.487517 l -0.60406,-1.046254 6.5782,-3.797926 0.60406,1.046254 c -0.4212,0.307331 -0.7542,0.563731 -0.99902,0.769205 -0.24943,0.197471 -0.40928,0.402004 -0.47954,0.613588 -0.11092,0.36335 0.0998,1.006019 0.63208,1.928007 l 6.95708,12.050015 c 0.51842,0.89793 0.90069,1.393444 1.14686,1.486497 0.24614,0.09306 0.48963,0.107471 0.73049,0.04325 0.24426,-0.07683 0.56296,-0.191391 0.95614,-0.343573 l 0.49864,-0.191698 0.57628,0.998154 -6.5782,3.797926 z m 28.28777,-38.1550296 -0.60406,-1.046254 6.21743,-3.589631 0.60405,1.046254 c -0.66262,0.5001563 -1.111,1.1492051 -1.34514,1.9471516 -0.0792,0.270198 -0.15016,0.5730861 -0.21297,0.9086586 l -1.20265,9.1926923 16.72277,6.9409001 -0.42201,1.157626 -18.75789,-5.6055932 1.13967,-9.4128813 c 0.19091,-0.9654022 0.1799,-1.6324947 -0.033,-2.0012908 -0.21755,-0.3768152 -0.91961,-0.2226937 -2.10617,0.4623677 z m -10.35716,4.5844487 0.60409,1.0463276 c 0.48013,-0.223765 0.87269,-0.3859538 1.17768,-0.487192 0.30838,-0.113909 0.60577,-0.1361938 0.89201,-0.066277 0.29424,0.065292 0.70536,0.5551013 1.23304,1.4690701 l 6.95694,12.0497733 c 0.26847,0.465004 0.45866,0.841383 0.57133,1.129093 0.10803,0.279698 0.13465,0.548085 0.0795,0.804397 -0.0471,0.251681 -0.40786,0.635895 -1.08189,1.153307 l -0.3858,0.303293 0.57619,0.998 6.85484,-3.957641 -0.5762,-0.998 -0.55894,0.22664 c -0.44129,0.179951 -0.79594,0.314895 -1.06426,0.40561 -0.26491,0.07811 -0.53257,0.07781 -0.80276,-0.0014 -0.26215,-0.08382 -0.65234,-0.574881 -1.17076,-1.472811 L 301.99591,1.8232777 c -0.27772,-0.4810338 -0.47307,-0.86528991 -0.58573,-1.15300458 -0.11266,-0.28771833 -0.13631,-0.54154943 -0.0707,-0.76116244 0.0656,-0.21960029 0.22351,-0.42823436 0.47294,-0.6257054 0.25285,-0.21010189 0.60005,-0.46960288 1.04191,-0.77817018 l -0.6041,-1.0463276 z m 4.95909,-0.44467684 c 0.0333,-0.0200453 0.0777,-0.0264326 0.13154,-0.0109052 0.0239,0.007064 0.0484,0.0257852 0.0711,0.0424965 0.0223,0.0169548 0.0377,0.0132221 0.055,0.002253 0.094,-0.0552902 0.18844,-0.1087951 0.28283,-0.16329384 0.0143,-0.008237 0.0287,-0.0163066 0.0448,-0.0216867 0.0359,-0.0117229 0.0764,0.0101998 0.0973,0.0518044 0.022,0.0429915 0.0168,0.0871419 -0.0154,0.10672465 -0.0573,0.0341124 -0.11563,0.0655443 -0.17283,0.0985678 l -2.6e-4,-4.5571e-4 c -0.0526,0.0303904 -0.10381,0.061427 -0.15735,0.0902359 -0.0188,0.00981 -0.0284,0.022916 -0.0294,0.050385 -0.004,0.141746 -0.11843,0.2076209 -0.24167,0.1395255 -0.0251,-0.014364 -0.0399,-0.00978 -0.0576,4.443e-4 l -0.55449,0.3201397 c -0.0989,0.057106 -0.19845,0.1136846 -0.29708,0.1727318 -0.0131,0.00759 -0.0232,0.027589 -0.0246,0.045238 -0.0101,0.1490653 -0.1166,0.2083989 -0.24955,0.1393026 -0.0133,-0.00627 -0.0314,-0.00692 -0.0417,-9.659e-4 -0.11024,0.061356 -0.21891,0.125779 -0.32875,0.1891929 -0.028,0.016191 -0.0545,0.036115 -0.0846,0.048836 -0.026,0.010373 -0.0696,-0.017714 -0.0866,-0.049674 -0.0164,-0.033293 -0.015,-0.090611 0.008,-0.1048996 0.0507,-0.032274 0.1033,-0.061601 0.1549,-0.092419 0.0467,-0.028916 0.0926,-0.059675 0.13966,-0.087794 0.031,-0.018946 0.0635,-0.034532 0.0932,-0.055592 0.0104,-0.00702 0.0183,-0.026846 0.0165,-0.041734 -0.008,-0.084649 0.009,-0.1502305 0.0701,-0.1866448 0.0641,-0.037011 0.13287,-0.028595 0.20441,0.030565 0.0217,0.018305 0.0354,0.010013 0.0508,0.00112 l 0.43769,-0.2527003 c 0.12986,-0.074974 0.25865,-0.1502198 0.38943,-0.2236227 0.0212,-0.012224 0.0311,-0.025697 0.0259,-0.058505 -0.0119,-0.0733427 0.0131,-0.14528 0.0687,-0.17869029 z m 0.11175,0.63899764 c 0.0477,-0.028119 0.11463,-0.023486 0.18854,0.020636 0.0142,0.00774 0.0355,0.00937 0.0469,0.00275 0.10513,-0.058401 0.2083,-0.1191376 0.31297,-0.1783062 0.0457,-0.026416 0.0914,-0.012242 0.11983,0.037035 0.0272,0.047025 0.0156,0.096009 -0.0301,0.1224302 -0.10007,0.057771 -0.19981,0.1162471 -0.30082,0.1724633 -0.0241,0.013904 -0.0344,0.030197 -0.0326,0.066557 0.007,0.138391 -0.11414,0.217105 -0.23208,0.1489096 -0.0427,-0.025122 -0.0696,-0.02247 -0.10277,-0.00333 -0.29648,0.1734672 -0.59348,0.3438661 -0.89095,0.5156096 -0.0812,0.046881 -0.16142,0.095063 -0.2432,0.1410174 -0.0446,0.025754 -0.0929,0.00792 -0.1203,-0.040947 -0.0299,-0.054301 -0.0152,-0.099384 0.0337,-0.1256474 0.14337,-0.079316 0.28529,-0.1611148 0.42716,-0.2430208 l 0.14858,-0.085784 3.5e-4,-2.024e-4 3.5e-4,-2.024e-4 2.6e-4,4.557e-4 2.7e-4,4.557e-4 c 1.3e-4,1.978e-4 3.8e-4,6.661e-4 5.2e-4,9.115e-4 0.19451,-0.1122985 0.38856,-0.2244955 0.58261,-0.3375861 0.009,-0.0054 0.0165,-0.024176 0.0167,-0.038276 -0.003,-0.086515 0.0262,-0.1476464 0.074,-0.1757666 z m -0.29686,0.8438805 c 0.0523,-0.029709 0.1249,-0.026239 0.19331,0.026832 0.0223,0.01694 0.0356,0.010489 0.051,0.00158 l 0.42918,-0.2477903 c 0.0269,-0.015523 0.053,-0.031112 0.0809,-0.044917 0.041,-0.021393 0.0891,-0.00237 0.11422,0.043842 0.0248,0.045381 0.0141,0.091516 -0.0253,0.114272 l -0.25509,0.1472749 -5.1e-4,-8.763e-4 c -0.0858,0.04953 -0.17088,0.1001557 -0.25759,0.1481145 -0.0189,0.010888 -0.0282,0.025387 -0.0262,0.052747 0.01,0.123766 -0.10886,0.2260225 -0.23784,0.1492465 -0.0314,-0.018721 -0.0538,-0.014607 -0.078,2.811e-4 -0.0546,0.03497 -0.1115,0.064981 -0.16756,0.097346 -0.0423,0.024434 -0.0893,0.00701 -0.11665,-0.04185 -0.0284,-0.04919 -0.0204,-0.097423 0.0225,-0.1222051 0.0579,-0.034471 0.116,-0.067436 0.17584,-0.098527 0.0199,-0.010481 0.029,-0.024795 0.0248,-0.053117 -0.0117,-0.079776 0.0207,-0.1425235 0.073,-0.1722414 z m 1.07867,1.4197673 c 0.0489,-0.029436 0.11659,-0.02625 0.18642,0.020069 0.0297,0.019673 0.0482,0.017495 0.0707,0.00455 0.0894,-0.052641 0.17889,-0.1038916 0.2687,-0.1557411 l 0.1996,-0.1152391 c 0.0418,-0.024131 0.0919,-0.00759 0.1176,0.038324 0.0267,0.046245 0.0188,0.099702 -0.022,0.1242504 -0.0813,0.049256 -0.1638,0.095786 -0.24561,0.1430215 -0.0789,0.045555 -0.15826,0.092396 -0.23764,0.1372001 -0.0189,0.010888 -0.0274,0.025081 -0.0279,0.051912 -2.2e-4,0.1423727 -0.11657,0.2131175 -0.24203,0.1451036 -0.0291,-0.015993 -0.0483,-0.014469 -0.0712,-0.00128 -0.14073,0.08125 -0.28323,0.1610926 -0.42447,0.2414705 -0.0189,0.010888 -0.0364,0.025737 -0.0557,0.035775 -0.0399,0.019551 -0.0905,-0.00261 -0.11585,-0.047688 -0.0258,-0.044774 -0.015,-0.09576 0.0251,-0.1188792 0.15846,-0.091485 0.31619,-0.1829894 0.4751,-0.2736895 0.0195,-0.011253 0.0299,-0.023023 0.0271,-0.054412 -0.007,-0.083504 0.0233,-0.1452946 0.0722,-0.1747303 z m 0.91266,0.1813698 c 0.046,-0.024396 0.10626,-0.023786 0.16381,0.00985 0.0304,0.018247 0.05,0.016833 0.0735,0.0023 0.0746,-0.046524 0.15142,-0.089898 0.22863,-0.1331706 0.0422,-0.023359 0.0834,-0.00662 0.11218,0.044426 0.0267,0.046245 0.0194,0.091605 -0.0208,0.1158587 -0.0756,0.044699 -0.15159,0.089813 -0.22868,0.1320291 -0.0205,0.01186 -0.0281,0.02657 -0.0253,0.05639 0.0146,0.1626781 -0.12844,0.2463246 -0.26032,0.1526814 -0.0306,-0.021145 -0.0492,-0.016325 -0.0704,-0.00411 -0.16546,0.096557 -0.33163,0.1920716 -0.49695,0.2875213 -0.29518,0.1704239 -0.58985,0.3417202 -0.8856,0.512472 -0.0154,0.00891 -0.0307,0.016604 -0.0467,0.024567 -0.0433,0.021535 -0.0823,0.00586 -0.11168,-0.047713 -0.0254,-0.043994 -0.016,-0.090414 0.0217,-0.1121952 l 0.72052,-0.4159942 2.6e-4,4.558e-4 c 0.23341,-0.1347553 0.46681,-0.2699362 0.70065,-0.4039093 0.0292,-0.016859 0.0454,-0.036429 0.0458,-0.081931 0.002,-0.066044 0.0334,-0.1151285 0.0794,-0.1395073 z m -0.9408,1.2013366 c 0.0533,-0.03084 0.12646,-0.023392 0.19068,0.02536 0.0232,0.0185 0.0401,0.013845 0.059,0.00294 l 0.83465,-0.4818812 0.69725,-0.4025596 c 0.0126,-0.00729 0.0257,-0.01362 0.0392,-0.017859 0.0353,-0.010017 0.0682,0.00823 0.0909,0.04895 0.0258,0.044774 0.0254,0.080598 -0.002,0.1073031 -0.0116,0.010163 -0.0245,0.017757 -0.0383,0.025694 l -0.75811,0.4377001 c -0.25572,0.1476392 -0.51054,0.2956449 -0.76713,0.4417336 -0.0263,0.015159 -0.0376,0.033982 -0.0378,0.071957 -3.7e-4,0.1315028 -0.12527,0.2004723 -0.2406,0.1341301 -0.0285,-0.016357 -0.0485,-0.01676 -0.0713,-0.00358 -0.10199,0.061171 -0.20545,0.1197807 -0.30784,0.1788999 -0.0297,0.017142 -0.0609,0.014224 -0.0942,-0.014263 -0.0285,-0.024317 -0.0439,-0.059527 -0.0359,-0.089061 0.007,-0.026027 0.0247,-0.050948 0.0455,-0.063856 0.0946,-0.05808 0.19053,-0.1135991 0.2877,-0.1672728 0.024,-0.013843 0.0355,-0.030651 0.034,-0.066175 -0.004,-0.083899 0.0271,-0.140929 0.0742,-0.1681355 z m 1.40489,-0.1308663 c 0.051,-0.03082 0.12284,-0.026775 0.19547,0.024392 0.0211,0.014753 0.0345,0.015859 0.0518,0.00592 0.11283,-0.066171 0.22589,-0.1315859 0.33916,-0.1969852 0.0452,-0.02612 0.0827,-0.01458 0.11483,0.034545 0.0328,0.049621 0.0279,0.097098 -0.0132,0.119789 -0.0496,0.027634 -0.10242,0.052015 -0.15117,0.081314 -0.0589,0.034001 -0.11538,0.070265 -0.1733,0.1060151 -0.019,0.012024 -0.0381,0.023192 -0.0563,0.033726 l 2.7e-4,4.557e-4 c 0.0271,0.1882562 -0.13219,0.259935 -0.254,0.1770786 -0.0136,-0.00902 -0.0374,-0.00705 -0.05,2.191e-4 -0.2962,0.1687184 -0.59145,0.3403035 -0.88663,0.5107233 l -0.44573,0.2573451 c -0.0315,0.018174 -0.0726,0.0074 -0.0991,-0.023915 -0.026,-0.030691 -0.0349,-0.082471 -0.0172,-0.1135675 0.006,-0.00915 0.0143,-0.017237 0.0234,-0.022479 0.35812,-0.2067604 0.71711,-0.4134153 1.07523,-0.6201798 0.0869,-0.05019 0.17302,-0.1000199 0.25846,-0.1528197 0.009,-0.0054 0.018,-0.022932 0.0168,-0.037119 -0.01,-0.087791 0.0203,-0.1535906 0.0713,-0.1844048 z m -0.18777,0.7713563 c 0.0623,-0.035984 0.13143,-0.03391 0.20439,0.026393 0.0236,0.01917 0.0407,0.021243 0.0619,0.00902 0.0853,-0.050295 0.17159,-0.098917 0.25784,-0.1476918 0.051,-0.029425 0.10124,-0.059482 0.1526,-0.088105 0.0458,-0.026422 0.0868,-0.00975 0.12047,0.047408 0.0258,0.044774 0.0169,0.088854 -0.0244,0.113754 l -0.0542,0.031265 -0.003,-0.00493 -6.1e-4,-2.533e-4 c -0.0595,0.034361 -0.11952,0.067974 -0.17857,0.1030959 -0.0694,0.042337 -0.13923,0.084169 -0.2071,0.1291159 -0.009,0.0062 -0.0153,0.022741 -0.0166,0.036407 -0.0145,0.1386517 -0.11131,0.1935005 -0.23866,0.1354123 -0.0152,-0.00713 -0.0372,-0.00316 -0.0514,0.00401 -0.15716,0.088446 -0.31289,0.1794828 -0.46907,0.2696481 -0.0395,0.022809 -0.0723,0.015951 -0.10469,-0.020104 -0.0321,-0.036233 -0.04,-0.08639 -0.0158,-0.1162138 0.0126,-0.01533 0.0288,-0.028577 0.0454,-0.038142 0.14257,-0.083341 0.28482,-0.1654696 0.42828,-0.2472702 0.0218,-0.012589 0.0299,-0.027852 0.0249,-0.060297 -0.0123,-0.08342 0.008,-0.1479104 0.0682,-0.1825954 z m 0.83006,1.6134155 c 0.0471,-0.029319 0.11107,-0.031213 0.17606,0.00935 0.024,0.015032 0.0406,0.01116 0.0588,6.296e-4 0.11969,-0.070127 0.23969,-0.13838 0.35982,-0.20774 0.0549,-0.03171 0.0993,-0.020281 0.12897,0.031161 0.0327,0.056725 0.0217,0.099658 -0.0338,0.1316731 l -0.17543,0.1012866 5.1e-4,8.763e-4 c -0.063,0.036349 -0.125,0.074316 -0.18937,0.1081637 -0.0177,0.00917 -0.0238,0.020414 -0.0198,0.04309 0.029,0.1692281 -0.13515,0.2550779 -0.26674,0.1540003 -0.0125,-0.00974 -0.0369,-0.00732 -0.0496,-4e-5 -0.10283,0.057078 -0.2042,0.1167738 -0.30714,0.1749425 -0.0446,0.02576 -0.079,0.014815 -0.1116,-0.031035 -0.0362,-0.050678 -0.0318,-0.1007712 0.0142,-0.1293461 0.059,-0.036383 0.11991,-0.070396 0.1794,-0.1047454 0.0469,-0.027079 0.0941,-0.052077 0.13905,-0.082664 0.0127,-0.00836 0.0238,-0.028655 0.0229,-0.046057 -0.003,-0.067603 0.0265,-0.1241973 0.0737,-0.1535213 z m 0.87552,0.1759559 c 0.0352,-0.017257 0.0816,-0.01636 0.13572,0.00459 0.07,0.027278 0.11626,0.015179 0.1643,-0.024445 0.0424,-0.034877 0.0932,-0.058586 0.14226,-0.083302 0.0307,-0.014265 0.0763,0.013702 0.0979,0.053853 0.0209,0.038625 0.0177,0.087173 -0.0115,0.1051107 -0.0608,0.037403 -0.12228,0.073404 -0.18606,0.1056025 -0.0257,0.013801 -0.0435,0.024768 -0.0385,0.067607 0.0111,0.1009996 -0.0364,0.1795681 -0.12128,0.1857804 -0.0401,0.00328 -0.0891,-0.019605 -0.13247,-0.039281 -0.0259,-0.01194 -0.0428,-0.020069 -0.0668,-0.00618 -0.42577,0.2481076 -0.853,0.4949574 -1.28031,0.7404008 -0.0407,0.023471 -0.0842,0.00793 -0.11106,-0.037319 -0.0301,-0.052221 -0.0237,-0.097921 0.0193,-0.122713 0.21395,-0.1235208 0.42865,-0.2473277 0.64361,-0.3704186 0.21166,-0.1222012 0.42344,-0.2443094 0.63557,-0.3657286 0.0228,-0.013175 0.0324,-0.030399 0.0335,-0.062911 0.003,-0.076422 0.0306,-0.1284466 0.0759,-0.1506409 z m -0.77624,1.1308009 c 0.0474,-0.026575 0.10997,-0.025253 0.17004,0.013414 0.024,0.015032 0.0395,0.014789 0.0584,0.0039 0.31591,-0.1834173 0.6324,-0.3651201 0.94876,-0.5477702 0.17163,-0.099091 0.34357,-0.1981936 0.51563,-0.296484 0.0481,-0.027745 0.10673,0.00675 0.12371,0.070597 0.0115,0.044029 -0.003,0.071425 -0.032,0.088276 l -0.34325,0.1981752 c -0.12987,0.07498 -0.25899,0.1496785 -0.3884,0.2254125 l 2.6e-4,4.557e-4 c -0.23913,0.1380643 -0.47833,0.2760032 -0.71792,0.4132774 -0.0228,0.013175 -0.0333,0.029827 -0.0311,0.063914 0.01,0.1645761 -0.12378,0.2372813 -0.26548,0.143741 -0.0244,-0.015726 -0.0392,-0.014962 -0.0575,-0.00443 -0.134,0.078393 -0.26772,0.1570442 -0.40272,0.233678 -0.0384,0.022149 -0.0864,0.0049 -0.11203,-0.037952 -0.0285,-0.049277 -0.0206,-0.097562 0.0207,-0.1223282 0.13514,-0.07905 0.27034,-0.157105 0.40636,-0.2346089 0.0212,-0.012224 0.0299,-0.027622 0.0289,-0.058455 -0.002,-0.072161 0.0302,-0.1262788 0.0777,-0.1528391 z m 1.24671,-0.023438 c 0.0477,-0.028121 0.11463,-0.023481 0.18854,0.020636 0.0142,0.00774 0.0359,0.0091 0.0474,0.00248 0.10512,-0.058401 0.20829,-0.1191377 0.31296,-0.1783062 0.0458,-0.026416 0.0914,-0.012249 0.11983,0.037026 0.0272,0.047025 0.0154,0.095567 -0.0304,0.1219885 -0.10006,0.057771 -0.19956,0.1166679 -0.30056,0.1729191 -0.0241,0.013904 -0.0344,0.03019 -0.0326,0.066548 0.007,0.138391 -0.11414,0.217105 -0.23208,0.1489096 -0.0427,-0.025122 -0.0696,-0.022461 -0.10276,-0.00333 -0.29649,0.1734673 -0.5942,0.3436695 -0.89166,0.515409 -0.0812,0.046881 -0.16071,0.095263 -0.24251,0.1411831 -0.0446,0.025754 -0.0929,0.00793 -0.1203,-0.040938 -0.0299,-0.054301 -0.0152,-0.099393 0.0337,-0.1256561 0.14337,-0.079316 0.28503,-0.1615705 0.42689,-0.2434765 l 0.14858,-0.085784 2.7e-4,4.557e-4 3.5e-4,-2.024e-4 3.5e-4,-2.024e-4 2.6e-4,4.557e-4 2.6e-4,4.558e-4 2.7e-4,4.557e-4 2.6e-4,4.557e-4 c 0.19451,-0.1122984 0.38856,-0.2244868 0.58263,-0.337551 0.009,-0.0054 0.0165,-0.024183 0.0167,-0.038283 -0.003,-0.086507 0.0258,-0.1473827 0.0735,-0.1755055 z m -0.2964,0.8436281 c 0.0523,-0.029709 0.1249,-0.026246 0.1933,0.026832 0.0223,0.01694 0.0356,0.010478 0.051,0.00157 l 0.42918,-0.2477904 c 0.0269,-0.015523 0.053,-0.031112 0.0809,-0.044917 0.041,-0.021393 0.0891,-0.00237 0.11422,0.043842 0.0248,0.04538 0.0141,0.091516 -0.0253,0.1142721 l -0.25509,0.1472749 -5.1e-4,-8.764e-4 c -0.0858,0.04953 -0.17088,0.1001557 -0.25759,0.1481145 -0.0189,0.010888 -0.0282,0.025387 -0.0262,0.052747 0.01,0.123766 -0.10886,0.2260226 -0.23784,0.1492571 -0.0314,-0.018721 -0.0538,-0.014607 -0.078,2.811e-4 -0.0546,0.03497 -0.11125,0.065401 -0.16731,0.097767 -0.0423,0.024434 -0.0895,0.00657 -0.11691,-0.042291 -0.0284,-0.04919 -0.0204,-0.097423 0.0225,-0.1222055 0.0579,-0.034471 0.11599,-0.067436 0.17583,-0.098527 0.0199,-0.010481 0.029,-0.024795 0.0248,-0.053118 -0.0117,-0.079776 0.0207,-0.1425234 0.073,-0.1722326 z m 1.07822,1.4200138 c 0.0489,-0.02944 0.11703,-0.02649 0.18686,0.01981 0.0297,0.01967 0.0482,0.0175 0.0707,0.0046 0.0894,-0.05264 0.17889,-0.103892 0.2687,-0.155741 l 0.1996,-0.115239 c 0.0418,-0.02413 0.0919,-0.0076 0.1176,0.03832 0.0267,0.04625 0.0188,0.09971 -0.022,0.124258 -0.0813,0.04926 -0.16382,0.09575 -0.24563,0.142987 -0.0789,0.04555 -0.15826,0.0924 -0.23764,0.1372 -0.0189,0.01089 -0.0274,0.02509 -0.0279,0.05192 -2.2e-4,0.142364 -0.11657,0.213117 -0.24202,0.145103 -0.0291,-0.01599 -0.0483,-0.01447 -0.0712,-0.0013 -0.14073,0.08125 -0.28323,0.161093 -0.42447,0.241471 -0.0189,0.01089 -0.0364,0.02574 -0.0557,0.03577 -0.0399,0.01955 -0.0905,-0.0026 -0.11584,-0.04769 -0.0258,-0.04477 -0.015,-0.09577 0.025,-0.118888 0.15846,-0.09148 0.31645,-0.182539 0.47536,-0.273233 0.0195,-0.01125 0.0299,-0.02302 0.0271,-0.05441 -0.007,-0.0835 0.0226,-0.145477 0.0715,-0.174926 z m 0.9131,0.181115 c 0.046,-0.0244 0.10626,-0.02379 0.16381,0.0099 0.0304,0.01825 0.05,0.01683 0.0735,0.0023 0.0746,-0.04653 0.15096,-0.08964 0.22818,-0.132912 0.0422,-0.02336 0.0838,-0.0069 0.11263,0.04417 0.0267,0.04625 0.0194,0.0916 -0.0208,0.11585 -0.0756,0.0447 -0.15159,0.08981 -0.22868,0.132029 -0.0205,0.01186 -0.0281,0.02658 -0.0253,0.0564 0.0146,0.162678 -0.12846,0.246315 -0.26033,0.152681 -0.0306,-0.02115 -0.0492,-0.01631 -0.0704,-0.0041 -0.16546,0.09656 -0.33163,0.192071 -0.49695,0.287521 -0.29518,0.170424 -0.58983,0.341755 -0.88558,0.512507 -0.0154,0.0089 -0.0307,0.0166 -0.0467,0.02457 -0.0433,0.02154 -0.0823,0.0059 -0.11168,-0.0477 -0.0254,-0.04399 -0.016,-0.09042 0.0217,-0.112204 l 0.72052,-0.415994 2.6e-4,4.56e-4 c 0.23341,-0.134755 0.46706,-0.269503 0.70089,-0.403489 0.0292,-0.01686 0.0451,-0.03688 0.0455,-0.08238 0.002,-0.06604 0.0334,-0.115128 0.0794,-0.139507 z m -0.9408,1.201336 c 0.0533,-0.03083 0.12646,-0.02339 0.19068,0.02537 0.0232,0.0185 0.0401,0.01384 0.059,0.0029 l 0.83464,-0.481881 0.69725,-0.40256 c 0.0126,-0.0073 0.0257,-0.01365 0.0392,-0.01787 0.0353,-0.01001 0.0682,0.0082 0.0909,0.04895 0.0258,0.04477 0.0254,0.08061 -0.002,0.107312 -0.0116,0.01016 -0.0249,0.018 -0.0387,0.02595 l -0.75767,0.437441 -3.5e-4,2.02e-4 c -0.25572,0.147639 -0.51009,0.295386 -0.7667,0.44144 -0.0263,0.01516 -0.0376,0.03398 -0.0378,0.07196 -3.6e-4,0.131512 -0.12525,0.20049 -0.24059,0.134141 -0.0285,-0.01636 -0.0489,-0.01651 -0.0717,-0.0033 -0.102,0.06118 -0.20545,0.119785 -0.30784,0.1789 -0.0297,0.01716 -0.0605,0.01398 -0.0937,-0.01451 -0.0285,-0.02432 -0.0439,-0.05954 -0.0359,-0.08907 0.007,-0.02603 0.0247,-0.05095 0.0455,-0.06386 0.0946,-0.05808 0.19053,-0.113599 0.2877,-0.167272 0.024,-0.01384 0.035,-0.03039 0.0336,-0.06592 -0.004,-0.0839 0.0276,-0.141175 0.0746,-0.16839 z m 1.40515,-0.130416 c 0.051,-0.03082 0.12258,-0.02722 0.19521,0.02394 0.0211,0.01475 0.0345,0.01587 0.0518,0.0059 0.11283,-0.06617 0.22613,-0.131165 0.33941,-0.196565 0.0452,-0.02612 0.082,-0.01476 0.11412,0.03436 0.0329,0.04962 0.0279,0.0971 -0.0132,0.119789 -0.0496,0.02763 -0.10197,0.05175 -0.15072,0.08105 -0.0589,0.034 -0.11538,0.07026 -0.17329,0.106022 -0.0191,0.01202 -0.0381,0.02316 -0.0563,0.03369 l 2.7e-4,4.55e-4 c 0.0271,0.188256 -0.13193,0.260377 -0.25374,0.177521 -0.0136,-0.009 -0.0376,-0.0075 -0.0503,-2.23e-4 -0.2962,0.168719 -0.59147,0.340269 -0.88664,0.510688 l -0.44574,0.257345 c -0.0315,0.01818 -0.0725,0.0075 -0.0991,-0.02391 -0.026,-0.03069 -0.0353,-0.08222 -0.0177,-0.113309 0.006,-0.0091 0.0148,-0.0175 0.0239,-0.02272 0.35812,-0.206761 0.71667,-0.413161 1.07479,-0.619921 0.0869,-0.05019 0.17372,-0.09983 0.25917,-0.152623 0.009,-0.0054 0.0177,-0.02338 0.0165,-0.03757 -0.01,-0.0878 0.0206,-0.153149 0.0716,-0.183963 z m -0.18803,0.770906 c 0.0623,-0.03598 0.13144,-0.0339 0.20439,0.0264 0.0236,0.01918 0.0403,0.02147 0.0615,0.0093 0.0854,-0.05023 0.17204,-0.09917 0.25838,-0.147778 0.051,-0.02943 0.10129,-0.05941 0.1526,-0.08811 0.0458,-0.02642 0.087,-0.0093 0.12073,0.04785 0.0258,0.04477 0.0167,0.08849 -0.0247,0.113303 l -0.0542,0.03126 -0.003,-0.0049 -0.001,2.57e-4 c -0.0595,0.03436 -0.11902,0.06778 -0.17812,0.102835 -0.0693,0.04237 -0.13924,0.08413 -0.2071,0.129105 -0.009,0.0061 -0.0153,0.02275 -0.0166,0.03639 -0.0145,0.138649 -0.1113,0.193508 -0.23865,0.135448 -0.0152,-0.0071 -0.0372,-0.0032 -0.0514,0.004 -0.15718,0.08841 -0.313,0.179307 -0.46917,0.269473 -0.0395,0.02281 -0.0723,0.01596 -0.1047,-0.02011 -0.032,-0.03623 -0.0399,-0.08628 -0.0158,-0.116205 0.0126,-0.01533 0.0284,-0.02831 0.045,-0.03787 0.14262,-0.08328 0.28532,-0.165661 0.42874,-0.247532 0.0218,-0.01259 0.0294,-0.02759 0.0244,-0.06004 -0.0123,-0.08342 0.009,-0.148168 0.0687,-0.182853 z m 0.82962,1.613676 c 0.047,-0.02949 0.11151,-0.03148 0.1765,0.0091 0.024,0.01504 0.0404,0.01186 0.0587,0.0013 0.11972,-0.07005 0.23969,-0.138384 0.35982,-0.20774 0.0549,-0.03171 0.0994,-0.02101 0.12915,0.03045 0.0328,0.05673 0.0217,0.09966 -0.0338,0.131673 l -0.17544,0.101286 6.1e-4,0.0011 c -0.063,0.03635 -0.12491,0.07446 -0.18947,0.107988 -0.0176,0.0092 -0.0242,0.02068 -0.0203,0.04336 0.0291,0.169229 -0.1347,0.254817 -0.26629,0.153741 -0.0125,-0.0097 -0.0369,-0.0073 -0.0496,-4.4e-5 -0.10285,0.05704 -0.20412,0.116914 -0.30711,0.174978 -0.0446,0.02576 -0.0795,0.01508 -0.11205,-0.03078 -0.0362,-0.05068 -0.0314,-0.101042 0.0147,-0.129609 0.059,-0.03642 0.11935,-0.07031 0.17885,-0.104662 0.0469,-0.02708 0.0946,-0.05227 0.13951,-0.08289 0.0128,-0.0083 0.0238,-0.02865 0.0229,-0.04605 -0.004,-0.0676 0.0261,-0.123934 0.0732,-0.15326 z m 0.87597,0.175704 c 0.0353,-0.01712 0.0816,-0.01638 0.13571,0.0046 0.07,0.02728 0.11627,0.01518 0.1643,-0.02445 0.0424,-0.03486 0.0928,-0.05833 0.14171,-0.08322 0.0306,-0.01441 0.0767,0.01344 0.0984,0.05359 0.0209,0.03863 0.0176,0.08788 -0.0117,0.105821 -0.0608,0.03744 -0.12249,0.07305 -0.18629,0.105219 -0.0256,0.01385 -0.0431,0.0245 -0.0381,0.06733 0.0111,0.101 -0.0364,0.179567 -0.12127,0.185791 -0.0401,0.0033 -0.0892,-0.01961 -0.13248,-0.03929 -0.0259,-0.01195 -0.0427,-0.02005 -0.0668,-0.0062 -0.42574,0.248142 -0.85306,0.494852 -1.28022,0.740541 -0.0407,0.02347 -0.0842,0.0079 -0.11106,-0.03732 -0.0301,-0.05222 -0.0237,-0.09792 0.0193,-0.122712 0.2138,-0.123436 0.42835,-0.247147 0.64326,-0.369985 l 3.5e-4,-2.02e-4 c 0.21151,-0.122116 0.42314,-0.244149 0.63521,-0.365334 0.0228,-0.01318 0.0328,-0.03064 0.034,-0.06316 0.003,-0.07643 0.0306,-0.128455 0.0759,-0.15064 z m -0.77625,1.130801 c 0.0475,-0.02647 0.10997,-0.02526 0.17004,0.01341 0.024,0.01505 0.0395,0.01479 0.0584,0.0039 0.31594,-0.183347 0.6324,-0.36512 0.94876,-0.54777 0.17163,-0.09909 0.34356,-0.198203 0.51571,-0.296344 0.0481,-0.02774 0.10673,0.0068 0.12371,0.0706 0.0115,0.04403 -0.003,0.07143 -0.032,0.08828 l -0.34325,0.198175 c -0.12987,0.07498 -0.25899,0.149678 -0.3883,0.225588 l 2e-4,3.5e-4 c -0.23913,0.138064 -0.47832,0.276012 -0.718,0.413137 -0.0228,0.01318 -0.0333,0.02983 -0.0311,0.06391 0.01,0.164577 -0.12379,0.237265 -0.26548,0.143745 -0.0244,-0.01571 -0.0392,-0.01495 -0.0574,-0.0044 -0.13404,0.07832 -0.26778,0.156939 -0.40262,0.233853 -0.0384,0.02215 -0.0864,0.0049 -0.11203,-0.03796 -0.0285,-0.04928 -0.0206,-0.09756 0.0207,-0.122328 0.13518,-0.07898 0.27037,-0.157035 0.40635,-0.234609 0.0212,-0.01222 0.0294,-0.02737 0.0284,-0.05821 -0.002,-0.07216 0.0307,-0.126531 0.0781,-0.153091 z" /><g
         id="rect10-5-4-4-5"
         style="opacity:1;fill:url(#linearGradient243);fill-opacity:1" /></g><g
       id="g202"
       transform="matrix(1.2035695,0,0,1,-29.679241,-0.19534435)"
       style="fill:url(#linearGradient239)" /></g><style
     type="text/css"
     id="style1617">
	.st0{fill-rule:evenodd;clip-rule:evenodd;fill:#3B454E;}
	.st1{fill-rule:evenodd;clip-rule:evenodd;fill:#539EA1;}
	.st2{fill-rule:evenodd;clip-rule:evenodd;fill:#3C9BD6;}
	.st3{fill-rule:evenodd;clip-rule:evenodd;fill:#E94E3E;}
</style><script
     id="mesh_polyfill"
     type="text/javascript">
!function(){const t=&quot;http://www.w3.org/2000/svg&quot;,e=&quot;http://www.w3.org/1999/xlink&quot;,s=&quot;http://www.w3.org/1999/xhtml&quot;,r=2;if(document.createElementNS(t,&quot;meshgradient&quot;).x)return;const n=(t,e,s,r)=&gt;{let n=new x(.5*(e.x+s.x),.5*(e.y+s.y)),o=new x(.5*(t.x+e.x),.5*(t.y+e.y)),i=new x(.5*(s.x+r.x),.5*(s.y+r.y)),a=new x(.5*(n.x+o.x),.5*(n.y+o.y)),h=new x(.5*(n.x+i.x),.5*(n.y+i.y)),l=new x(.5*(a.x+h.x),.5*(a.y+h.y));return[[t,o,a,l],[l,h,i,r]]},o=t=&gt;{let e=t[0].distSquared(t[1]),s=t[2].distSquared(t[3]),r=.25*t[0].distSquared(t[2]),n=.25*t[1].distSquared(t[3]),o=e&gt;s?e:s,i=r&gt;n?r:n;return 18*(o&gt;i?o:i)},i=(t,e)=&gt;Math.sqrt(t.distSquared(e)),a=(t,e)=&gt;t.scale(2/3).add(e.scale(1/3)),h=t=&gt;{let e,s,r,n,o,i,a,h=new g;return t.match(/(\w+\(\s*[^)]+\))+/g).forEach(t=&gt;{let l=t.match(/[\w.-]+/g),d=l.shift();switch(d){case&quot;translate&quot;:2===l.length?e=new g(1,0,0,1,l[0],l[1]):(console.error(&quot;mesh.js: translate does not have 2 arguments!&quot;),e=new g(1,0,0,1,0,0)),h=h.append(e);break;case&quot;scale&quot;:1===l.length?s=new g(l[0],0,0,l[0],0,0):2===l.length?s=new g(l[0],0,0,l[1],0,0):(console.error(&quot;mesh.js: scale does not have 1 or 2 arguments!&quot;),s=new g(1,0,0,1,0,0)),h=h.append(s);break;case&quot;rotate&quot;:if(3===l.length&amp;&amp;(e=new g(1,0,0,1,l[1],l[2]),h=h.append(e)),l[0]){r=l[0]*Math.PI/180;let t=Math.cos(r),e=Math.sin(r);Math.abs(t)&lt;1e-16&amp;&amp;(t=0),Math.abs(e)&lt;1e-16&amp;&amp;(e=0),a=new g(t,e,-e,t,0,0),h=h.append(a)}else console.error(&quot;math.js: No argument to rotate transform!&quot;);3===l.length&amp;&amp;(e=new g(1,0,0,1,-l[1],-l[2]),h=h.append(e));break;case&quot;skewX&quot;:l[0]?(r=l[0]*Math.PI/180,n=Math.tan(r),o=new g(1,0,n,1,0,0),h=h.append(o)):console.error(&quot;math.js: No argument to skewX transform!&quot;);break;case&quot;skewY&quot;:l[0]?(r=l[0]*Math.PI/180,n=Math.tan(r),i=new g(1,n,0,1,0,0),h=h.append(i)):console.error(&quot;math.js: No argument to skewY transform!&quot;);break;case&quot;matrix&quot;:6===l.length?h=h.append(new g(...l)):console.error(&quot;math.js: Incorrect number of arguments for matrix!&quot;);break;default:console.error(&quot;mesh.js: Unhandled transform type: &quot;+d)}}),h},l=t=&gt;{let e=[],s=t.split(/[ ,]+/);for(let t=0,r=s.length-1;t&lt;r;t+=2)e.push(new x(parseFloat(s[t]),parseFloat(s[t+1])));return e},d=(t,e)=&gt;{for(let s in e)t.setAttribute(s,e[s])},c=(t,e,s,r,n)=&gt;{let o,i,a=[0,0,0,0];for(let h=0;h&lt;3;++h)e[h]&lt;t[h]&amp;&amp;e[h]&lt;s[h]||t[h]&lt;e[h]&amp;&amp;s[h]&lt;e[h]?a[h]=0:(a[h]=.5*((e[h]-t[h])/r+(s[h]-e[h])/n),o=Math.abs(3*(e[h]-t[h])/r),i=Math.abs(3*(s[h]-e[h])/n),a[h]&gt;o?a[h]=o:a[h]&gt;i&amp;&amp;(a[h]=i));return a},u=[[1,0,0,0,0,0,0,0,0,0,0,0,0,0,0,0],[0,0,0,0,1,0,0,0,0,0,0,0,0,0,0,0],[-3,3,0,0,-2,-1,0,0,0,0,0,0,0,0,0,0],[2,-2,0,0,1,1,0,0,0,0,0,0,0,0,0,0],[0,0,0,0,0,0,0,0,1,0,0,0,0,0,0,0],[0,0,0,0,0,0,0,0,0,0,0,0,1,0,0,0],[0,0,0,0,0,0,0,0,-3,3,0,0,-2,-1,0,0],[0,0,0,0,0,0,0,0,2,-2,0,0,1,1,0,0],[-3,0,3,0,0,0,0,0,-2,0,-1,0,0,0,0,0],[0,0,0,0,-3,0,3,0,0,0,0,0,-2,0,-1,0],[9,-9,-9,9,6,3,-6,-3,6,-6,3,-3,4,2,2,1],[-6,6,6,-6,-3,-3,3,3,-4,4,-2,2,-2,-2,-1,-1],[2,0,-2,0,0,0,0,0,1,0,1,0,0,0,0,0],[0,0,0,0,2,0,-2,0,0,0,0,0,1,0,1,0],[-6,6,6,-6,-4,-2,4,2,-3,3,-3,3,-2,-1,-2,-1],[4,-4,-4,4,2,2,-2,-2,2,-2,2,-2,1,1,1,1]],f=t=&gt;{let e=[];for(let s=0;s&lt;16;++s){e[s]=0;for(let r=0;r&lt;16;++r)e[s]+=u[s][r]*t[r]}return e},p=(t,e,s)=&gt;{const r=e*e,n=s*s,o=e*e*e,i=s*s*s;return t[0]+t[1]*e+t[2]*r+t[3]*o+t[4]*s+t[5]*s*e+t[6]*s*r+t[7]*s*o+t[8]*n+t[9]*n*e+t[10]*n*r+t[11]*n*o+t[12]*i+t[13]*i*e+t[14]*i*r+t[15]*i*o},y=t=&gt;{let e=[],s=[],r=[];for(let s=0;s&lt;4;++s)e[s]=[],e[s][0]=n(t[0][s],t[1][s],t[2][s],t[3][s]),e[s][1]=[],e[s][1].push(...n(...e[s][0][0])),e[s][1].push(...n(...e[s][0][1])),e[s][2]=[],e[s][2].push(...n(...e[s][1][0])),e[s][2].push(...n(...e[s][1][1])),e[s][2].push(...n(...e[s][1][2])),e[s][2].push(...n(...e[s][1][3]));for(let t=0;t&lt;8;++t){s[t]=[];for(let r=0;r&lt;4;++r)s[t][r]=[],s[t][r][0]=n(e[0][2][t][r],e[1][2][t][r],e[2][2][t][r],e[3][2][t][r]),s[t][r][1]=[],s[t][r][1].push(...n(...s[t][r][0][0])),s[t][r][1].push(...n(...s[t][r][0][1])),s[t][r][2]=[],s[t][r][2].push(...n(...s[t][r][1][0])),s[t][r][2].push(...n(...s[t][r][1][1])),s[t][r][2].push(...n(...s[t][r][1][2])),s[t][r][2].push(...n(...s[t][r][1][3]))}for(let t=0;t&lt;8;++t){r[t]=[];for(let e=0;e&lt;8;++e)r[t][e]=[],r[t][e][0]=s[t][0][2][e],r[t][e][1]=s[t][1][2][e],r[t][e][2]=s[t][2][2][e],r[t][e][3]=s[t][3][2][e]}return r};class x{constructor(t,e){this.x=t||0,this.y=e||0}toString(){return`(x=${this.x}, y=${this.y})`}clone(){return new x(this.x,this.y)}add(t){return new x(this.x+t.x,this.y+t.y)}scale(t){return void 0===t.x?new x(this.x*t,this.y*t):new x(this.x*t.x,this.y*t.y)}distSquared(t){let e=this.x-t.x,s=this.y-t.y;return e*e+s*s}transform(t){let e=this.x*t.a+this.y*t.c+t.e,s=this.x*t.b+this.y*t.d+t.f;return new x(e,s)}}class g{constructor(t,e,s,r,n,o){void 0===t?(this.a=1,this.b=0,this.c=0,this.d=1,this.e=0,this.f=0):(this.a=t,this.b=e,this.c=s,this.d=r,this.e=n,this.f=o)}toString(){return`affine: ${this.a} ${this.c} ${this.e} \n       ${this.b} ${this.d} ${this.f}`}append(t){t instanceof g||console.error(&quot;mesh.js: argument to Affine.append is not affine!&quot;);let e=this.a*t.a+this.c*t.b,s=this.b*t.a+this.d*t.b,r=this.a*t.c+this.c*t.d,n=this.b*t.c+this.d*t.d,o=this.a*t.e+this.c*t.f+this.e,i=this.b*t.e+this.d*t.f+this.f;return new g(e,s,r,n,o,i)}}class w{constructor(t,e){this.nodes=t,this.colors=e}paintCurve(t,e){if(o(this.nodes)&gt;r){const s=n(...this.nodes);let r=[[],[]],o=[[],[]];for(let t=0;t&lt;4;++t)r[0][t]=this.colors[0][t],r[1][t]=(this.colors[0][t]+this.colors[1][t])/2,o[0][t]=r[1][t],o[1][t]=this.colors[1][t];let i=new w(s[0],r),a=new w(s[1],o);i.paintCurve(t,e),a.paintCurve(t,e)}else{let s=Math.round(this.nodes[0].x);if(s&gt;=0&amp;&amp;s&lt;e){let r=4*(~~this.nodes[0].y*e+s);t[r]=Math.round(this.colors[0][0]),t[r+1]=Math.round(this.colors[0][1]),t[r+2]=Math.round(this.colors[0][2]),t[r+3]=Math.round(this.colors[0][3])}}}}class m{constructor(t,e){this.nodes=t,this.colors=e}split(){let t=[[],[],[],[]],e=[[],[],[],[]],s=[[[],[]],[[],[]]],r=[[[],[]],[[],[]]];for(let s=0;s&lt;4;++s){const r=n(this.nodes[0][s],this.nodes[1][s],this.nodes[2][s],this.nodes[3][s]);t[0][s]=r[0][0],t[1][s]=r[0][1],t[2][s]=r[0][2],t[3][s]=r[0][3],e[0][s]=r[1][0],e[1][s]=r[1][1],e[2][s]=r[1][2],e[3][s]=r[1][3]}for(let t=0;t&lt;4;++t)s[0][0][t]=this.colors[0][0][t],s[0][1][t]=this.colors[0][1][t],s[1][0][t]=(this.colors[0][0][t]+this.colors[1][0][t])/2,s[1][1][t]=(this.colors[0][1][t]+this.colors[1][1][t])/2,r[0][0][t]=s[1][0][t],r[0][1][t]=s[1][1][t],r[1][0][t]=this.colors[1][0][t],r[1][1][t]=this.colors[1][1][t];return[new m(t,s),new m(e,r)]}paint(t,e){let s,n=!1;for(let t=0;t&lt;4;++t)if((s=o([this.nodes[0][t],this.nodes[1][t],this.nodes[2][t],this.nodes[3][t]]))&gt;r){n=!0;break}if(n){let s=this.split();s[0].paint(t,e),s[1].paint(t,e)}else{new w([...this.nodes[0]],[...this.colors[0]]).paintCurve(t,e)}}}class b{constructor(t){this.readMesh(t),this.type=t.getAttribute(&quot;type&quot;)||&quot;bilinear&quot;}readMesh(t){let e=[[]],s=[[]],r=Number(t.getAttribute(&quot;x&quot;)),n=Number(t.getAttribute(&quot;y&quot;));e[0][0]=new x(r,n);let o=t.children;for(let t=0,r=o.length;t&lt;r;++t){e[3*t+1]=[],e[3*t+2]=[],e[3*t+3]=[],s[t+1]=[];let r=o[t].children;for(let n=0,o=r.length;n&lt;o;++n){let o=r[n].children;for(let r=0,i=o.length;r&lt;i;++r){let i=r;0!==t&amp;&amp;++i;let h,d=o[r].getAttribute(&quot;path&quot;),c=&quot;l&quot;;null!=d&amp;&amp;(c=(h=d.match(/\s*([lLcC])\s*(.*)/))[1]);let u=l(h[2]);switch(c){case&quot;l&quot;:0===i?(e[3*t][3*n+3]=u[0].add(e[3*t][3*n]),e[3*t][3*n+1]=a(e[3*t][3*n],e[3*t][3*n+3]),e[3*t][3*n+2]=a(e[3*t][3*n+3],e[3*t][3*n])):1===i?(e[3*t+3][3*n+3]=u[0].add(e[3*t][3*n+3]),e[3*t+1][3*n+3]=a(e[3*t][3*n+3],e[3*t+3][3*n+3]),e[3*t+2][3*n+3]=a(e[3*t+3][3*n+3],e[3*t][3*n+3])):2===i?(0===n&amp;&amp;(e[3*t+3][3*n+0]=u[0].add(e[3*t+3][3*n+3])),e[3*t+3][3*n+1]=a(e[3*t+3][3*n],e[3*t+3][3*n+3]),e[3*t+3][3*n+2]=a(e[3*t+3][3*n+3],e[3*t+3][3*n])):(e[3*t+1][3*n]=a(e[3*t][3*n],e[3*t+3][3*n]),e[3*t+2][3*n]=a(e[3*t+3][3*n],e[3*t][3*n]));break;case&quot;L&quot;:0===i?(e[3*t][3*n+3]=u[0],e[3*t][3*n+1]=a(e[3*t][3*n],e[3*t][3*n+3]),e[3*t][3*n+2]=a(e[3*t][3*n+3],e[3*t][3*n])):1===i?(e[3*t+3][3*n+3]=u[0],e[3*t+1][3*n+3]=a(e[3*t][3*n+3],e[3*t+3][3*n+3]),e[3*t+2][3*n+3]=a(e[3*t+3][3*n+3],e[3*t][3*n+3])):2===i?(0===n&amp;&amp;(e[3*t+3][3*n+0]=u[0]),e[3*t+3][3*n+1]=a(e[3*t+3][3*n],e[3*t+3][3*n+3]),e[3*t+3][3*n+2]=a(e[3*t+3][3*n+3],e[3*t+3][3*n])):(e[3*t+1][3*n]=a(e[3*t][3*n],e[3*t+3][3*n]),e[3*t+2][3*n]=a(e[3*t+3][3*n],e[3*t][3*n]));break;case&quot;c&quot;:0===i?(e[3*t][3*n+1]=u[0].add(e[3*t][3*n]),e[3*t][3*n+2]=u[1].add(e[3*t][3*n]),e[3*t][3*n+3]=u[2].add(e[3*t][3*n])):1===i?(e[3*t+1][3*n+3]=u[0].add(e[3*t][3*n+3]),e[3*t+2][3*n+3]=u[1].add(e[3*t][3*n+3]),e[3*t+3][3*n+3]=u[2].add(e[3*t][3*n+3])):2===i?(e[3*t+3][3*n+2]=u[0].add(e[3*t+3][3*n+3]),e[3*t+3][3*n+1]=u[1].add(e[3*t+3][3*n+3]),0===n&amp;&amp;(e[3*t+3][3*n+0]=u[2].add(e[3*t+3][3*n+3]))):(e[3*t+2][3*n]=u[0].add(e[3*t+3][3*n]),e[3*t+1][3*n]=u[1].add(e[3*t+3][3*n]));break;case&quot;C&quot;:0===i?(e[3*t][3*n+1]=u[0],e[3*t][3*n+2]=u[1],e[3*t][3*n+3]=u[2]):1===i?(e[3*t+1][3*n+3]=u[0],e[3*t+2][3*n+3]=u[1],e[3*t+3][3*n+3]=u[2]):2===i?(e[3*t+3][3*n+2]=u[0],e[3*t+3][3*n+1]=u[1],0===n&amp;&amp;(e[3*t+3][3*n+0]=u[2])):(e[3*t+2][3*n]=u[0],e[3*t+1][3*n]=u[1]);break;default:console.error(&quot;mesh.js: &quot;+c+&quot; invalid path type.&quot;)}if(0===t&amp;&amp;0===n||r&gt;0){let e=window.getComputedStyle(o[r]).stopColor.match(/^rgb\s*\(\s*(\d+)\s*,\s*(\d+)\s*,\s*(\d+)\s*\)$/i),a=window.getComputedStyle(o[r]).stopOpacity,h=255;a&amp;&amp;(h=Math.floor(255*a)),e&amp;&amp;(0===i?(s[t][n]=[],s[t][n][0]=Math.floor(e[1]),s[t][n][1]=Math.floor(e[2]),s[t][n][2]=Math.floor(e[3]),s[t][n][3]=h):1===i?(s[t][n+1]=[],s[t][n+1][0]=Math.floor(e[1]),s[t][n+1][1]=Math.floor(e[2]),s[t][n+1][2]=Math.floor(e[3]),s[t][n+1][3]=h):2===i?(s[t+1][n+1]=[],s[t+1][n+1][0]=Math.floor(e[1]),s[t+1][n+1][1]=Math.floor(e[2]),s[t+1][n+1][2]=Math.floor(e[3]),s[t+1][n+1][3]=h):3===i&amp;&amp;(s[t+1][n]=[],s[t+1][n][0]=Math.floor(e[1]),s[t+1][n][1]=Math.floor(e[2]),s[t+1][n][2]=Math.floor(e[3]),s[t+1][n][3]=h))}}e[3*t+1][3*n+1]=new x,e[3*t+1][3*n+2]=new x,e[3*t+2][3*n+1]=new x,e[3*t+2][3*n+2]=new x,e[3*t+1][3*n+1].x=(-4*e[3*t][3*n].x+6*(e[3*t][3*n+1].x+e[3*t+1][3*n].x)+-2*(e[3*t][3*n+3].x+e[3*t+3][3*n].x)+3*(e[3*t+3][3*n+1].x+e[3*t+1][3*n+3].x)+-1*e[3*t+3][3*n+3].x)/9,e[3*t+1][3*n+2].x=(-4*e[3*t][3*n+3].x+6*(e[3*t][3*n+2].x+e[3*t+1][3*n+3].x)+-2*(e[3*t][3*n].x+e[3*t+3][3*n+3].x)+3*(e[3*t+3][3*n+2].x+e[3*t+1][3*n].x)+-1*e[3*t+3][3*n].x)/9,e[3*t+2][3*n+1].x=(-4*e[3*t+3][3*n].x+6*(e[3*t+3][3*n+1].x+e[3*t+2][3*n].x)+-2*(e[3*t+3][3*n+3].x+e[3*t][3*n].x)+3*(e[3*t][3*n+1].x+e[3*t+2][3*n+3].x)+-1*e[3*t][3*n+3].x)/9,e[3*t+2][3*n+2].x=(-4*e[3*t+3][3*n+3].x+6*(e[3*t+3][3*n+2].x+e[3*t+2][3*n+3].x)+-2*(e[3*t+3][3*n].x+e[3*t][3*n+3].x)+3*(e[3*t][3*n+2].x+e[3*t+2][3*n].x)+-1*e[3*t][3*n].x)/9,e[3*t+1][3*n+1].y=(-4*e[3*t][3*n].y+6*(e[3*t][3*n+1].y+e[3*t+1][3*n].y)+-2*(e[3*t][3*n+3].y+e[3*t+3][3*n].y)+3*(e[3*t+3][3*n+1].y+e[3*t+1][3*n+3].y)+-1*e[3*t+3][3*n+3].y)/9,e[3*t+1][3*n+2].y=(-4*e[3*t][3*n+3].y+6*(e[3*t][3*n+2].y+e[3*t+1][3*n+3].y)+-2*(e[3*t][3*n].y+e[3*t+3][3*n+3].y)+3*(e[3*t+3][3*n+2].y+e[3*t+1][3*n].y)+-1*e[3*t+3][3*n].y)/9,e[3*t+2][3*n+1].y=(-4*e[3*t+3][3*n].y+6*(e[3*t+3][3*n+1].y+e[3*t+2][3*n].y)+-2*(e[3*t+3][3*n+3].y+e[3*t][3*n].y)+3*(e[3*t][3*n+1].y+e[3*t+2][3*n+3].y)+-1*e[3*t][3*n+3].y)/9,e[3*t+2][3*n+2].y=(-4*e[3*t+3][3*n+3].y+6*(e[3*t+3][3*n+2].y+e[3*t+2][3*n+3].y)+-2*(e[3*t+3][3*n].y+e[3*t][3*n+3].y)+3*(e[3*t][3*n+2].y+e[3*t+2][3*n].y)+-1*e[3*t][3*n].y)/9}}this.nodes=e,this.colors=s}paintMesh(t,e){let s=(this.nodes.length-1)/3,r=(this.nodes[0].length-1)/3;if(&quot;bilinear&quot;===this.type||s&lt;2||r&lt;2){let n;for(let o=0;o&lt;s;++o)for(let s=0;s&lt;r;++s){let r=[];for(let t=3*o,e=3*o+4;t&lt;e;++t)r.push(this.nodes[t].slice(3*s,3*s+4));let i=[];i.push(this.colors[o].slice(s,s+2)),i.push(this.colors[o+1].slice(s,s+2)),(n=new m(r,i)).paint(t,e)}}else{let n,o,a,h,l,d,u;const x=s,g=r;s++,r++;let w=new Array(s);for(let t=0;t&lt;s;++t){w[t]=new Array(r);for(let e=0;e&lt;r;++e)w[t][e]=[],w[t][e][0]=this.nodes[3*t][3*e],w[t][e][1]=this.colors[t][e]}for(let t=0;t&lt;s;++t)for(let e=0;e&lt;r;++e)0!==t&amp;&amp;t!==x&amp;&amp;(n=i(w[t-1][e][0],w[t][e][0]),o=i(w[t+1][e][0],w[t][e][0]),w[t][e][2]=c(w[t-1][e][1],w[t][e][1],w[t+1][e][1],n,o)),0!==e&amp;&amp;e!==g&amp;&amp;(n=i(w[t][e-1][0],w[t][e][0]),o=i(w[t][e+1][0],w[t][e][0]),w[t][e][3]=c(w[t][e-1][1],w[t][e][1],w[t][e+1][1],n,o));for(let t=0;t&lt;r;++t){w[0][t][2]=[],w[x][t][2]=[];for(let e=0;e&lt;4;++e)n=i(w[1][t][0],w[0][t][0]),o=i(w[x][t][0],w[x-1][t][0]),w[0][t][2][e]=n&gt;0?2*(w[1][t][1][e]-w[0][t][1][e])/n-w[1][t][2][e]:0,w[x][t][2][e]=o&gt;0?2*(w[x][t][1][e]-w[x-1][t][1][e])/o-w[x-1][t][2][e]:0}for(let t=0;t&lt;s;++t){w[t][0][3]=[],w[t][g][3]=[];for(let e=0;e&lt;4;++e)n=i(w[t][1][0],w[t][0][0]),o=i(w[t][g][0],w[t][g-1][0]),w[t][0][3][e]=n&gt;0?2*(w[t][1][1][e]-w[t][0][1][e])/n-w[t][1][3][e]:0,w[t][g][3][e]=o&gt;0?2*(w[t][g][1][e]-w[t][g-1][1][e])/o-w[t][g-1][3][e]:0}for(let s=0;s&lt;x;++s)for(let r=0;r&lt;g;++r){let n=i(w[s][r][0],w[s+1][r][0]),o=i(w[s][r+1][0],w[s+1][r+1][0]),c=i(w[s][r][0],w[s][r+1][0]),x=i(w[s+1][r][0],w[s+1][r+1][0]),g=[[],[],[],[]];for(let t=0;t&lt;4;++t){(d=[])[0]=w[s][r][1][t],d[1]=w[s+1][r][1][t],d[2]=w[s][r+1][1][t],d[3]=w[s+1][r+1][1][t],d[4]=w[s][r][2][t]*n,d[5]=w[s+1][r][2][t]*n,d[6]=w[s][r+1][2][t]*o,d[7]=w[s+1][r+1][2][t]*o,d[8]=w[s][r][3][t]*c,d[9]=w[s+1][r][3][t]*x,d[10]=w[s][r+1][3][t]*c,d[11]=w[s+1][r+1][3][t]*x,d[12]=0,d[13]=0,d[14]=0,d[15]=0,u=f(d);for(let e=0;e&lt;9;++e){g[t][e]=[];for(let s=0;s&lt;9;++s)g[t][e][s]=p(u,e/8,s/8),g[t][e][s]&gt;255?g[t][e][s]=255:g[t][e][s]&lt;0&amp;&amp;(g[t][e][s]=0)}}h=[];for(let t=3*s,e=3*s+4;t&lt;e;++t)h.push(this.nodes[t].slice(3*r,3*r+4));l=y(h);for(let s=0;s&lt;8;++s)for(let r=0;r&lt;8;++r)(a=new m(l[s][r],[[[g[0][s][r],g[1][s][r],g[2][s][r],g[3][s][r]],[g[0][s][r+1],g[1][s][r+1],g[2][s][r+1],g[3][s][r+1]]],[[g[0][s+1][r],g[1][s+1][r],g[2][s+1][r],g[3][s+1][r]],[g[0][s+1][r+1],g[1][s+1][r+1],g[2][s+1][r+1],g[3][s+1][r+1]]]])).paint(t,e)}}}transform(t){if(t instanceof x)for(let e=0,s=this.nodes.length;e&lt;s;++e)for(let s=0,r=this.nodes[0].length;s&lt;r;++s)this.nodes[e][s]=this.nodes[e][s].add(t);else if(t instanceof g)for(let e=0,s=this.nodes.length;e&lt;s;++e)for(let s=0,r=this.nodes[0].length;s&lt;r;++s)this.nodes[e][s]=this.nodes[e][s].transform(t)}scale(t){for(let e=0,s=this.nodes.length;e&lt;s;++e)for(let s=0,r=this.nodes[0].length;s&lt;r;++s)this.nodes[e][s]=this.nodes[e][s].scale(t)}}document.querySelectorAll(&quot;rect,circle,ellipse,path,text&quot;).forEach((r,n)=&gt;{let o=r.getAttribute(&quot;id&quot;);o||(o=&quot;patchjs_shape&quot;+n,r.setAttribute(&quot;id&quot;,o));const i=r.style.fill.match(/^url\(\s*&quot;?\s*#([^\s&quot;]+)&quot;?\s*\)/),a=r.style.stroke.match(/^url\(\s*&quot;?\s*#([^\s&quot;]+)&quot;?\s*\)/);if(i&amp;&amp;i[1]){const a=document.getElementById(i[1]);if(a&amp;&amp;&quot;meshgradient&quot;===a.nodeName){const i=r.getBBox();let l=document.createElementNS(s,&quot;canvas&quot;);d(l,{width:i.width,height:i.height});const c=l.getContext(&quot;2d&quot;);let u=c.createImageData(i.width,i.height);const f=new b(a);&quot;objectBoundingBox&quot;===a.getAttribute(&quot;gradientUnits&quot;)&amp;&amp;f.scale(new x(i.width,i.height));const p=a.getAttribute(&quot;gradientTransform&quot;);null!=p&amp;&amp;f.transform(h(p)),&quot;userSpaceOnUse&quot;===a.getAttribute(&quot;gradientUnits&quot;)&amp;&amp;f.transform(new x(-i.x,-i.y)),f.paintMesh(u.data,l.width),c.putImageData(u,0,0);const y=document.createElementNS(t,&quot;image&quot;);d(y,{width:i.width,height:i.height,x:i.x,y:i.y});let g=l.toDataURL();y.setAttributeNS(e,&quot;xlink:href&quot;,g),r.parentNode.insertBefore(y,r),r.style.fill=&quot;none&quot;;const w=document.createElementNS(t,&quot;use&quot;);w.setAttributeNS(e,&quot;xlink:href&quot;,&quot;#&quot;+o);const m=&quot;patchjs_clip&quot;+n,M=document.createElementNS(t,&quot;clipPath&quot;);M.setAttribute(&quot;id&quot;,m),M.appendChild(w),r.parentElement.insertBefore(M,r),y.setAttribute(&quot;clip-path&quot;,&quot;url(#&quot;+m+&quot;)&quot;),u=null,l=null,g=null}}if(a&amp;&amp;a[1]){const o=document.getElementById(a[1]);if(o&amp;&amp;&quot;meshgradient&quot;===o.nodeName){const i=parseFloat(r.style.strokeWidth.slice(0,-2))*(parseFloat(r.style.strokeMiterlimit)||parseFloat(r.getAttribute(&quot;stroke-miterlimit&quot;))||1),a=r.getBBox(),l=Math.trunc(a.width+i),c=Math.trunc(a.height+i),u=Math.trunc(a.x-i/2),f=Math.trunc(a.y-i/2);let p=document.createElementNS(s,&quot;canvas&quot;);d(p,{width:l,height:c});const y=p.getContext(&quot;2d&quot;);let g=y.createImageData(l,c);const w=new b(o);&quot;objectBoundingBox&quot;===o.getAttribute(&quot;gradientUnits&quot;)&amp;&amp;w.scale(new x(l,c));const m=o.getAttribute(&quot;gradientTransform&quot;);null!=m&amp;&amp;w.transform(h(m)),&quot;userSpaceOnUse&quot;===o.getAttribute(&quot;gradientUnits&quot;)&amp;&amp;w.transform(new x(-u,-f)),w.paintMesh(g.data,p.width),y.putImageData(g,0,0);const M=document.createElementNS(t,&quot;image&quot;);d(M,{width:l,height:c,x:0,y:0});let S=p.toDataURL();M.setAttributeNS(e,&quot;xlink:href&quot;,S);const k=&quot;pattern_clip&quot;+n,A=document.createElementNS(t,&quot;pattern&quot;);d(A,{id:k,patternUnits:&quot;userSpaceOnUse&quot;,width:l,height:c,x:u,y:f}),A.appendChild(M),o.parentNode.appendChild(A),r.style.stroke=&quot;url(#&quot;+k+&quot;)&quot;,g=null,p=null,S=null}}})}();
</script></svg>
