<?xml version="1.0" encoding="UTF-8" standalone="no"?>
<!-- Created with Inkscape (http://www.inkscape.org/) -->

<svg
   width="210mm"
   height="297mm"
   viewBox="0 0 210 297"
   version="1.1"
   id="svg1"
   inkscape:version="1.4.1 (93de688d07, 2025-03-30)"
   sodipodi:docname="mimick_logo.svg"
   xmlns:inkscape="http://www.inkscape.org/namespaces/inkscape"
   xmlns:sodipodi="http://sodipodi.sourceforge.net/DTD/sodipodi-0.dtd"
   xmlns="http://www.w3.org/2000/svg"
   xmlns:svg="http://www.w3.org/2000/svg">
  <sodipodi:namedview
     id="namedview1"
     pagecolor="#ffffff"
     bordercolor="#000000"
     borderopacity="0.25"
     inkscape:showpageshadow="2"
     inkscape:pageopacity="0.0"
     inkscape:pagecheckerboard="0"
     inkscape:deskcolor="#d1d1d1"
     inkscape:document-units="mm"
     inkscape:zoom="0.91843528"
     inkscape:cx="405.03671"
     inkscape:cy="290.16742"
     inkscape:window-width="1600"
     inkscape:window-height="840"
     inkscape:window-x="0"
     inkscape:window-y="0"
     inkscape:window-maximized="1"
     inkscape:current-layer="layer1" />
  <defs
     id="defs1">
    <rect
       x="83.149606"
       y="249.44882"
       width="622.08224"
       height="301.80227"
       id="rect1" />
  </defs>
  <g
     inkscape:label="Layer 1"
     inkscape:groupmode="layer"
     id="layer1">
    <text
       xml:space="preserve"
       transform="matrix(1.1479029,0,0,1.1479029,-356.49995,-190.39898)"
       id="text1"
       style="font-style:normal;font-variant:normal;font-weight:normal;font-stretch:normal;font-size:24.775px;font-family:Metamorphous;-inkscape-font-specification:'Metamorphous, Normal';font-variant-ligatures:normal;font-variant-caps:normal;font-variant-numeric:normal;font-variant-east-asian:normal;text-align:center;writing-mode:lr-tb;direction:ltr;white-space:pre;shape-inside:url(#rect1);display:inline;fill:#6b6b6b;stroke:none;stroke-width:1.39843;stroke-linecap:round;stroke-linejoin:round;paint-order:stroke markers fill"><tspan
         x="338.49605"
         y="271.63059"
         id="tspan1">MIMICK</tspan></text>
    <path
       style="fill:#6b6b6b;fill-opacity:1;stroke:#6b6b6b;stroke-width:0.201848;stroke-linecap:round;stroke-linejoin:round;stroke-opacity:1;paint-order:stroke markers fill"
       d="m 165.64082,9.407895 14.53242,-11.00684 c 0,0 -6.71779,-13.75873 -16.1862,-6.823927 -9.46841,6.934807 1.65378,17.830767 1.65378,17.830767 z"
       id="path1"
       sodipodi:nodetypes="cczc" />
    <path
       style="fill:#6b6b6b;fill-opacity:1;stroke:#6b6b6b;stroke-width:0.201848;stroke-linecap:round;stroke-linejoin:round;stroke-opacity:1;paint-order:stroke markers fill"
       d="m 165.64913,9.609793 -6.17516,6.59747 13.25231,12.40401 6.17516,-6.59747 z"
       id="path2"
       sodipodi:nodetypes="ccccc" />
    <path
       style="fill:none;fill-opacity:1;stroke:#a40000;stroke-width:0.370001;stroke-linecap:round;stroke-linejoin:round;stroke-opacity:1;paint-order:stroke markers fill"
       d="m 166.63461,8.816427 c 0.99289,0.142726 1.43225,0.790479 1.97914,1.203908 -0.0834,-0.707902 -0.38648,-1.523835 -0.63786,-2.231738 z"
       id="path3"
       sodipodi:nodetypes="cccc" />
    <path
       style="fill:none;fill-opacity:1;stroke:#a40000;stroke-width:0.370001;stroke-linecap:round;stroke-linejoin:round;stroke-opacity:1;paint-order:stroke markers fill"
       d="m 168.29413,7.566817 c 0.99289,0.142726 1.43225,0.790479 1.97914,1.203908 -0.0834,-0.707902 -0.38648,-1.523835 -0.63786,-2.231738 z"
       id="path3-6"
       sodipodi:nodetypes="cccc" />
    <path
       style="fill:none;fill-opacity:1;stroke:#a40000;stroke-width:0.370001;stroke-linecap:round;stroke-linejoin:round;stroke-opacity:1;paint-order:stroke markers fill"
       d="m 169.93973,6.323067 c 0.99289,0.142726 1.43225,0.790479 1.97914,1.203908 -0.0834,-0.707902 -0.38648,-1.523835 -0.63786,-2.231738 z"
       id="path3-8"
       sodipodi:nodetypes="cccc" />
    <path
       style="fill:none;fill-opacity:1;stroke:#a40000;stroke-width:0.370001;stroke-linecap:round;stroke-linejoin:round;stroke-opacity:1;paint-order:stroke markers fill"
       d="m 171.56265,5.056631 c 0.99289,0.142726 1.43225,0.790479 1.97914,1.203908 -0.0834,-0.707902 -0.38648,-1.523835 -0.63786,-2.231738 z"
       id="path3-4"
       sodipodi:nodetypes="cccc" />
    <path
       style="fill:none;fill-opacity:1;stroke:#a40000;stroke-width:0.370001;stroke-linecap:round;stroke-linejoin:round;stroke-opacity:1;paint-order:stroke markers fill"
       d="m 173.15733,3.822835 c 0.99289,0.142726 1.43225,0.790479 1.97914,1.203908 -0.0834,-0.707902 -0.38648,-1.523835 -0.63786,-2.231738 z"
       id="path3-9"
       sodipodi:nodetypes="cccc" />
    <path
       style="fill:none;fill-opacity:1;stroke:#a40000;stroke-width:0.370001;stroke-linecap:round;stroke-linejoin:round;stroke-opacity:1;paint-order:stroke markers fill"
       d="m 174.8439,2.60177 c 0.99289,0.142726 1.43225,0.790479 1.97914,1.203908 -0.0834,-0.707902 -0.38648,-1.523835 -0.63786,-2.231738 z"
       id="path3-5"
       sodipodi:nodetypes="cccc" />
    <path
       style="fill:none;fill-opacity:1;stroke:#a40000;stroke-width:0.370001;stroke-linecap:round;stroke-linejoin:round;stroke-opacity:1;paint-order:stroke markers fill"
       d="m 176.51496,1.294363 c 0.99289,0.142726 1.43225,0.790479 1.97914,1.203908 -0.0834,-0.707902 -0.38648,-1.52383502 -0.63786,-2.23173802 z"
       id="path3-2"
       sodipodi:nodetypes="cccc" />
    <path
       style="fill:none;fill-opacity:1;stroke:#a40000;stroke-width:0.370001;stroke-linecap:round;stroke-linejoin:round;stroke-opacity:1;paint-order:stroke markers fill"
       d="m 178.75131,-0.22623902 c 0.99289,0.142726 1.43225,0.790479 1.97914,1.203908 -0.0834,-0.707902 -0.38648,-1.523835 -0.63786,-2.23173798 z"
       id="path3-2-5"
       sodipodi:nodetypes="cccc" />
    <path
       style="fill:none;fill-opacity:1;stroke:#a40000;stroke-width:0.370001;stroke-linecap:round;stroke-linejoin:round;stroke-opacity:1;paint-order:stroke markers fill"
       d="m 179.19117,21.970913 c -0.0307,-1.002623 0.53146,-1.547175 0.84431,-2.157206 -0.68289,0.204312 -1.43427,0.64365 -2.08817,1.013421 z"
       id="path3-89"
       sodipodi:nodetypes="cccc" />
    <path
       style="fill:none;fill-opacity:1;stroke:#a40000;stroke-width:0.370001;stroke-linecap:round;stroke-linejoin:round;stroke-opacity:1;paint-order:stroke markers fill"
       d="m 177.67393,20.551935 c -0.0307,-1.002624 0.53146,-1.547175 0.84431,-2.157205 -0.68289,0.20431 -1.43428,0.643648 -2.08818,1.013419 z"
       id="path3-6-3"
       sodipodi:nodetypes="cccc" />
    <path
       style="fill:none;fill-opacity:1;stroke:#a40000;stroke-width:0.370001;stroke-linecap:round;stroke-linejoin:round;stroke-opacity:1;paint-order:stroke markers fill"
       d="m 176.16487,19.145656 c -0.0307,-1.002623 0.53145,-1.547175 0.84431,-2.157204 -0.6829,0.204309 -1.43429,0.643647 -2.08818,1.013418 z"
       id="path3-8-6"
       sodipodi:nodetypes="cccc" />
    <path
       style="fill:none;fill-opacity:1;stroke:#a40000;stroke-width:0.370001;stroke-linecap:round;stroke-linejoin:round;stroke-opacity:1;paint-order:stroke markers fill"
       d="m 174.63736,17.765632 c -0.0307,-1.002623 0.53146,-1.547176 0.8443,-2.157206 -0.68288,0.204312 -1.43427,0.643649 -2.08818,1.01342 z"
       id="path3-4-8"
       sodipodi:nodetypes="cccc" />
    <path
       style="fill:none;fill-opacity:1;stroke:#a40000;stroke-width:0.370001;stroke-linecap:round;stroke-linejoin:round;stroke-opacity:1;paint-order:stroke markers fill"
       d="m 173.14689,16.407792 c -0.0307,-1.002624 0.53144,-1.547175 0.8443,-2.157206 -0.68289,0.204311 -1.43427,0.643649 -2.08818,1.01342 z"
       id="path3-9-0"
       sodipodi:nodetypes="cccc" />
    <path
       style="fill:none;fill-opacity:1;stroke:#a40000;stroke-width:0.370001;stroke-linecap:round;stroke-linejoin:round;stroke-opacity:1;paint-order:stroke markers fill"
       d="m 171.65308,14.957242 c -0.0307,-1.002623 0.53146,-1.547174 0.84431,-2.157205 -0.68288,0.204311 -1.43428,0.643649 -2.08818,1.013419 z"
       id="path3-5-2"
       sodipodi:nodetypes="cccc" />
    <path
       style="fill:none;fill-opacity:1;stroke:#a40000;stroke-width:0.370001;stroke-linecap:round;stroke-linejoin:round;stroke-opacity:1;paint-order:stroke markers fill"
       d="m 170.07693,13.53687 c -0.0307,-1.002621 0.53145,-1.547174 0.84431,-2.157204 -0.6829,0.204311 -1.43429,0.643648 -2.08819,1.013419 z"
       id="path3-2-1"
       sodipodi:nodetypes="cccc" />
    <path
       style="fill:none;fill-opacity:1;stroke:#a40000;stroke-width:0.370001;stroke-linecap:round;stroke-linejoin:round;stroke-opacity:1;paint-order:stroke markers fill"
       d="m 168.72238,12.125648 c -0.0307,-1.002623 0.53145,-1.547176 0.84431,-2.157206 -0.6829,0.204311 -1.43429,0.643649 -2.08819,1.01342 z"
       id="path3-2-5-0"
       sodipodi:nodetypes="cccc" />
    <path
       style="fill:none;fill-opacity:1;stroke:#a40000;stroke-width:0.660057;stroke-linecap:round;stroke-linejoin:round;stroke-opacity:1;paint-order:stroke markers fill"
       d="M 39.113016,99.840186 V 82.399829 c 21.971532,-8.889939 41.627663,-7.702176 59.787076,0 v 17.440357 z"
       id="path4"
       sodipodi:nodetypes="ccccc" />
    <path
       style="fill:none;fill-opacity:1;stroke:#a40000;stroke-width:0.660057;stroke-linecap:round;stroke-linejoin:round;stroke-opacity:1;paint-order:stroke markers fill"
       d="m 38.434225,122.30294 v 17.44035 h 59.787076 v -17.44035 z"
       id="path4-4"
       sodipodi:nodetypes="ccccc" />
    <path
       style="fill:#ea2a2a;fill-opacity:1;stroke:#a40000;stroke-width:0.370001;stroke-linecap:round;stroke-linejoin:round;stroke-opacity:1;paint-order:stroke markers fill"
       d="M 39.925926,99.755153 47.564815,115.2963 54.490741,99.755153 Z"
       id="path5"
       sodipodi:nodetypes="cccc" />
    <path
       style="fill:#ea2a2a;fill-opacity:1;stroke:#a40000;stroke-width:0.213555;stroke-linecap:round;stroke-linejoin:round;stroke-opacity:1;paint-order:stroke markers fill"
       d="m 56.260473,99.755153 4.40897,9.641047 3.997467,-9.641047 z"
       id="path5-6"
       sodipodi:nodetypes="cccc" />
    <path
       style="fill:#ea2a2a;fill-opacity:1;stroke:#a40000;stroke-width:0.177378;stroke-linecap:round;stroke-linejoin:round;stroke-opacity:1;paint-order:stroke markers fill"
       d="m 48.385364,122.00539 4.304743,-9.67723 1.473124,9.67723 z"
       id="path5-6-9"
       sodipodi:nodetypes="cccc" />
    <path
       style="fill:#ea2a2a;fill-opacity:1;stroke:#a40000;stroke-width:0.177378;stroke-linecap:round;stroke-linejoin:round;stroke-opacity:1;paint-order:stroke markers fill"
       d="m 62.573639,122.16937 1.198261,-4.07538 0.811087,4.07538 z"
       id="path5-6-9-04"
       sodipodi:nodetypes="cccc" />
    <path
       style="fill:#ea2a2a;fill-opacity:1;stroke:#a40000;stroke-width:0.177378;stroke-linecap:round;stroke-linejoin:round;stroke-opacity:1;paint-order:stroke markers fill"
       d="m 72.941001,122.29992 1.198261,-4.07538 0.811087,4.07538 z"
       id="path5-6-9-04-5"
       sodipodi:nodetypes="cccc" />
    <path
       style="fill:#ea2a2a;fill-opacity:1;stroke:#a40000;stroke-width:0.213555;stroke-linecap:round;stroke-linejoin:round;stroke-opacity:1;paint-order:stroke markers fill"
       d="m 39.478109,122.27538 2.284376,-9.64105 4.321558,9.64105 z"
       id="path5-6-1"
       sodipodi:nodetypes="cccc" />
    <path
       style="fill:#ea2a2a;fill-opacity:1;stroke:#a40000;stroke-width:0.177378;stroke-linecap:round;stroke-linejoin:round;stroke-opacity:1;paint-order:stroke markers fill"
       d="m 88.352925,122.00539 -4.304743,-9.67723 -1.473124,9.67723 z"
       id="path5-6-9-0"
       sodipodi:nodetypes="cccc" />
    <path
       style="fill:#ea2a2a;fill-opacity:1;stroke:#a40000;stroke-width:0.213555;stroke-linecap:round;stroke-linejoin:round;stroke-opacity:1;paint-order:stroke markers fill"
       d="m 97.116139,122.27538 -2.140335,-9.64105 -4.321558,9.64105 z"
       id="path5-6-1-5"
       sodipodi:nodetypes="cccc" />
    <path
       style="fill:#ea2a2a;fill-opacity:1;stroke:#a40000;stroke-width:0.213555;stroke-linecap:round;stroke-linejoin:round;stroke-opacity:1;paint-order:stroke markers fill"
       d="m 72.894037,99.755153 4.40897,9.353087 3.997467,-9.353087 z"
       id="path5-6-2"
       sodipodi:nodetypes="cccc" />
    <path
       style="fill:#ea2a2a;fill-opacity:1;stroke:#a40000;stroke-width:0.370001;stroke-linecap:round;stroke-linejoin:round;stroke-opacity:1;paint-order:stroke markers fill"
       d="m 82.856748,99.755153 7.638889,16.108787 6.925926,-16.108787 z"
       id="path5-8"
       sodipodi:nodetypes="cccc" />
  </g>
</svg>
