<?xml version="1.0" encoding="UTF-8" standalone="no"?>
<!-- Created with Inkscape (http://www.inkscape.org/) -->

<svg
   width="321.71301mm"
   height="68.005997mm"
   viewBox="0 0 321.71303 68.005997"
   version="1.1"
   id="svg1"
   inkscape:version="1.4.1 (93de688d07, 2025-03-30)"
   sodipodi:docname="mimick_logo.svg"
   xml:space="preserve"
   inkscape:export-filename="mimick_logo.png"
   inkscape:export-xdpi="96"
   inkscape:export-ydpi="96"
   xmlns:inkscape="http://www.inkscape.org/namespaces/inkscape"
   xmlns:sodipodi="http://sodipodi.sourceforge.net/DTD/sodipodi-0.dtd"
   xmlns:xlink="http://www.w3.org/1999/xlink"
   xmlns="http://www.w3.org/2000/svg"
   xmlns:svg="http://www.w3.org/2000/svg"><sodipodi:namedview
     id="namedview1"
     pagecolor="#ffffff"
     bordercolor="#000000"
     borderopacity="0.25"
     inkscape:showpageshadow="2"
     inkscape:pageopacity="0.0"
     inkscape:pagecheckerboard="0"
     inkscape:deskcolor="#d1d1d1"
     inkscape:document-units="mm"
     inkscape:zoom="2"
     inkscape:cx="1026.5"
     inkscape:cy="57.25"
     inkscape:window-width="1600"
     inkscape:window-height="840"
     inkscape:window-x="0"
     inkscape:window-y="0"
     inkscape:window-maximized="1"
     inkscape:current-layer="g13-1-5" /><defs
     id="defs1"><linearGradient
       id="linearGradient242"
       inkscape:collect="always"><stop
         style="stop-color:#0089ff;stop-opacity:1;"
         offset="0"
         id="stop242" /><stop
         style="stop-color:#0089ff;stop-opacity:0;"
         offset="1"
         id="stop243" /></linearGradient><linearGradient
       id="linearGradient237"
       inkscape:collect="always"><stop
         style="stop-color:#000000;stop-opacity:1;"
         offset="0"
         id="stop237" /><stop
         style="stop-color:#000000;stop-opacity:0;"
         offset="1"
         id="stop238" /></linearGradient><linearGradient
       id="linearGradient192"
       inkscape:collect="always"><stop
         style="stop-color:#ab132c;stop-opacity:1;"
         offset="0"
         id="stop191" /><stop
         style="stop-color:#62156f;stop-opacity:1;"
         offset="0.31586769"
         id="stop193" /><stop
         style="stop-color:#62156f;stop-opacity:1;"
         offset="0.46652317"
         id="stop194" /><stop
         style="stop-color:#ab132c;stop-opacity:1;"
         offset="0.99989998"
         id="stop192" /></linearGradient><linearGradient
       id="linearGradient188"
       inkscape:collect="always"><stop
         style="stop-color:#5e1573;stop-opacity:1;"
         offset="0"
         id="stop187" /><stop
         style="stop-color:#aa132c;stop-opacity:1;"
         offset="0.29255384"
         id="stop189" /><stop
         style="stop-color:#aa132c;stop-opacity:1;"
         offset="0.72622854"
         id="stop190" /><stop
         style="stop-color:#5e1573;stop-opacity:1;"
         offset="1"
         id="stop188" /></linearGradient><rect
       x="83.149605"
       y="249.44882"
       width="622.08221"
       height="301.80228"
       id="rect1" /><linearGradient
       id="linearGradient2800"><stop
         style="stop-color:#88a6c1;stop-opacity:1"
         offset="0"
         id="stop2796" /><stop
         style="stop-color:#b8e2c4;stop-opacity:1;"
         offset="1"
         id="stop2798" /></linearGradient><linearGradient
       id="linearGradient29924"><stop
         style="stop-color:#88c19c;stop-opacity:1"
         offset="0"
         id="stop29920" /><stop
         style="stop-color:#ceb8e2;stop-opacity:1;"
         offset="1"
         id="stop29922" /></linearGradient><linearGradient
       id="linearGradient25008"><stop
         style="stop-color:#88c19c;stop-opacity:1"
         offset="0"
         id="stop28056" /><stop
         style="stop-color:#e2bcb8;stop-opacity:1;"
         offset="1"
         id="stop28058" /></linearGradient><filter
       style="color-interpolation-filters:sRGB"
       inkscape:label="Drop Shadow"
       id="filter14936"
       x="-0.090197295"
       y="-0.056936212"
       width="1.199856"
       height="1.1207836"><feFlood
         flood-opacity="0.498039"
         flood-color="rgb(0,0,0)"
         result="flood"
         id="feFlood14926" /><feComposite
         in="flood"
         in2="SourceGraphic"
         operator="in"
         result="composite1"
         id="feComposite14928" /><feGaussianBlur
         in="composite1"
         stdDeviation="0.8"
         result="blur"
         id="feGaussianBlur14930" /><feOffset
         dx="1.8"
         dy="0.9"
         result="offset"
         id="feOffset14932" /><feComposite
         in="SourceGraphic"
         in2="offset"
         operator="over"
         result="composite2"
         id="feComposite14934" /></filter><filter
       style="color-interpolation-filters:sRGB"
       inkscape:label="Drop Shadow"
       id="filter17275"
       x="-0.30822697"
       y="-0.095508769"
       width="1.6905766"
       height="1.2025017"><feFlood
         flood-opacity="0.278431"
         flood-color="rgb(0,0,0)"
         result="flood"
         id="feFlood17265" /><feComposite
         in="flood"
         in2="SourceGraphic"
         operator="in"
         result="composite1"
         id="feComposite17267" /><feGaussianBlur
         in="composite1"
         stdDeviation="0.8"
         result="blur"
         id="feGaussianBlur17269" /><feOffset
         dx="1.8"
         dy="0.9"
         result="offset"
         id="feOffset17271" /><feComposite
         in="SourceGraphic"
         in2="offset"
         operator="over"
         result="composite2"
         id="feComposite17273" /></filter><filter
       style="color-interpolation-filters:sRGB"
       inkscape:label="Drop Shadow"
       id="filter17287"
       x="-0.39714545"
       y="-0.12618054"
       width="1.8897969"
       height="1.2675331"><feFlood
         flood-opacity="0.278431"
         flood-color="rgb(0,0,0)"
         result="flood"
         id="feFlood17277" /><feComposite
         in="flood"
         in2="SourceGraphic"
         operator="in"
         result="composite1"
         id="feComposite17279" /><feGaussianBlur
         in="composite1"
         stdDeviation="0.8"
         result="blur"
         id="feGaussianBlur17281" /><feOffset
         dx="1.8"
         dy="0.9"
         result="offset"
         id="feOffset17283" /><feComposite
         in="SourceGraphic"
         in2="offset"
         operator="over"
         result="composite2"
         id="feComposite17285" /></filter><filter
       style="color-interpolation-filters:sRGB"
       inkscape:label="Drop Shadow"
       id="filter17299"
       x="-0.45131415"
       y="-0.14985438"
       width="2.0111609"
       height="1.3177273"><feFlood
         flood-opacity="0.278431"
         flood-color="rgb(0,0,0)"
         result="flood"
         id="feFlood17289" /><feComposite
         in="flood"
         in2="SourceGraphic"
         operator="in"
         result="composite1"
         id="feComposite17291" /><feGaussianBlur
         in="composite1"
         stdDeviation="0.8"
         result="blur"
         id="feGaussianBlur17293" /><feOffset
         dx="1.8"
         dy="0.9"
         result="offset"
         id="feOffset17295" /><feComposite
         in="SourceGraphic"
         in2="offset"
         operator="over"
         result="composite2"
         id="feComposite17297" /></filter><filter
       style="color-interpolation-filters:sRGB"
       inkscape:label="Drop Shadow"
       id="filter17311"
       x="-0.58773506"
       y="-0.20372258"
       width="2.3168092"
       height="1.4319409"><feFlood
         flood-opacity="0.278431"
         flood-color="rgb(0,0,0)"
         result="flood"
         id="feFlood17301" /><feComposite
         in="flood"
         in2="SourceGraphic"
         operator="in"
         result="composite1"
         id="feComposite17303" /><feGaussianBlur
         in="composite1"
         stdDeviation="0.8"
         result="blur"
         id="feGaussianBlur17305" /><feOffset
         dx="1.8"
         dy="0.9"
         result="offset"
         id="feOffset17307" /><feComposite
         in="SourceGraphic"
         in2="offset"
         operator="over"
         result="composite2"
         id="feComposite17309" /></filter><linearGradient
       inkscape:collect="always"
       xlink:href="#linearGradient192"
       id="linearGradient190"
       gradientUnits="userSpaceOnUse"
       x1="291.96579"
       y1="13.874714"
       x2="294.44589"
       y2="2.2415998"
       spreadMethod="reflect" /><linearGradient
       inkscape:collect="always"
       xlink:href="#linearGradient188"
       id="linearGradient208"
       gradientUnits="userSpaceOnUse"
       x1="167.19781"
       y1="177.73463"
       x2="167.19781"
       y2="198.65385"
       spreadMethod="reflect" /><linearGradient
       inkscape:collect="always"
       xlink:href="#linearGradient188"
       id="linearGradient210"
       gradientUnits="userSpaceOnUse"
       x1="167.19781"
       y1="177.73463"
       x2="167.19781"
       y2="198.65385"
       spreadMethod="reflect" /><linearGradient
       inkscape:collect="always"
       xlink:href="#linearGradient192"
       id="linearGradient220"
       gradientUnits="userSpaceOnUse"
       x1="291.96579"
       y1="13.874714"
       x2="294.44589"
       y2="2.2415998"
       spreadMethod="reflect" /><linearGradient
       inkscape:collect="always"
       xlink:href="#linearGradient192"
       id="linearGradient221"
       gradientUnits="userSpaceOnUse"
       x1="291.96579"
       y1="13.874714"
       x2="294.44589"
       y2="2.2415998"
       spreadMethod="reflect" /><linearGradient
       inkscape:collect="always"
       xlink:href="#linearGradient192"
       id="linearGradient230"
       gradientUnits="userSpaceOnUse"
       x1="291.96579"
       y1="13.874714"
       x2="294.44589"
       y2="2.2415998"
       spreadMethod="reflect" /><linearGradient
       inkscape:collect="always"
       xlink:href="#linearGradient237"
       id="linearGradient239" /><linearGradient
       inkscape:collect="always"
       xlink:href="#linearGradient242"
       id="linearGradient243"
       x1="268.36813"
       y1="42.871761"
       x2="252.46622"
       y2="14.799556"
       gradientUnits="userSpaceOnUse" /><meshgradient
       inkscape:collect="always"
       id="meshgradient250"
       gradientUnits="userSpaceOnUse"
       x="223.80405"
       y="30.171183"><meshrow
         id="meshrow1729"><meshpatch
           id="meshpatch1729"><stop
             path="c 39.4811,2.26746e-06  70.7142,-47.0033  110.193,-47.0038"
             style="stop-color:#ad3283;stop-opacity:1"
             id="stop1729" /><stop
             path="c -1.77223,21.3376  -2.88381,43.5166  -2.88377,70.6525"
             style="stop-color:#380b90;stop-opacity:1"
             id="stop1730" /><stop
             path="c -105.153,26.1989  -115.077,34.6711  -157.64,22.9795"
             style="stop-color:#f4e527;stop-opacity:1"
             id="stop1731" /><stop
             path="c -0.00175345,-27.1327  50.3298,-19.4933  50.3308,-46.6282"
             style="stop-color:#d37e5c;stop-opacity:1"
             id="stop1732" /></meshpatch></meshrow></meshgradient></defs><g
     inkscape:label="Layer 1"
     inkscape:groupmode="layer"
     id="layer1"
     transform="translate(-34.211396,-56.852452)"><g
       id="g15-4-0"
       transform="matrix(1.3883608,-1.2914965,1.2914965,1.3883608,-202.94632,491.30094)"
       style="fill:url(#linearGradient208);fill-opacity:1" /><g
       id="g15-6-4-2"
       transform="matrix(0.91949157,-1.6583257,1.6583257,0.91949157,-49.813378,620.35293)"
       style="fill:url(#linearGradient210);fill-opacity:1" /><g
       id="g12-0-90"
       transform="matrix(2.452018,-0.30175477,0.30175477,2.452018,-442.14255,152.78477)"
       style="fill:url(#linearGradient190);fill-opacity:1"><g
         id="g11-6-8-2-3"
         transform="translate(48.903408,-13.210684)"
         style="fill:url(#linearGradient220);fill-opacity:1;stroke:none" /><g
         id="rect9-1-8-5-9-2"
         style="opacity:1;fill:url(#linearGradient221);fill-opacity:1" /><g
         id="g11-6-8-2-3-8"
         transform="matrix(0.80231789,0.59689698,0.59689698,-0.80231789,83.527123,-118.00522)"
         style="fill:url(#linearGradient230);fill-opacity:1;stroke:none" /></g><g
       id="g13-1-5"
       transform="matrix(2.1395294,1.2352579,-1.2352579,2.1395294,-329.02734,-306.87746)"
       style="fill:url(#linearGradient243);fill-opacity:1"><g
         id="g11-5-4-9-4"
         transform="matrix(1,0,0,-1,48.90701,37.973294)"
         style="fill:url(#linearGradient243);fill-opacity:1" /><path
         id="path239"
         style="fill:url(#meshgradient250);fill-opacity:1;stroke-width:0.379259;stroke-linecap:round;stroke-linejoin:round;paint-order:stroke markers fill"
         d="M 285.84343 5.4402154 C 285.40577 5.6920032 284.9582 5.9876384 284.5021 6.3315327 C 277.20451 11.833805 282.44711 18.557191 282.44711 18.557191 L 285.49764 16.257107 L 285.49407 16.230426 C 285.47603 16.068423 285.59091 15.896 285.74605 15.769508 C 285.9012 15.643043 286.11186 15.561113 286.30858 15.634813 L 286.31817 15.638455 L 286.67894 15.366399 L 286.67389 15.35555 C 286.62469 15.252415 286.64191 15.136122 286.69341 15.031255 C 286.74496 14.926388 286.83155 14.828335 286.93357 14.748165 C 287.03559 14.668 287.15253 14.604592 287.27335 14.576142 C 287.39417 14.547692 287.52165 14.554215 287.62689 14.619115 L 287.65072 14.633616 L 287.96076 14.400028 L 287.95096 14.378875 C 287.90206 14.271908 287.91122 14.147788 287.95692 14.033184 C 288.00265 13.918581 288.08419 13.808987 288.18741 13.718717 C 288.39385 13.53818 288.69845 13.432756 288.98044 13.564472 L 289.03384 13.590879 L 289.20536 13.461662 L 289.18948 13.414072 C 289.13963 13.271839 289.17039 13.117451 289.24409 12.976527 C 289.31776 12.835602 289.43452 12.704869 289.57029 12.601494 C 289.70606 12.498118 289.86079 12.422928 290.01371 12.396448 C 290.16664 12.369973 290.32284 12.395592 290.43931 12.501913 L 290.45687 12.518102 L 290.60175 12.408852 L 290.5878 12.380919 C 290.5186 12.239113 290.53012 12.07693 290.58972 11.925733 C 290.64936 11.774536 290.75706 11.6315 290.89265 11.517516 C 291.02824 11.403533 291.19251 11.319008 291.36531 11.289068 C 291.53812 11.259123 291.72008 11.286306 291.88287 11.39651 L 291.91584 11.418053 L 292.03408 11.328769 L 292.02337 11.304766 C 291.94187 11.129329 291.95424 10.940064 292.02544 10.769539 C 292.09662 10.599015 292.22427 10.444962 292.38081 10.326218 C 292.53735 10.207474 292.72225 10.123629 292.91009 10.099619 L 292.91027 10.099515 C 293.09811 10.075508 293.29104 10.113668 293.4493 10.238281 L 293.46481 10.250094 L 293.57895 10.16415 L 293.5683 10.144453 C 293.14151 9.3732147 294.35934 8.4202062 295.02145 9.0644331 L 295.0284 9.0710441 L 295.11554 9.0052748 L 295.11129 9.000001 C 294.99239 8.8520253 294.99607 8.6504414 295.07027 8.4570525 C 295.14449 8.2636635 295.2879 8.0687667 295.4648 7.9121386 C 295.64171 7.7555105 295.8525 7.6366276 296.06839 7.5996426 C 296.28428 7.5626577 296.50795 7.6149054 296.68178 7.7969208 L 296.69762 7.8126507 L 296.82161 7.7190861 C 296.82161 7.7190861 296.49045 7.2647583 295.87465 6.6825736 C 296.14492 6.1520431 295.88984 5.3176535 295.22806 4.6924928 C 294.58798 4.0878285 293.762 3.8659397 293.23833 4.1411236 C 293.20343 4.1594686 293.16982 4.1800115 293.13773 4.2028275 C 293.09303 4.2344065 293.05213 4.2700751 293.01499 4.3094369 C 292.91026 4.4202883 292.84005 4.555095 292.8025 4.7052908 C 292.73749 4.6802977 292.67174 4.6559402 292.60536 4.6324072 C 292.6831 4.3464624 292.40377 4.0130287 291.97677 3.8821026 C 291.69657 3.7961256 291.40726 3.8157763 291.2177 3.9336623 L 291.21809 3.93392 C 291.12479 3.991876 291.06093 4.0705013 291.03282 4.1618928 C 291.02382 4.1918414 291.01824 4.2229833 291.01694 4.2548723 C 290.91706 4.2425355 290.81609 4.2322104 290.71407 4.2239454 C 290.28493 4.1891775 289.83699 4.1914302 289.37155 4.2396785 C 288.28553 4.3522567 287.10415 4.7149093 285.84343 5.4402154 z M 289.37155 4.2396785 C 289.38736 4.1464289 289.45887 4.0606922 289.5699 4.0017365 C 289.6612 3.9533295 289.77348 3.9260155 289.88948 3.9239835 C 290.14665 3.9193835 290.36864 4.0384439 290.41498 4.2058185 C 290.51569 4.2094485 290.61532 4.2159084 290.71407 4.2239454 C 290.6806 3.9384089 290.31863 3.7221599 289.88644 3.7296177 C 289.70586 3.7328177 289.53104 3.7754211 289.38907 3.8508417 C 289.19327 3.9546807 289.07778 4.1111781 289.07508 4.2763097 C 289.17468 4.2619947 289.27352 4.2498215 289.37155 4.2396785 z M 207.74124 51.559042 L 213.8946 70.326592 C 214.02149 70.712993 213.97423 71.066162 213.75289 71.386373 C 213.60676 71.577644 213.20305 71.93369 212.54166 72.454497 L 213.11793 73.452627 L 219.25108 69.911648 L 218.67481 68.913518 C 217.74786 69.363174 217.07214 69.609102 216.64746 69.651182 C 216.42479 69.672846 216.24262 69.644324 216.10105 69.565714 C 215.95949 69.487096 215.84928 69.379791 215.77058 69.243496 C 215.68726 69.09918 215.61605 68.947838 215.55685 68.789633 L 211.36937 56.76005 L 225.63546 67.027513 L 226.44121 66.562313 L 224.5619 49.143341 L 232.31636 58.103194 L 232.66809 58.573515 C 232.78474 58.719961 232.8778 58.853424 232.9472 58.973692 C 233.20639 59.422656 233.234 59.812834 233.02994 60.144452 C 232.90571 60.355137 232.45806 60.774043 231.68691 61.400977 L 232.26318 62.399107 L 239.1059 58.448463 L 238.52963 57.450333 C 238.08033 57.634933 237.71364 57.777205 237.42928 57.877175 C 237.14496 57.977185 236.88331 58.005303 236.64426 57.961593 C 236.22141 57.895726 235.64068 57.445273 234.90208 56.610329 L 222.54527 43.011934 L 221.72738 43.484141 L 223.75912 61.889198 L 208.63123 51.04521 L 207.74124 51.559042 z M 244.68492 30.229603 L 250.83827 48.997153 C 250.96515 49.383561 250.9179 49.736722 250.69656 50.056934 C 250.55044 50.248199 250.14671 50.604251 249.48533 51.125057 L 250.06142 52.123292 L 256.19475 48.582208 L 255.61848 47.584078 C 254.69153 48.033734 254.0158 48.279662 253.59114 48.321742 C 253.36847 48.343411 253.18629 48.314894 253.04472 48.236274 C 252.90317 48.157652 252.79295 48.050352 252.71425 47.914057 C 252.63093 47.769741 252.55972 47.618403 252.50052 47.460194 L 248.31305 35.43061 L 262.57895 45.698178 L 263.3847 45.232978 L 261.50557 27.813902 L 269.26004 36.773754 L 269.61176 37.244075 C 269.72842 37.390513 269.82165 37.523879 269.89105 37.644147 C 270.15023 38.09311 270.17766 38.483396 269.97361 38.815012 C 269.84938 39.025692 269.40175 39.444597 268.63059 40.071538 L 269.20686 41.069668 L 276.04975 37.118919 L 275.47348 36.120789 C 275.02419 36.305387 274.65732 36.447766 274.37296 36.547736 C 274.08863 36.647746 273.82697 36.675873 273.58793 36.632153 C 273.16507 36.56629 272.58436 36.115834 271.84575 35.280889 L 259.48894 21.682494 L 258.67124 22.154597 L 260.70279 40.559758 L 245.5749 29.71577 L 244.68492 30.229603 z M 286.13839 6.3200956 L 286.13858 6.319991 C 288.63355 4.8625986 290.72903 5.0909635 292.23561 5.7620094 C 293.95745 6.5289515 294.92524 7.8628069 294.92524 7.8628069 L 294.99906 7.963897 L 283.18412 16.871848 L 283.10756 16.773546 C 283.10756 16.773546 282.09106 15.475874 281.82738 13.609502 C 281.56374 11.7431 282.0678 9.2969352 285.04548 7.0518093 L 285.04527 7.051447 C 285.41743 6.770847 285.78201 6.5282904 286.13839 6.3200956 z M 286.26705 6.5400028 C 285.92006 6.7435608 285.56416 6.9811492 285.19944 7.2561406 C 282.28166 9.456108 281.82721 11.780595 282.08037 13.572857 C 282.3176 15.252006 283.13448 16.362106 283.24339 16.507213 L 294.63128 7.9209352 C 294.52172 7.7763154 293.67896 6.6855287 292.12986 5.9955177 C 290.68309 5.3511117 288.69598 5.1150973 286.26705 6.5400028 z M 230.71958 38.757202 L 231.32367 39.803517 C 231.8038 39.579746 232.19653 39.417221 232.50152 39.315983 C 232.80188 39.206703 233.09912 39.184791 233.39337 39.250081 C 233.68762 39.315373 234.09847 39.804918 234.62615 40.718886 L 241.58323 52.768906 C 242.09703 53.658826 242.31417 54.303213 242.23437 54.702018 C 242.17925 54.958326 241.81482 55.345182 241.14077 55.862604 L 240.79055 56.144992 L 240.77336 56.170857 L 241.34272 57.157032 L 247.92096 53.359084 L 247.34469 52.360954 L 246.84611 52.552442 C 246.45294 52.704618 246.13423 52.819203 245.88996 52.896033 C 245.64911 52.960254 245.40562 52.945878 245.15949 52.852818 C 244.91332 52.759766 244.53104 52.264229 244.01262 51.366299 L 237.05554 39.316279 C 236.52325 38.394291 236.31245 37.751752 236.42337 37.388402 C 236.49362 37.176821 236.65345 36.97233 236.9029 36.774849 C 237.14771 36.569381 237.48072 36.312901 237.90191 36.00557 L 237.29782 34.959254 L 230.71958 38.757202 z M 267.66343 17.427657 L 268.26752 18.473973 C 268.74765 18.250201 269.14021 18.087784 269.4452 17.986543 C 269.74555 17.877273 270.0428 17.855351 270.33705 17.920641 C 270.6313 17.98593 271.04232 18.475373 271.57 19.389342 L 278.52709 31.439362 C 279.04089 32.329282 279.25802 32.973668 279.17822 33.372473 C 279.12309 33.628788 278.75848 34.015748 278.08444 34.533164 L 277.7344 34.815447 L 277.71721 34.841313 L 278.28658 35.827487 L 284.86482 32.029539 L 284.28855 31.031409 L 283.78978 31.223002 C 283.3966 31.375184 283.07789 31.489763 282.83363 31.566593 C 282.59277 31.630814 282.3493 31.616439 282.10316 31.523379 C 281.85699 31.430326 281.47471 30.934789 280.95629 30.036859 L 273.99921 17.986839 C 273.46693 17.064851 273.2563 16.422208 273.36722 16.058858 C 273.43748 15.847274 273.59732 15.642775 273.84675 15.445304 C 274.09157 15.23983 274.42456 14.983356 274.84576 14.676025 L 274.24167 13.62971 L 267.66343 17.427657 z M 295.64785 1.2708482 L 296.25194 2.3171638 C 296.73207 2.0933988 297.12454 1.9312574 297.42953 1.8300192 C 297.73791 1.7161102 298.0354 1.6938104 298.32164 1.7637272 C 298.61588 1.8290192 299.02684 2.3187451 299.55452 3.2327139 L 306.5115 15.282553 C 306.77997 15.747557 306.97021 16.123809 307.08288 16.411519 C 307.19091 16.691217 307.21753 16.959742 307.16238 17.216054 C 307.11528 17.467735 306.75455 17.851964 306.08052 18.369376 L 305.69472 18.672548 L 306.27099 19.670678 L 313.12585 15.713027 L 312.54957 14.714897 L 311.99069 14.941679 C 311.5494 15.12163 311.19469 15.256527 310.92637 15.347242 C 310.66146 15.425352 310.39382 15.424967 310.12363 15.345757 C 309.86148 15.261937 309.47126 14.770973 308.95284 13.873043 L 301.99586 1.823204 C 301.71814 1.3421702 301.52287 0.95806888 301.41021 0.67035421 C 301.29755 0.38263588 301.27389 0.12866866 301.3395 -0.090944355 C 301.4051 -0.31054464 301.56306 -0.51919177 301.81249 -0.71666281 C 302.06534 -0.9267647 302.41241 -1.1861267 302.85427 -1.494694 L 302.25018 -2.5410096 L 295.64785 1.2708482 z M 305.401 -4.3598984 L 306.00509 -3.3135828 C 307.19165 -3.9986442 307.89364 -4.1527743 308.11119 -3.7759591 C 308.32409 -3.407163 308.33517 -2.7400387 308.14426 -1.7746365 L 307.00451 7.6382001 L 325.76246 13.243803 L 326.18441 12.086233 L 309.4616 5.1452636 L 310.66423 -4.0473731 C 310.72704 -4.3829456 310.79804 -4.6858589 310.87724 -4.9560569 C 311.11138 -5.7540034 311.55986 -6.4030384 312.22248 -6.9031947 L 311.61839 -7.9495103 L 305.401 -4.3598984 z M 291.43111 4.1012503 C 291.55301 4.0251873 291.73935 4.0124625 291.91979 4.0678885 C 292.1878 4.1503112 292.36617 4.3572673 292.32593 4.53916 C 292.00014 4.4373062 291.65911 4.354497 291.30355 4.2961458 C 291.30456 4.2797275 291.30748 4.2635861 291.31247 4.2480042 C 291.33037 4.1892132 291.37126 4.1386006 291.43111 4.1012503 z M 293.64463 4.6603665 C 293.98124 4.483539 294.51197 4.6259489 294.92342 5.0145026 C 295.32403 5.3928318 295.49287 5.8907165 295.36641 6.2323311 C 294.83597 5.7921727 294.17025 5.3286465 293.38543 4.9556583 C 293.41143 4.8861572 293.44984 4.8230617 293.50102 4.768885 C 293.52492 4.743442 293.551 4.7201491 293.58 4.6998571 C 293.6006 4.6852001 293.62223 4.6721885 293.64463 4.6603665 z M 300.60698 0.82614969 C 300.64028 0.80610439 300.68453 0.79973712 300.73837 0.81526452 C 300.76227 0.82232852 300.78681 0.84104555 300.80951 0.85775685 C 300.83181 0.87471165 300.84718 0.87104977 300.86448 0.86008067 C 300.95848 0.80479047 301.05304 0.75121557 301.14743 0.69671683 C 301.16173 0.68847983 301.17604 0.6803895 301.19214 0.6750094 C 301.22804 0.6632865 301.26853 0.68519875 301.28943 0.72680335 C 301.31143 0.76979485 301.3062 0.81394891 301.274 0.83353166 C 301.2167 0.86764406 301.15841 0.89906401 301.10121 0.93208751 L 301.101 0.93172521 C 301.0484 0.96211561 300.99717 0.99304922 300.94363 1.0218581 C 300.92483 1.0316681 300.91522 1.0446975 300.91422 1.0721665 C 300.91022 1.2139125 300.79581 1.2797801 300.67257 1.2116847 C 300.64747 1.1973207 300.63268 1.202106 300.61498 1.2123303 L 300.06048 1.5324691 C 299.96158 1.5895751 299.862 1.6461629 299.76337 1.7052101 C 299.75027 1.7128001 299.74012 1.7327113 299.73872 1.7503603 C 299.72862 1.8994256 299.62213 1.9586986 299.48918 1.8896023 C 299.47588 1.8833323 299.45791 1.8827695 299.44761 1.8887236 C 299.33737 1.9500796 299.22853 2.0144859 299.11869 2.0778998 C 299.09069 2.0940908 299.0642 2.1140206 299.0341 2.1267416 C 299.0081 2.1371146 298.96461 2.1088832 298.94761 2.0769232 C 298.93121 2.0436302 298.93265 1.9863326 298.95565 1.972044 C 299.00635 1.93977 299.05895 1.9105348 299.11055 1.8797168 C 299.15725 1.8508008 299.20309 1.8199873 299.25015 1.7918683 C 299.28115 1.7729223 299.31374 1.7573799 299.34344 1.7363199 C 299.35384 1.7292999 299.36176 1.7095446 299.35996 1.6946566 C 299.35196 1.6100076 299.36881 1.5443192 299.42991 1.5079049 C 299.49401 1.4708939 299.56272 1.4793062 299.63426 1.5384662 C 299.65596 1.5567712 299.66982 1.5486111 299.68522 1.5397181 L 300.12287 1.2870376 C 300.25273 1.2120636 300.38154 1.1367994 300.51232 1.0633965 C 300.53352 1.0511725 300.54334 1.0375837 300.53814 1.0047757 C 300.52624 0.93143306 300.55138 0.85955998 300.60698 0.82614969 z M 300.71853 1.4653252 L 300.71871 1.4652207 C 300.76641 1.4371017 300.83328 1.4417418 300.90719 1.4858638 C 300.92139 1.4936038 300.94271 1.4951029 300.95411 1.4884829 C 301.05924 1.4300819 301.16243 1.3693653 301.2671 1.3101967 C 301.3128 1.2837807 301.35841 1.2980586 301.38684 1.3473356 C 301.41404 1.3943606 301.4025 1.4433266 301.3568 1.4697478 C 301.25673 1.5275188 301.15694 1.58603 301.05593 1.6422462 C 301.03183 1.6561502 301.02148 1.6723209 301.02328 1.7086809 C 301.03028 1.8470719 300.90931 1.9257431 300.79137 1.8575477 C 300.74867 1.8324257 300.72173 1.8352073 300.68856 1.8543473 C 300.39208 2.0278145 300.09512 2.1981788 299.79765 2.3699223 C 299.71645 2.4168033 299.63617 2.4648942 299.55439 2.5108486 C 299.50979 2.5366026 299.46154 2.5187652 299.43414 2.4698982 C 299.40424 2.4155972 299.41875 2.3705427 299.46765 2.3442793 C 299.61102 2.2649633 299.75304 2.1831246 299.89491 2.1012186 L 300.04346 2.0154579 L 300.04382 2.0152487 L 300.04418 2.0150395 L 300.04449 2.015583 L 300.0447 2.0159453 C 300.04483 2.0161431 300.04509 2.0166056 300.04523 2.016851 C 300.23974 1.9045525 300.43377 1.7923725 300.62782 1.6792819 C 300.63682 1.6738819 300.64445 1.6551679 300.64465 1.6410679 C 300.64165 1.5545529 300.67073 1.4934454 300.71853 1.4653252 z M 300.42187 2.3090262 C 300.47417 2.2793172 300.54672 2.2827779 300.61513 2.3358489 C 300.63743 2.3527889 300.65061 2.3462956 300.66601 2.3373866 L 301.09515 2.0896216 C 301.12205 2.0740986 301.14834 2.0585441 301.17624 2.0447391 C 301.21724 2.0233461 301.26526 2.0422809 301.29038 2.0884929 C 301.31518 2.1338739 301.3045 2.180085 301.2651 2.202841 L 301.01005 2.3500985 L 301.00952 2.3491928 C 300.92372 2.3987228 300.83861 2.4494888 300.7519 2.4974476 C 300.733 2.5083356 300.72372 2.5226389 300.72572 2.5499989 C 300.73572 2.6737649 300.61683 2.7761872 300.48785 2.6994112 C 300.45645 2.6806902 300.43419 2.6847919 300.40999 2.69968 C 300.35539 2.73465 300.29834 2.7646289 300.24228 2.7969939 C 300.19998 2.8214279 300.15297 2.8040312 300.12562 2.7551712 C 300.09722 2.7059812 300.10537 2.6577037 300.14827 2.6329216 C 300.20617 2.5984506 300.26413 2.5654697 300.32397 2.5343787 C 300.34387 2.5238977 300.353 2.5094809 300.3488 2.4811589 C 300.3371 2.4013829 300.36957 2.3387441 300.42187 2.3090262 z M 301.50045 3.7287041 C 301.54935 3.6992681 301.61709 3.7024924 301.68692 3.7488114 C 301.71662 3.7684844 301.73517 3.766319 301.75767 3.753374 C 301.84707 3.700733 301.93637 3.6494739 302.02618 3.5976244 L 302.22581 3.4823703 C 302.26761 3.4582393 302.31768 3.4748502 302.34338 3.5207642 C 302.37008 3.5670092 302.36221 3.620486 302.32141 3.6450344 C 302.24011 3.6942904 302.15775 3.7407329 302.07594 3.7879684 C 301.99704 3.8335234 301.91765 3.8803816 301.83827 3.9251857 C 301.81937 3.9360737 301.81077 3.9502654 301.81027 3.9770964 C 301.81005 4.1194691 301.69377 4.1903637 301.56831 4.1223498 C 301.53921 4.1063568 301.52009 4.1077132 301.49719 4.1209022 C 301.35646 4.2021522 301.21387 4.2820162 301.07263 4.3623941 C 301.05373 4.3732821 301.03626 4.3881226 301.01696 4.3981606 C 300.97706 4.4177116 300.92644 4.3956526 300.90109 4.3505746 C 300.87529 4.3058006 300.88609 4.254858 300.92619 4.2317388 C 301.08465 4.1402538 301.24228 4.0486805 301.40119 3.9579804 C 301.42069 3.9467274 301.43128 3.9349711 301.42848 3.9035821 C 301.42148 3.8200781 301.45165 3.758321 301.50055 3.7288853 L 301.50045 3.7287041 z M 302.41314 3.9101724 C 302.45914 3.8857764 302.51942 3.8862886 302.57697 3.9199246 C 302.60737 3.9381716 302.62681 3.9368034 302.65031 3.9222704 C 302.72491 3.8757464 302.80183 3.8325167 302.87904 3.7892441 C 302.92124 3.7658851 302.96257 3.7825309 302.99135 3.8335769 C 303.01805 3.8798219 303.01076 3.925182 302.97056 3.9494357 C 302.89496 3.9941347 302.81886 4.0393122 302.74177 4.0815283 C 302.72127 4.0933883 302.71377 4.1080432 302.71657 4.1378632 C 302.73117 4.3005413 302.5881 4.3842359 302.45622 4.2905927 C 302.42562 4.2694477 302.40688 4.2741774 302.38568 4.2863924 C 302.22022 4.3829494 302.05406 4.4785756 301.88874 4.5740253 C 301.59356 4.7444492 301.29901 4.9157109 301.00326 5.0864627 C 300.98786 5.0953727 300.97257 5.103044 300.95657 5.111007 C 300.91327 5.132542 300.8741 5.1168464 300.84472 5.0632734 C 300.81932 5.0192794 300.82878 4.9729794 300.86648 4.9511982 L 301.58709 4.5351538 L 301.5873 4.5355161 C 301.82071 4.4007608 302.05409 4.2657019 302.28793 4.1317288 C 302.31713 4.1148698 302.3334 4.0951963 302.3338 4.0496943 C 302.3358 3.9836503 302.36714 3.9345512 302.41314 3.9101724 z M 295.80922 7.8188378 C 295.71662 7.8680328 295.6267 7.9313535 295.54481 8.0038609 C 295.38103 8.1488757 295.24881 8.3304348 295.18371 8.5000051 C 295.11864 8.6695754 295.12097 8.8192066 295.20503 8.9239023 L 295.2122 8.9325619 L 296.60052 7.8858586 L 296.59383 7.8788574 C 296.44696 7.7250712 296.27505 7.6869485 296.08978 7.7186865 C 295.99715 7.7345554 295.90182 7.7696428 295.80922 7.8188378 z M 294.06879 9.0978112 C 293.71676 9.3022969 293.47358 9.7239699 293.67387 10.085918 L 293.67631 10.090551 L 294.70368 9.3160091 L 293.67652 10.090914 L 293.67809 10.093631 C 294.19878 10.643601 295.01017 11.287291 296.0993 11.994343 C 296.21297 11.791088 295.66896 10.196883 294.92996 9.1452698 L 294.93014 9.1451652 C 294.68226 8.9110154 294.34259 8.9387667 294.06879 9.0978112 z M 296.60063 7.8860398 L 295.21231 8.932743 L 295.21917 8.9408592 L 295.21927 8.9410403 C 295.85415 9.6311436 296.779 10.403774 297.9155 11.06918 C 298.02477 10.836125 297.53849 9.0232171 296.60063 7.8860398 z M 301.4723 5.1115386 C 301.5256 5.0806986 301.59882 5.0881677 301.66304 5.1369197 C 301.68624 5.1554197 301.70307 5.1507535 301.72197 5.1398485 L 302.5567 4.6579147 L 303.25394 4.2553619 C 303.26654 4.2480719 303.27967 4.2417837 303.29317 4.2375447 C 303.32847 4.2275277 303.36132 4.2458193 303.38402 4.2865393 C 303.40982 4.3313133 303.40932 4.3670739 303.38192 4.393779 C 303.37032 4.403942 303.35744 4.4115683 303.34364 4.4195053 L 302.58553 4.857199 C 302.32981 5.0048382 302.07498 5.1528139 301.81839 5.2989026 C 301.79209 5.3140616 301.78093 5.3329109 301.78073 5.3708859 C 301.78036 5.5023887 301.65539 5.5713453 301.54006 5.5050031 C 301.51156 5.4886461 301.49152 5.4883269 301.46872 5.5015069 C 301.36673 5.5626779 301.26322 5.6211182 301.16083 5.6802374 C 301.13113 5.6973794 301.09993 5.6945108 301.06663 5.6660238 C 301.03813 5.6417068 301.02293 5.6065182 301.03093 5.5769842 C 301.03793 5.5509572 301.05558 5.525969 301.07638 5.513061 C 301.17098 5.454981 301.2669 5.3994321 301.36407 5.3457584 C 301.38807 5.3319154 301.39955 5.3150494 301.39805 5.2795254 C 301.39405 5.1956264 301.4252 5.1387451 301.4723 5.1115386 z M 292.56562 10.349705 C 292.52754 10.372159 292.49046 10.397069 292.45508 10.423907 C 292.31356 10.531259 292.19778 10.670106 292.13678 10.816366 C 292.07568 10.962627 292.06698 11.112585 292.13268 11.253972 L 292.13289 11.254334 L 293.3643 10.325756 C 293.23614 10.22967 293.08382 10.200499 292.92588 10.220686 C 292.80413 10.236247 292.67985 10.282343 292.56562 10.349705 z M 291.14213 11.494481 C 291.11622 11.508422 291.09083 11.523716 291.06606 11.540094 C 291.03304 11.561932 291.00108 11.585798 290.97072 11.611322 C 290.84927 11.713418 290.75192 11.842247 290.70122 11.97077 C 290.65042 12.099294 290.64618 12.22361 290.69718 12.328153 L 290.70037 12.334522 L 291.81336 11.495332 C 291.67775 11.404038 291.53143 11.38282 291.38483 11.408224 C 291.30211 11.422556 291.21987 11.452659 291.14213 11.494481 z M 293.3648 10.326195 L 292.1331 11.254696 C 292.87371 11.954775 293.70855 12.408414 294.58878 12.902188 C 294.70899 12.24006 294.14656 11.123021 293.37836 10.33672 L 293.37776 10.3361 L 293.37511 10.334011 C 293.37173 10.331349 293.36821 10.328762 293.3648 10.326195 z M 302.87726 4.9805395 C 302.92826 4.9497195 303.00008 4.9537207 303.07271 5.0048877 C 303.09381 5.0196407 303.10722 5.0209006 303.12452 5.0109616 C 303.23735 4.9447906 303.35038 4.8793558 303.46365 4.8139565 C 303.50885 4.7878365 303.54633 4.7992682 303.57846 4.8483932 C 303.61126 4.8980142 303.60642 4.9456003 303.56532 4.9682913 C 303.51572 4.9959253 303.46291 5.0202244 303.41416 5.0495234 C 303.35526 5.0835244 303.2988 5.1198553 303.24088 5.1556054 C 303.22188 5.1676294 303.20272 5.1788173 303.18452 5.1893513 L 303.18473 5.1897135 C 303.21183 5.3779697 303.05253 5.4496595 302.93072 5.3668031 C 302.91712 5.3577831 302.8933 5.3599124 302.8807 5.3671815 C 302.5845 5.5358999 302.28935 5.7073877 301.99417 5.8778075 L 301.54837 6.1351944 C 301.51687 6.1533684 301.47578 6.1425624 301.44928 6.1112474 C 301.42328 6.0805564 301.41437 6.0288596 301.43207 5.9977631 C 301.43807 5.9886131 301.44645 5.9805101 301.45555 5.9752681 C 301.81367 5.7685077 302.17258 5.5617796 302.5307 5.3550151 C 302.6176 5.3048251 302.70382 5.2549117 302.78926 5.2021119 C 302.79826 5.1967119 302.80726 5.1793044 302.80606 5.1651174 C 302.79606 5.0773264 302.82637 5.0115349 302.87737 4.9807207 L 302.87726 4.9805395 z M 289.73962 12.634157 C 289.70718 12.654039 289.67533 12.675758 289.64456 12.699183 C 289.52149 12.792885 289.415 12.91211 289.3517 13.03323 C 289.2884 13.15435 289.26916 13.273925 289.30466 13.375109 L 289.30784 13.384383 L 290.35825 12.592433 L 290.35736 12.591736 C 290.27266 12.514466 290.16251 12.493633 290.0352 12.515673 C 289.93971 12.532204 289.83695 12.57451 289.73962 12.634157 z M 291.81222 11.496713 L 290.70058 12.334884 C 291.32598 12.871869 292.01759 13.248587 292.74218 13.655056 C 292.84283 13.100637 292.42216 12.198629 291.81222 11.496713 z M 288.41369 13.708603 C 288.36159 13.736886 288.31248 13.771365 288.26771 13.810516 C 288.17764 13.889283 288.10739 13.985099 288.07029 14.078109 C 288.03343 14.170023 288.02908 14.257248 288.05938 14.325698 L 288.05956 14.325593 L 288.92384 13.673952 C 288.75291 13.595875 288.56998 13.623751 288.41369 13.708603 z M 288.05956 14.325593 C 288.47376 14.606866 288.91118 14.847478 289.3622 15.100476 C 289.42954 14.729452 289.24554 14.19092 288.92577 13.674773 C 288.92523 13.674524 288.92449 13.67438 288.92395 13.674133 L 288.05956 14.325593 z M 290.35845 12.592795 L 289.30794 13.384564 L 289.30873 13.386766 C 289.8758 13.842686 290.49438 14.181275 291.14035 14.543641 C 291.23101 14.044493 290.88748 13.255594 290.36559 12.599301 L 290.36538 12.598939 L 290.35845 12.592795 z M 302.68927 5.7518372 L 302.68938 5.7520184 C 302.75168 5.7160344 302.8208 5.7181513 302.89376 5.7784543 C 302.91736 5.7976243 302.93448 5.799612 302.95568 5.787389 C 303.04098 5.737094 303.12737 5.6884524 303.21362 5.6396776 C 303.26462 5.6102526 303.31478 5.5802389 303.36614 5.5516159 C 303.41194 5.5251939 303.45302 5.5417636 303.48669 5.5989216 C 303.51249 5.6436956 303.50361 5.6878468 303.46231 5.7127468 L 303.40815 5.7440181 L 303.40504 5.7390505 L 303.40447 5.7388974 C 303.34497 5.7732584 303.2849 5.8068976 303.22585 5.8420195 C 303.15645 5.8843565 303.08658 5.9260851 303.01871 5.971032 C 303.00971 5.977232 303.00336 5.993789 303.00206 6.007455 C 302.98756 6.1461067 302.89088 6.2008443 302.76353 6.1427561 C 302.74833 6.1356261 302.72625 6.1397071 302.71205 6.1468771 C 302.55489 6.2353231 302.39926 6.3262663 302.24308 6.4164316 C 302.20358 6.4392406 302.17071 6.4325344 302.13832 6.3964794 C 302.10622 6.3602464 302.09843 6.3100101 302.12263 6.2801863 C 302.13523 6.2648563 302.15144 6.2516954 302.16804 6.2421304 C 302.31061 6.1587894 302.45282 6.0766889 302.59628 5.9948883 C 302.61808 5.9822993 302.62605 5.9669011 302.62105 5.9344561 C 302.60875 5.8510361 302.62907 5.7865222 302.68927 5.7518372 z M 287.07792 14.794041 C 287.0538 14.809446 287.03028 14.826041 287.0078 14.843701 C 286.91791 14.914341 286.84385 15.000637 286.80285 15.084007 C 286.76446 15.16224 286.7553 15.232647 286.77837 15.291364 L 287.32447 14.879703 L 286.78341 15.287969 C 287.13773 15.518565 287.50853 15.723081 287.88966 15.936881 C 287.9477 15.617079 287.80945 15.166681 287.5571 14.719547 C 287.55329 14.717325 287.54957 14.715128 287.54566 14.713112 C 287.4774 14.677946 287.39414 14.673856 287.30281 14.695357 C 287.2285 14.712855 287.15029 14.747828 287.07792 14.794041 z M 285.91022 15.802012 C 285.87972 15.819875 285.85006 15.84049 285.82215 15.863245 C 285.71177 15.953216 285.63539 16.076727 285.61814 16.166282 L 286.19553 15.731002 C 286.10216 15.719538 286.0017 15.748424 285.91022 15.802012 z M 286.1961 15.731155 L 285.61791 16.167139 C 285.61537 16.180607 285.61423 16.193429 285.61447 16.205112 C 285.89056 16.375732 286.17602 16.533734 286.46844 16.697766 C 286.51471 16.442907 286.42789 16.099193 286.25518 15.744383 C 286.23594 15.737986 286.21616 15.733659 286.1961 15.731155 z M 282.59159 18.794048 C 283.43927 21.271289 284.13952 23.893269 284.17943 27.16348 L 298.98788 27.163313 C 298.8755 23.821627 299.3974 21.435824 300.57555 18.794452 L 300.31034 18.794439 C 300.24484 18.918757 300.1423 19.013957 300.02043 19.079204 L 300.01957 19.078975 C 299.82641 19.182255 299.58705 19.217891 299.35124 19.202776 C 299.11544 19.187656 298.88268 19.121722 298.70541 19.014567 C 298.60752 18.955377 298.5249 18.880944 298.47121 18.794248 L 298.22494 18.79441 C 297.92256 19.412479 296.82485 19.402115 296.54148 18.794434 L 296.25162 18.794402 C 296.1873 18.897901 296.09677 18.981212 295.99206 19.043046 L 295.99177 19.04297 C 295.82872 19.13927 295.63125 19.186652 295.43479 19.188951 C 295.23831 19.191251 295.04296 19.148062 294.88212 19.057095 C 294.77006 18.993726 294.67493 18.905516 294.61294 18.794174 L 294.31831 18.794241 C 294.24998 18.906961 294.1531 18.992478 294.04184 19.051678 L 294.04195 19.051859 C 293.88713 19.134259 293.7057 19.168281 293.5287 19.161479 C 293.35169 19.154679 293.17887 19.107699 293.039 19.024906 C 292.94033 18.966472 292.85717 18.889088 292.80541 18.794335 L 292.52079 18.794176 C 292.47117 18.884902 292.39014 18.956213 292.29524 19.006761 C 292.15824 19.079691 291.99015 19.115251 291.81951 19.11694 C 291.64888 19.11864 291.47642 19.087074 291.33178 19.021014 C 291.2177 18.968966 291.11953 18.89381 291.05962 18.794351 L 291.05952 18.79417 L 290.7171 18.794294 C 290.56208 19.014599 290.28926 19.097678 290.042 19.083343 C 289.9051 19.075443 289.77344 19.03885 289.66701 18.976433 C 289.58908 18.930708 289.52352 18.869064 289.48337 18.794313 C 289.48333 18.794252 289.48329 18.794193 289.48326 18.794132 L 289.00766 18.794096 C 288.957 18.87045 288.88034 18.928112 288.79447 18.967423 L 288.79408 18.967166 C 288.68127 19.018856 288.54997 19.040713 288.42023 19.040023 C 288.29048 19.039345 288.16197 19.014976 288.05692 18.963806 C 287.97683 18.924793 287.90841 18.868294 287.86962 18.794182 L 287.32833 18.794153 C 287.21 18.919552 287.02686 18.966125 286.85579 18.962149 C 286.67662 18.957941 286.50047 18.904866 286.4044 18.794038 L 282.59159 18.794048 z M 303.51943 7.3654181 C 303.56653 7.3360991 303.63062 7.334241 303.69561 7.374804 C 303.71961 7.389836 303.73621 7.3859288 303.75441 7.3753984 C 303.8741 7.3052714 303.99404 7.2370499 304.11417 7.1676899 C 304.16907 7.1359799 304.21353 7.1473003 304.2432 7.1987423 C 304.2759 7.2554673 304.26481 7.298367 304.20931 7.3303821 L 304.03406 7.4318028 L 304.03448 7.4325274 C 303.97148 7.4688764 303.90949 7.5070386 303.84512 7.5408863 C 303.82742 7.5500563 303.82131 7.5612893 303.82531 7.5839653 C 303.85431 7.7531934 303.69007 7.8390986 303.55848 7.738021 C 303.54598 7.728281 303.5216 7.7306245 303.5089 7.7379045 C 303.40607 7.7949825 303.30465 7.8546752 303.20171 7.9128439 C 303.15711 7.9386039 303.12289 7.927615 303.09029 7.881765 C 303.05409 7.831087 303.05845 7.7809154 303.10445 7.7523405 C 303.16345 7.7159575 303.22432 7.6819299 303.28381 7.6475805 C 303.33071 7.6205015 303.37784 7.5955108 303.42279 7.5649238 C 303.43549 7.5565638 303.44661 7.5362494 303.44571 7.5188474 C 303.44271 7.4512444 303.47223 7.3947421 303.51943 7.3654181 z M 304.3869 7.5459461 C 304.38959 7.5443272 304.39233 7.542808 304.39516 7.5414209 L 304.39505 7.5412397 C 304.43025 7.5239827 304.47672 7.5249779 304.53084 7.5459279 C 304.60084 7.5732059 304.64693 7.5610815 304.69497 7.5214575 C 304.73737 7.4865805 304.78823 7.4630348 304.83729 7.4383188 C 304.86799 7.4240538 304.91367 7.4519824 304.93527 7.4921334 C 304.95617 7.5307584 304.95287 7.5791946 304.92367 7.5971323 C 304.86287 7.6345353 304.8014 7.6706576 304.73762 7.7028561 C 304.71192 7.7166571 304.69414 7.7276453 304.69914 7.7704843 C 304.71024 7.8714839 304.66275 7.9499809 304.57787 7.9561932 C 304.53777 7.9594732 304.48872 7.9366857 304.44535 7.9170097 C 304.41945 7.9050697 304.40261 7.8967241 304.37861 7.9106131 C 303.95284 8.1587207 303.52554 8.4056053 303.09823 8.6510487 C 303.05753 8.6745197 303.01396 8.6590167 302.9871 8.6137677 C 302.957 8.5615467 302.96353 8.5157537 303.00653 8.4909617 C 303.22048 8.3674409 303.43517 8.2436769 303.65013 8.120586 C 303.86179 7.9983848 304.07345 7.8763359 304.28558 7.7549167 C 304.30838 7.7417417 304.31819 7.7244918 304.31929 7.6919798 C 304.3221 7.6203342 304.34653 7.5702291 304.3869 7.5459461 z M 283.8636 19.775251 L 299.30454 19.775355 C 298.41473 21.858023 298.01918 23.881202 297.90836 26.130634 L 285.25756 26.130897 C 285.20716 23.933998 284.65507 21.831988 283.8636 19.775251 z M 286.8449 18.054722 C 286.74286 18.291336 286.64197 18.522691 286.54814 18.754766 C 286.62257 18.802187 286.7385 18.838648 286.85857 18.841467 C 286.98836 18.844491 287.11715 18.81264 287.20644 18.741587 C 287.12452 18.443823 287.00235 18.198129 286.8449 18.054722 z M 303.61886 8.6721847 C 303.66626 8.6456097 303.72884 8.6469265 303.78891 8.6855935 C 303.81291 8.7006255 303.82825 8.7002965 303.84715 8.6894075 C 304.16306 8.5059902 304.47965 8.3242345 304.79601 8.1415844 C 304.96764 8.0424934 305.13948 7.9434416 305.31154 7.8451512 C 305.35964 7.8174062 305.41837 7.851842 305.43535 7.915689 C 305.44685 7.959718 305.43226 7.9871677 305.40326 8.0040187 L 305.05998 8.2022098 C 304.93011 8.2771898 304.80099 8.3519284 304.67158 8.4276624 L 304.67189 8.4282058 C 304.43276 8.5662701 304.19361 8.7041877 303.95402 8.8414619 C 303.93122 8.8546369 303.92079 8.871182 303.92299 8.905269 C 303.93299 9.0698451 303.79921 9.1426625 303.65751 9.0491222 C 303.63311 9.0333962 303.61819 9.0341767 303.59989 9.0447087 C 303.46589 9.1231017 303.33218 9.2017898 303.19718 9.2784236 C 303.15878 9.3005726 303.11079 9.283298 303.08516 9.240446 C 303.05666 9.191169 303.06454 9.1428936 303.10584 9.1181274 C 303.24098 9.0390774 303.37632 8.9609396 303.51234 8.8834357 C 303.53354 8.8712117 303.54216 8.8558421 303.54116 8.8250091 C 303.53916 8.7528481 303.57136 8.698745 303.61886 8.6721847 z M 284.23066 20.070063 C 285.00259 21.947926 285.45408 23.866081 285.49606 25.835723 L 297.67194 25.835759 C 297.76404 23.79769 298.17607 21.918001 298.93772 20.069984 L 284.23066 20.070063 z M 288.43562 17.796181 C 288.29015 18.133556 288.14668 18.461521 288.02059 18.79421 L 288.02012 18.794238 C 288.04401 18.816984 288.07442 18.837358 288.11084 18.855142 C 288.19434 18.895832 288.30585 18.918422 288.42018 18.919042 C 288.53452 18.919696 288.65161 18.897576 288.74415 18.855176 C 288.79804 18.830514 288.84312 18.799751 288.87713 18.762947 C 288.79414 18.341386 288.64336 17.985375 288.43562 17.796181 z M 304.86544 8.6488099 C 304.91314 8.6206889 304.98019 8.6252315 305.0541 8.6693485 C 305.0683 8.6770885 305.08988 8.6783784 305.10138 8.6717584 C 305.2065 8.6133574 305.30969 8.5526408 305.41436 8.4934723 C 305.46016 8.4670563 305.50586 8.4812315 305.53429 8.5305065 C 305.56149 8.5775315 305.54955 8.6260584 305.50375 8.6524799 C 305.40369 8.7102509 305.3042 8.7692705 305.2032 8.8255217 C 305.1791 8.8394257 305.16885 8.8557796 305.17065 8.8921376 C 305.17765 9.0305286 305.05657 9.1090187 304.93863 9.0408233 C 304.89593 9.0157013 304.86899 9.0184918 304.83583 9.0376228 C 304.53934 9.2110901 304.24152 9.3812287 303.94406 9.5529682 C 303.86286 9.5998492 303.78346 9.6482041 303.70166 9.6941242 C 303.65706 9.7198782 303.60881 9.7020417 303.58141 9.6531737 C 303.55151 9.5988727 303.56601 9.5538179 303.61491 9.5275548 C 303.75828 9.4482388 303.90011 9.3660379 304.04197 9.2841319 L 304.19051 9.1983711 L 304.19072 9.1987334 L 304.19108 9.1985242 L 304.19145 9.198315 L 304.19176 9.1988585 L 304.19197 9.1992208 L 304.19228 9.1997642 L 304.19249 9.2001265 C 304.387 9.0878281 304.58112 8.9758028 304.77519 8.8627386 C 304.78419 8.8573386 304.79171 8.8384435 304.79191 8.8243435 C 304.78891 8.7378365 304.81774 8.6769327 304.86544 8.6488099 z M 290.11347 17.566803 C 289.93694 17.976201 289.76311 18.372007 289.61704 18.777762 C 289.64498 18.812679 289.68291 18.844489 289.72912 18.871494 C 289.81542 18.922184 289.92958 18.954766 290.04904 18.961656 C 290.25874 18.973812 290.47691 18.907914 290.60501 18.739452 C 290.52662 18.228819 290.35705 17.788658 290.11347 17.566803 z M 304.56914 9.4923017 C 304.62144 9.4625927 304.69399 9.4660465 304.76239 9.5191245 C 304.78469 9.5360645 304.79798 9.5297513 304.81338 9.5208433 L 305.24252 9.2730783 C 305.26942 9.2575553 305.2956 9.2418196 305.3235 9.2280146 C 305.3645 9.2066216 305.41263 9.2257375 305.43775 9.2719495 C 305.46255 9.3173295 305.45177 9.3633604 305.41237 9.3861165 L 305.15731 9.533374 L 305.15679 9.5324683 C 305.07099 9.5819983 304.98588 9.6327644 304.89917 9.6807232 C 304.88027 9.6916112 304.87109 9.7060956 304.87309 9.7334556 C 304.88309 9.8572216 304.7641 9.9594522 304.63512 9.8826867 C 304.60372 9.8639657 304.58146 9.8680675 304.55726 9.8829556 C 304.50266 9.9179256 304.44592 9.9484468 304.38986 9.9808128 C 304.34756 10.005247 304.3003 9.9873077 304.27289 9.9384467 C 304.24449 9.8892567 304.25264 9.8409796 304.29554 9.8161971 C 304.35344 9.7817261 304.4114 9.7487453 304.47124 9.7176543 C 304.49114 9.7071733 304.50037 9.6929386 304.49617 9.6646156 C 304.48447 9.5848396 304.51684 9.5220109 304.56914 9.4923017 z M 291.8647 16.929866 C 291.60213 17.538783 291.34513 18.118737 291.1696 18.740519 C 291.21459 18.809869 291.28804 18.867388 291.38183 18.91024 C 291.50614 18.96699 291.6634 18.995877 291.81806 18.994357 C 291.97274 18.992757 292.12508 18.960287 292.23913 18.899547 C 292.32975 18.851291 292.39521 18.78819 292.42807 18.707621 C 292.40479 17.953076 292.2043 17.239172 291.8647 16.929866 z M 293.67696 16.663463 C 293.37862 17.355319 293.08711 18.01135 292.90794 18.728861 C 292.94642 18.804644 293.01249 18.869637 293.09959 18.92109 C 293.21848 18.99145 293.37436 19.033403 293.5329 19.039493 C 293.69144 19.045593 293.85258 19.015858 293.98432 18.945768 C 294.10683 18.880586 294.20437 18.783557 294.25836 18.644805 C 294.25936 17.813952 294.04905 17.002361 293.67696 16.663463 z M 295.60125 16.140122 C 295.23508 16.989282 294.87891 17.788853 294.69612 18.690595 C 294.74327 18.802058 294.82936 18.888408 294.9413 18.951677 C 295.07921 19.029727 295.2559 19.068344 295.43352 19.066263 C 295.61113 19.064263 295.78897 19.021118 295.92989 18.937883 C 296.07077 18.854633 296.17523 18.733712 296.21517 18.572709 L 296.2292 18.514608 L 296.23006 18.514837 C 296.27088 17.537631 296.03884 16.538759 295.60135 16.140303 L 295.60125 16.140122 z M 305.64727 10.912475 C 305.69617 10.883035 305.76436 10.885787 305.83419 10.932087 C 305.86389 10.951757 305.88226 10.949654 305.90476 10.936754 C 305.99416 10.884114 306.08374 10.83293 306.17355 10.781081 L 306.37318 10.665827 C 306.41498 10.641697 306.46505 10.658301 306.49075 10.704221 C 306.51745 10.750471 306.50948 10.803762 306.46868 10.82831 C 306.38738 10.87757 306.30483 10.924112 306.22302 10.971349 C 306.14412 11.016899 306.06491 11.063661 305.98553 11.108461 C 305.96663 11.119351 305.95814 11.133723 305.95764 11.160553 C 305.95742 11.302917 305.84102 11.373639 305.71557 11.305625 C 305.68647 11.289635 305.66717 11.291112 305.64427 11.304282 C 305.50354 11.385532 305.36114 11.465292 305.2199 11.54567 C 305.201 11.55656 305.18353 11.571406 305.16423 11.581436 C 305.12433 11.600986 305.07369 11.57894 305.04835 11.53385 C 305.02255 11.48908 305.03346 11.438132 305.07346 11.415014 C 305.23192 11.323534 305.38986 11.232493 305.54877 11.141799 C 305.56827 11.130549 305.57857 11.118715 305.57577 11.087325 C 305.56877 11.003825 305.59837 10.941924 305.64727 10.912475 z M 297.35301 15.944636 C 296.9674 17.026052 296.72432 17.936461 296.61801 18.653394 C 296.79095 19.27238 297.91016 19.301278 298.13976 18.683694 C 298.03952 17.447471 297.55387 16.03156 297.35301 15.944636 z M 306.56041 11.093448 C 306.60641 11.069048 306.66661 11.069796 306.72416 11.103486 C 306.75456 11.121736 306.77418 11.120257 306.79768 11.105727 C 306.87228 11.059197 306.94872 11.016001 307.02594 10.972729 C 307.06814 10.949369 307.1096 10.965887 307.13843 11.016957 C 307.16513 11.063207 307.15785 11.108566 307.11765 11.132816 C 307.04205 11.177516 306.96613 11.222585 306.88904 11.264804 C 306.86854 11.276664 306.86085 11.291423 306.86365 11.321243 C 306.87825 11.483921 306.73535 11.567502 306.60348 11.473868 C 306.57288 11.452718 306.55425 11.457639 306.53305 11.469849 C 306.36759 11.566409 306.20133 11.661851 306.03601 11.757301 C 305.74083 11.927725 305.44628 12.098986 305.15053 12.269738 C 305.13513 12.278638 305.11984 12.286313 305.10384 12.294283 C 305.06054 12.315823 305.02147 12.30033 304.99209 12.24673 C 304.96669 12.20274 304.97604 12.156258 305.01374 12.134474 L 305.73435 11.718429 L 305.73467 11.718973 C 305.96808 11.584218 306.20168 11.449534 306.43551 11.315548 C 306.46471 11.298688 306.48048 11.278574 306.48088 11.233074 C 306.48288 11.167034 306.51441 11.117827 306.56041 11.093448 z M 299.35824 15.576967 C 298.90548 16.682636 298.64417 17.752791 298.53574 18.639121 C 298.56183 18.742689 298.64446 18.835188 298.77004 18.911071 C 298.92549 19.005021 299.14146 19.067218 299.35978 19.081186 C 299.57809 19.095186 299.7992 19.060459 299.96497 18.971858 C 300.10384 18.897613 300.20515 18.790564 300.24707 18.633395 C 300.21504 17.226541 299.57266 15.688568 299.35824 15.576967 z M 305.61957 12.294814 L 305.61975 12.29471 C 305.67304 12.264001 305.74615 12.271491 305.8103 12.320195 C 305.8335 12.338695 305.85034 12.334064 305.86924 12.323124 L 306.70397 11.84119 L 307.40121 11.438637 C 307.41381 11.431337 307.42694 11.42504 307.44044 11.42082 C 307.47574 11.41081 307.50858 11.429065 307.53128 11.469815 C 307.55708 11.514585 307.55659 11.550353 307.52919 11.577055 C 307.51759 11.587215 307.50434 11.59504 307.49054 11.60299 L 306.73298 12.04037 L 306.73262 12.040579 C 306.4769 12.188218 306.22245 12.33602 305.96584 12.482074 C 305.93954 12.497234 305.92837 12.516077 305.92817 12.554057 C 305.92781 12.685569 305.80285 12.754523 305.68751 12.688174 C 305.65901 12.671814 305.63861 12.671677 305.61581 12.684887 C 305.51381 12.746067 305.4104 12.804684 305.30801 12.863799 C 305.27831 12.880959 305.24739 12.877866 305.21419 12.849376 C 305.18569 12.825056 305.17037 12.789685 305.17837 12.760155 C 305.18537 12.734125 305.20303 12.709142 305.22383 12.696232 C 305.31843 12.638152 305.41445 12.582784 305.51162 12.529111 C 305.53562 12.515271 305.54645 12.498721 305.54505 12.463191 C 305.54106 12.379398 305.57267 12.322071 305.61957 12.294814 z M 307.02484 12.164358 C 307.07584 12.133538 307.14745 12.137184 307.22008 12.188344 C 307.24118 12.203094 307.25449 12.204207 307.27179 12.194237 C 307.38462 12.128067 307.49785 12.062994 307.61113 11.997594 C 307.65633 11.971474 307.69317 11.983044 307.72529 12.032164 C 307.75819 12.081784 307.75314 12.129192 307.71204 12.151881 C 307.66244 12.179511 307.61018 12.203499 307.56143 12.232799 C 307.50253 12.266799 307.44606 12.303119 307.38815 12.338881 C 307.36905 12.350901 307.34999 12.362097 307.33179 12.372627 L 307.332 12.372989 C 307.3591 12.561245 307.20011 12.633478 307.0783 12.550622 C 307.0647 12.541622 307.04084 12.543075 307.02814 12.550352 C 306.73194 12.719071 306.43661 12.890664 306.14144 13.061083 L 305.69563 13.31847 C 305.66413 13.33665 305.62315 13.325933 305.59655 13.294523 C 305.57055 13.263833 305.56127 13.212156 305.57887 13.181067 C 305.58487 13.171967 305.59361 13.163582 305.60271 13.158362 C 305.96083 12.951601 306.31948 12.74526 306.6776 12.5385 C 306.7645 12.48831 306.85128 12.438543 306.93673 12.38575 C 306.94573 12.38035 306.95442 12.362402 306.95322 12.348212 C 306.94322 12.260412 306.97384 12.195172 307.02484 12.164358 z M 291.64704 21.414457 C 291.67254 21.400627 291.70169 21.392904 291.73289 21.392904 L 291.98526 21.392844 C 292.08496 21.392844 292.16514 21.473284 292.16514 21.573035 L 292.16536 21.664204 C 292.79285 21.81144 293.26178 22.377296 293.26178 23.048699 C 293.26178 23.831262 292.62456 24.470553 291.842 24.47055 C 291.05944 24.470546 290.4204 23.831249 290.4204 23.04869 C 290.4204 22.365127 290.90789 21.791091 291.55287 21.656735 L 291.5527 21.572778 C 291.5527 21.504198 291.59094 21.444876 291.64704 21.414457 z M 306.83665 12.935294 C 306.89895 12.899314 306.96808 12.90143 307.04103 12.96173 C 307.06463 12.98091 307.08149 12.983225 307.10269 12.971055 C 307.18809 12.920825 307.27465 12.871742 307.36099 12.823134 C 307.41199 12.793704 307.4622 12.763773 307.51351 12.735073 C 307.55931 12.708653 307.60064 12.725772 307.63437 12.782922 C 307.66017 12.827692 307.65108 12.87139 307.60968 12.896203 L 307.55534 12.927579 L 307.55251 12.922688 L 307.5514 12.922849 C 307.4919 12.957209 307.43243 12.990602 307.37333 13.025657 C 307.30403 13.068027 307.23415 13.109876 307.16629 13.154851 C 307.15729 13.160951 307.15094 13.177634 307.14964 13.191274 C 307.13514 13.329923 307.03828 13.38474 306.91093 13.32668 C 306.89573 13.31958 306.87383 13.323496 306.85963 13.330696 C 306.70245 13.419106 306.54654 13.510008 306.39037 13.600174 C 306.35087 13.622984 306.3181 13.616006 306.2857 13.579936 C 306.2537 13.543706 306.24572 13.493673 306.26982 13.463748 C 306.28242 13.448418 306.29827 13.435461 306.31487 13.425901 C 306.45749 13.342621 306.60023 13.260216 306.74365 13.178345 C 306.76545 13.165755 306.77298 13.150858 306.76798 13.118408 C 306.75568 13.034988 306.77705 12.97016 306.83675 12.935475 L 306.83665 12.935294 z M 291.33073 22.176026 C 291.03079 22.350556 290.83041 22.674933 290.83041 23.048914 C 290.83041 23.609691 291.28134 24.060357 291.84212 24.06036 C 292.4029 24.060362 292.85177 23.609255 292.85177 23.048475 C 292.85177 22.601007 292.56585 22.225236 292.16542 22.091439 L 292.16549 22.112895 C 292.16549 22.212645 292.08499 22.292769 291.9853 22.292769 L 291.73293 22.292829 C 291.63323 22.292829 291.55306 22.212389 291.55306 22.112638 L 291.55281 22.080416 C 291.47421 22.103516 291.39995 22.135756 291.33073 22.176026 z M 307.66634 14.548903 C 307.71334 14.519413 307.77789 14.5175 307.84288 14.55808 C 307.86688 14.57312 307.88333 14.569987 307.90163 14.559427 C 308.02135 14.489377 308.14126 14.421074 308.26139 14.351718 C 308.31629 14.320008 308.36072 14.330558 308.39047 14.382018 C 308.42327 14.438748 308.41218 14.481826 308.35668 14.513839 L 308.18133 14.615078 L 308.18195 14.616165 C 308.11895 14.652515 308.05695 14.690634 307.99239 14.724162 C 307.97479 14.733362 307.96813 14.744875 307.97203 14.767555 C 308.00113 14.936784 307.83733 15.022373 307.70574 14.921297 C 307.69324 14.911597 307.66886 14.913924 307.65616 14.92118 C 307.55331 14.97822 307.45207 15.038237 307.34908 15.096301 C 307.30448 15.122061 307.26957 15.111214 307.23702 15.065354 C 307.20082 15.014674 307.20572 14.964364 307.25182 14.935797 C 307.31082 14.899377 307.37103 14.865522 307.43053 14.83117 C 307.47743 14.80409 307.52515 14.778819 307.57006 14.748199 C 307.58286 14.739899 307.59387 14.719523 307.59297 14.702123 C 307.58897 14.634523 307.61924 14.578229 307.66634 14.548903 z M 308.54242 14.724696 C 308.57772 14.707576 308.62382 14.708328 308.67793 14.729308 C 308.74793 14.756588 308.79431 14.744544 308.84234 14.704914 C 308.88474 14.670054 308.93518 14.646512 308.98409 14.621622 C 309.01469 14.607212 309.06073 14.635078 309.08243 14.675228 C 309.10333 14.713858 309.10008 14.763038 309.07078 14.780979 C 309.00998 14.818419 308.94822 14.853991 308.88442 14.88616 C 308.85882 14.90001 308.8413 14.910749 308.8463 14.953579 C 308.8574 15.054579 308.8099 15.133064 308.72503 15.139288 C 308.68493 15.142588 308.63579 15.119784 308.59251 15.100104 C 308.56661 15.088154 308.54998 15.080039 308.52588 15.093889 C 308.10014 15.342031 307.67276 15.588816 307.2456 15.834505 C 307.2049 15.857975 307.16151 15.84234 307.13465 15.79712 C 307.10455 15.7449 307.1109 15.69921 307.1539 15.674418 C 307.3677 15.550982 307.58205 15.427194 307.79696 15.304356 L 307.79732 15.304147 C 308.00883 15.182031 308.22063 15.059949 308.4327 14.938764 C 308.4555 14.925584 308.46538 14.908242 308.46658 14.875722 C 308.46958 14.799292 308.49733 14.747244 308.54263 14.725059 L 308.54242 14.724696 z M 307.76613 15.85546 C 307.81363 15.82899 307.87611 15.830199 307.93618 15.868869 C 307.96018 15.883919 307.97562 15.883754 307.99452 15.872864 C 308.31046 15.689517 308.62702 15.507691 308.94338 15.325041 C 309.11501 15.225951 309.28676 15.126749 309.45891 15.028608 C 309.50701 15.000868 309.56584 15.035527 309.58282 15.099327 C 309.59432 15.143357 309.57973 15.170807 309.55073 15.187657 L 309.20746 15.385848 C 309.07759 15.460828 308.94836 15.53539 308.81905 15.6113 L 308.81926 15.611663 C 308.58013 15.749727 308.34096 15.887612 308.10128 16.024737 C 308.07848 16.037917 308.06816 16.054646 308.07036 16.088726 C 308.08036 16.253303 307.94647 16.325918 307.80478 16.232398 C 307.78038 16.216688 307.76565 16.217511 307.74745 16.228061 C 307.61341 16.306381 307.47968 16.385043 307.34484 16.461957 C 307.30644 16.484107 307.25845 16.466839 307.23282 16.423979 C 307.20432 16.374699 307.2122 16.326429 307.2535 16.301661 C 307.38868 16.222681 307.52383 16.144648 307.65981 16.067074 C 307.68101 16.054854 307.68927 16.039696 307.68827 16.008856 C 307.68627 15.936696 307.71883 15.882201 307.76623 15.855641 L 307.76613 15.85546 z " /><g
         id="rect10-5-4-4-5"
         style="opacity:1;fill:url(#linearGradient243);fill-opacity:1" /></g><g
       id="g202"
       transform="matrix(1.2035695,0,0,1,-29.679241,-0.19534435)"
       style="fill:url(#linearGradient239)" /></g><style
     type="text/css"
     id="style1617">
	.st0{fill-rule:evenodd;clip-rule:evenodd;fill:#3B454E;}
	.st1{fill-rule:evenodd;clip-rule:evenodd;fill:#539EA1;}
	.st2{fill-rule:evenodd;clip-rule:evenodd;fill:#3C9BD6;}
	.st3{fill-rule:evenodd;clip-rule:evenodd;fill:#E94E3E;}
</style><script
     id="mesh_polyfill"
     type="text/javascript">
!function(){const t=&quot;http://www.w3.org/2000/svg&quot;,e=&quot;http://www.w3.org/1999/xlink&quot;,s=&quot;http://www.w3.org/1999/xhtml&quot;,r=2;if(document.createElementNS(t,&quot;meshgradient&quot;).x)return;const n=(t,e,s,r)=&gt;{let n=new x(.5*(e.x+s.x),.5*(e.y+s.y)),o=new x(.5*(t.x+e.x),.5*(t.y+e.y)),i=new x(.5*(s.x+r.x),.5*(s.y+r.y)),a=new x(.5*(n.x+o.x),.5*(n.y+o.y)),h=new x(.5*(n.x+i.x),.5*(n.y+i.y)),l=new x(.5*(a.x+h.x),.5*(a.y+h.y));return[[t,o,a,l],[l,h,i,r]]},o=t=&gt;{let e=t[0].distSquared(t[1]),s=t[2].distSquared(t[3]),r=.25*t[0].distSquared(t[2]),n=.25*t[1].distSquared(t[3]),o=e&gt;s?e:s,i=r&gt;n?r:n;return 18*(o&gt;i?o:i)},i=(t,e)=&gt;Math.sqrt(t.distSquared(e)),a=(t,e)=&gt;t.scale(2/3).add(e.scale(1/3)),h=t=&gt;{let e,s,r,n,o,i,a,h=new g;return t.match(/(\w+\(\s*[^)]+\))+/g).forEach(t=&gt;{let l=t.match(/[\w.-]+/g),d=l.shift();switch(d){case&quot;translate&quot;:2===l.length?e=new g(1,0,0,1,l[0],l[1]):(console.error(&quot;mesh.js: translate does not have 2 arguments!&quot;),e=new g(1,0,0,1,0,0)),h=h.append(e);break;case&quot;scale&quot;:1===l.length?s=new g(l[0],0,0,l[0],0,0):2===l.length?s=new g(l[0],0,0,l[1],0,0):(console.error(&quot;mesh.js: scale does not have 1 or 2 arguments!&quot;),s=new g(1,0,0,1,0,0)),h=h.append(s);break;case&quot;rotate&quot;:if(3===l.length&amp;&amp;(e=new g(1,0,0,1,l[1],l[2]),h=h.append(e)),l[0]){r=l[0]*Math.PI/180;let t=Math.cos(r),e=Math.sin(r);Math.abs(t)&lt;1e-16&amp;&amp;(t=0),Math.abs(e)&lt;1e-16&amp;&amp;(e=0),a=new g(t,e,-e,t,0,0),h=h.append(a)}else console.error(&quot;math.js: No argument to rotate transform!&quot;);3===l.length&amp;&amp;(e=new g(1,0,0,1,-l[1],-l[2]),h=h.append(e));break;case&quot;skewX&quot;:l[0]?(r=l[0]*Math.PI/180,n=Math.tan(r),o=new g(1,0,n,1,0,0),h=h.append(o)):console.error(&quot;math.js: No argument to skewX transform!&quot;);break;case&quot;skewY&quot;:l[0]?(r=l[0]*Math.PI/180,n=Math.tan(r),i=new g(1,n,0,1,0,0),h=h.append(i)):console.error(&quot;math.js: No argument to skewY transform!&quot;);break;case&quot;matrix&quot;:6===l.length?h=h.append(new g(...l)):console.error(&quot;math.js: Incorrect number of arguments for matrix!&quot;);break;default:console.error(&quot;mesh.js: Unhandled transform type: &quot;+d)}}),h},l=t=&gt;{let e=[],s=t.split(/[ ,]+/);for(let t=0,r=s.length-1;t&lt;r;t+=2)e.push(new x(parseFloat(s[t]),parseFloat(s[t+1])));return e},d=(t,e)=&gt;{for(let s in e)t.setAttribute(s,e[s])},c=(t,e,s,r,n)=&gt;{let o,i,a=[0,0,0,0];for(let h=0;h&lt;3;++h)e[h]&lt;t[h]&amp;&amp;e[h]&lt;s[h]||t[h]&lt;e[h]&amp;&amp;s[h]&lt;e[h]?a[h]=0:(a[h]=.5*((e[h]-t[h])/r+(s[h]-e[h])/n),o=Math.abs(3*(e[h]-t[h])/r),i=Math.abs(3*(s[h]-e[h])/n),a[h]&gt;o?a[h]=o:a[h]&gt;i&amp;&amp;(a[h]=i));return a},u=[[1,0,0,0,0,0,0,0,0,0,0,0,0,0,0,0],[0,0,0,0,1,0,0,0,0,0,0,0,0,0,0,0],[-3,3,0,0,-2,-1,0,0,0,0,0,0,0,0,0,0],[2,-2,0,0,1,1,0,0,0,0,0,0,0,0,0,0],[0,0,0,0,0,0,0,0,1,0,0,0,0,0,0,0],[0,0,0,0,0,0,0,0,0,0,0,0,1,0,0,0],[0,0,0,0,0,0,0,0,-3,3,0,0,-2,-1,0,0],[0,0,0,0,0,0,0,0,2,-2,0,0,1,1,0,0],[-3,0,3,0,0,0,0,0,-2,0,-1,0,0,0,0,0],[0,0,0,0,-3,0,3,0,0,0,0,0,-2,0,-1,0],[9,-9,-9,9,6,3,-6,-3,6,-6,3,-3,4,2,2,1],[-6,6,6,-6,-3,-3,3,3,-4,4,-2,2,-2,-2,-1,-1],[2,0,-2,0,0,0,0,0,1,0,1,0,0,0,0,0],[0,0,0,0,2,0,-2,0,0,0,0,0,1,0,1,0],[-6,6,6,-6,-4,-2,4,2,-3,3,-3,3,-2,-1,-2,-1],[4,-4,-4,4,2,2,-2,-2,2,-2,2,-2,1,1,1,1]],f=t=&gt;{let e=[];for(let s=0;s&lt;16;++s){e[s]=0;for(let r=0;r&lt;16;++r)e[s]+=u[s][r]*t[r]}return e},p=(t,e,s)=&gt;{const r=e*e,n=s*s,o=e*e*e,i=s*s*s;return t[0]+t[1]*e+t[2]*r+t[3]*o+t[4]*s+t[5]*s*e+t[6]*s*r+t[7]*s*o+t[8]*n+t[9]*n*e+t[10]*n*r+t[11]*n*o+t[12]*i+t[13]*i*e+t[14]*i*r+t[15]*i*o},y=t=&gt;{let e=[],s=[],r=[];for(let s=0;s&lt;4;++s)e[s]=[],e[s][0]=n(t[0][s],t[1][s],t[2][s],t[3][s]),e[s][1]=[],e[s][1].push(...n(...e[s][0][0])),e[s][1].push(...n(...e[s][0][1])),e[s][2]=[],e[s][2].push(...n(...e[s][1][0])),e[s][2].push(...n(...e[s][1][1])),e[s][2].push(...n(...e[s][1][2])),e[s][2].push(...n(...e[s][1][3]));for(let t=0;t&lt;8;++t){s[t]=[];for(let r=0;r&lt;4;++r)s[t][r]=[],s[t][r][0]=n(e[0][2][t][r],e[1][2][t][r],e[2][2][t][r],e[3][2][t][r]),s[t][r][1]=[],s[t][r][1].push(...n(...s[t][r][0][0])),s[t][r][1].push(...n(...s[t][r][0][1])),s[t][r][2]=[],s[t][r][2].push(...n(...s[t][r][1][0])),s[t][r][2].push(...n(...s[t][r][1][1])),s[t][r][2].push(...n(...s[t][r][1][2])),s[t][r][2].push(...n(...s[t][r][1][3]))}for(let t=0;t&lt;8;++t){r[t]=[];for(let e=0;e&lt;8;++e)r[t][e]=[],r[t][e][0]=s[t][0][2][e],r[t][e][1]=s[t][1][2][e],r[t][e][2]=s[t][2][2][e],r[t][e][3]=s[t][3][2][e]}return r};class x{constructor(t,e){this.x=t||0,this.y=e||0}toString(){return`(x=${this.x}, y=${this.y})`}clone(){return new x(this.x,this.y)}add(t){return new x(this.x+t.x,this.y+t.y)}scale(t){return void 0===t.x?new x(this.x*t,this.y*t):new x(this.x*t.x,this.y*t.y)}distSquared(t){let e=this.x-t.x,s=this.y-t.y;return e*e+s*s}transform(t){let e=this.x*t.a+this.y*t.c+t.e,s=this.x*t.b+this.y*t.d+t.f;return new x(e,s)}}class g{constructor(t,e,s,r,n,o){void 0===t?(this.a=1,this.b=0,this.c=0,this.d=1,this.e=0,this.f=0):(this.a=t,this.b=e,this.c=s,this.d=r,this.e=n,this.f=o)}toString(){return`affine: ${this.a} ${this.c} ${this.e} \n       ${this.b} ${this.d} ${this.f}`}append(t){t instanceof g||console.error(&quot;mesh.js: argument to Affine.append is not affine!&quot;);let e=this.a*t.a+this.c*t.b,s=this.b*t.a+this.d*t.b,r=this.a*t.c+this.c*t.d,n=this.b*t.c+this.d*t.d,o=this.a*t.e+this.c*t.f+this.e,i=this.b*t.e+this.d*t.f+this.f;return new g(e,s,r,n,o,i)}}class w{constructor(t,e){this.nodes=t,this.colors=e}paintCurve(t,e){if(o(this.nodes)&gt;r){const s=n(...this.nodes);let r=[[],[]],o=[[],[]];for(let t=0;t&lt;4;++t)r[0][t]=this.colors[0][t],r[1][t]=(this.colors[0][t]+this.colors[1][t])/2,o[0][t]=r[1][t],o[1][t]=this.colors[1][t];let i=new w(s[0],r),a=new w(s[1],o);i.paintCurve(t,e),a.paintCurve(t,e)}else{let s=Math.round(this.nodes[0].x);if(s&gt;=0&amp;&amp;s&lt;e){let r=4*(~~this.nodes[0].y*e+s);t[r]=Math.round(this.colors[0][0]),t[r+1]=Math.round(this.colors[0][1]),t[r+2]=Math.round(this.colors[0][2]),t[r+3]=Math.round(this.colors[0][3])}}}}class m{constructor(t,e){this.nodes=t,this.colors=e}split(){let t=[[],[],[],[]],e=[[],[],[],[]],s=[[[],[]],[[],[]]],r=[[[],[]],[[],[]]];for(let s=0;s&lt;4;++s){const r=n(this.nodes[0][s],this.nodes[1][s],this.nodes[2][s],this.nodes[3][s]);t[0][s]=r[0][0],t[1][s]=r[0][1],t[2][s]=r[0][2],t[3][s]=r[0][3],e[0][s]=r[1][0],e[1][s]=r[1][1],e[2][s]=r[1][2],e[3][s]=r[1][3]}for(let t=0;t&lt;4;++t)s[0][0][t]=this.colors[0][0][t],s[0][1][t]=this.colors[0][1][t],s[1][0][t]=(this.colors[0][0][t]+this.colors[1][0][t])/2,s[1][1][t]=(this.colors[0][1][t]+this.colors[1][1][t])/2,r[0][0][t]=s[1][0][t],r[0][1][t]=s[1][1][t],r[1][0][t]=this.colors[1][0][t],r[1][1][t]=this.colors[1][1][t];return[new m(t,s),new m(e,r)]}paint(t,e){let s,n=!1;for(let t=0;t&lt;4;++t)if((s=o([this.nodes[0][t],this.nodes[1][t],this.nodes[2][t],this.nodes[3][t]]))&gt;r){n=!0;break}if(n){let s=this.split();s[0].paint(t,e),s[1].paint(t,e)}else{new w([...this.nodes[0]],[...this.colors[0]]).paintCurve(t,e)}}}class b{constructor(t){this.readMesh(t),this.type=t.getAttribute(&quot;type&quot;)||&quot;bilinear&quot;}readMesh(t){let e=[[]],s=[[]],r=Number(t.getAttribute(&quot;x&quot;)),n=Number(t.getAttribute(&quot;y&quot;));e[0][0]=new x(r,n);let o=t.children;for(let t=0,r=o.length;t&lt;r;++t){e[3*t+1]=[],e[3*t+2]=[],e[3*t+3]=[],s[t+1]=[];let r=o[t].children;for(let n=0,o=r.length;n&lt;o;++n){let o=r[n].children;for(let r=0,i=o.length;r&lt;i;++r){let i=r;0!==t&amp;&amp;++i;let h,d=o[r].getAttribute(&quot;path&quot;),c=&quot;l&quot;;null!=d&amp;&amp;(c=(h=d.match(/\s*([lLcC])\s*(.*)/))[1]);let u=l(h[2]);switch(c){case&quot;l&quot;:0===i?(e[3*t][3*n+3]=u[0].add(e[3*t][3*n]),e[3*t][3*n+1]=a(e[3*t][3*n],e[3*t][3*n+3]),e[3*t][3*n+2]=a(e[3*t][3*n+3],e[3*t][3*n])):1===i?(e[3*t+3][3*n+3]=u[0].add(e[3*t][3*n+3]),e[3*t+1][3*n+3]=a(e[3*t][3*n+3],e[3*t+3][3*n+3]),e[3*t+2][3*n+3]=a(e[3*t+3][3*n+3],e[3*t][3*n+3])):2===i?(0===n&amp;&amp;(e[3*t+3][3*n+0]=u[0].add(e[3*t+3][3*n+3])),e[3*t+3][3*n+1]=a(e[3*t+3][3*n],e[3*t+3][3*n+3]),e[3*t+3][3*n+2]=a(e[3*t+3][3*n+3],e[3*t+3][3*n])):(e[3*t+1][3*n]=a(e[3*t][3*n],e[3*t+3][3*n]),e[3*t+2][3*n]=a(e[3*t+3][3*n],e[3*t][3*n]));break;case&quot;L&quot;:0===i?(e[3*t][3*n+3]=u[0],e[3*t][3*n+1]=a(e[3*t][3*n],e[3*t][3*n+3]),e[3*t][3*n+2]=a(e[3*t][3*n+3],e[3*t][3*n])):1===i?(e[3*t+3][3*n+3]=u[0],e[3*t+1][3*n+3]=a(e[3*t][3*n+3],e[3*t+3][3*n+3]),e[3*t+2][3*n+3]=a(e[3*t+3][3*n+3],e[3*t][3*n+3])):2===i?(0===n&amp;&amp;(e[3*t+3][3*n+0]=u[0]),e[3*t+3][3*n+1]=a(e[3*t+3][3*n],e[3*t+3][3*n+3]),e[3*t+3][3*n+2]=a(e[3*t+3][3*n+3],e[3*t+3][3*n])):(e[3*t+1][3*n]=a(e[3*t][3*n],e[3*t+3][3*n]),e[3*t+2][3*n]=a(e[3*t+3][3*n],e[3*t][3*n]));break;case&quot;c&quot;:0===i?(e[3*t][3*n+1]=u[0].add(e[3*t][3*n]),e[3*t][3*n+2]=u[1].add(e[3*t][3*n]),e[3*t][3*n+3]=u[2].add(e[3*t][3*n])):1===i?(e[3*t+1][3*n+3]=u[0].add(e[3*t][3*n+3]),e[3*t+2][3*n+3]=u[1].add(e[3*t][3*n+3]),e[3*t+3][3*n+3]=u[2].add(e[3*t][3*n+3])):2===i?(e[3*t+3][3*n+2]=u[0].add(e[3*t+3][3*n+3]),e[3*t+3][3*n+1]=u[1].add(e[3*t+3][3*n+3]),0===n&amp;&amp;(e[3*t+3][3*n+0]=u[2].add(e[3*t+3][3*n+3]))):(e[3*t+2][3*n]=u[0].add(e[3*t+3][3*n]),e[3*t+1][3*n]=u[1].add(e[3*t+3][3*n]));break;case&quot;C&quot;:0===i?(e[3*t][3*n+1]=u[0],e[3*t][3*n+2]=u[1],e[3*t][3*n+3]=u[2]):1===i?(e[3*t+1][3*n+3]=u[0],e[3*t+2][3*n+3]=u[1],e[3*t+3][3*n+3]=u[2]):2===i?(e[3*t+3][3*n+2]=u[0],e[3*t+3][3*n+1]=u[1],0===n&amp;&amp;(e[3*t+3][3*n+0]=u[2])):(e[3*t+2][3*n]=u[0],e[3*t+1][3*n]=u[1]);break;default:console.error(&quot;mesh.js: &quot;+c+&quot; invalid path type.&quot;)}if(0===t&amp;&amp;0===n||r&gt;0){let e=window.getComputedStyle(o[r]).stopColor.match(/^rgb\s*\(\s*(\d+)\s*,\s*(\d+)\s*,\s*(\d+)\s*\)$/i),a=window.getComputedStyle(o[r]).stopOpacity,h=255;a&amp;&amp;(h=Math.floor(255*a)),e&amp;&amp;(0===i?(s[t][n]=[],s[t][n][0]=Math.floor(e[1]),s[t][n][1]=Math.floor(e[2]),s[t][n][2]=Math.floor(e[3]),s[t][n][3]=h):1===i?(s[t][n+1]=[],s[t][n+1][0]=Math.floor(e[1]),s[t][n+1][1]=Math.floor(e[2]),s[t][n+1][2]=Math.floor(e[3]),s[t][n+1][3]=h):2===i?(s[t+1][n+1]=[],s[t+1][n+1][0]=Math.floor(e[1]),s[t+1][n+1][1]=Math.floor(e[2]),s[t+1][n+1][2]=Math.floor(e[3]),s[t+1][n+1][3]=h):3===i&amp;&amp;(s[t+1][n]=[],s[t+1][n][0]=Math.floor(e[1]),s[t+1][n][1]=Math.floor(e[2]),s[t+1][n][2]=Math.floor(e[3]),s[t+1][n][3]=h))}}e[3*t+1][3*n+1]=new x,e[3*t+1][3*n+2]=new x,e[3*t+2][3*n+1]=new x,e[3*t+2][3*n+2]=new x,e[3*t+1][3*n+1].x=(-4*e[3*t][3*n].x+6*(e[3*t][3*n+1].x+e[3*t+1][3*n].x)+-2*(e[3*t][3*n+3].x+e[3*t+3][3*n].x)+3*(e[3*t+3][3*n+1].x+e[3*t+1][3*n+3].x)+-1*e[3*t+3][3*n+3].x)/9,e[3*t+1][3*n+2].x=(-4*e[3*t][3*n+3].x+6*(e[3*t][3*n+2].x+e[3*t+1][3*n+3].x)+-2*(e[3*t][3*n].x+e[3*t+3][3*n+3].x)+3*(e[3*t+3][3*n+2].x+e[3*t+1][3*n].x)+-1*e[3*t+3][3*n].x)/9,e[3*t+2][3*n+1].x=(-4*e[3*t+3][3*n].x+6*(e[3*t+3][3*n+1].x+e[3*t+2][3*n].x)+-2*(e[3*t+3][3*n+3].x+e[3*t][3*n].x)+3*(e[3*t][3*n+1].x+e[3*t+2][3*n+3].x)+-1*e[3*t][3*n+3].x)/9,e[3*t+2][3*n+2].x=(-4*e[3*t+3][3*n+3].x+6*(e[3*t+3][3*n+2].x+e[3*t+2][3*n+3].x)+-2*(e[3*t+3][3*n].x+e[3*t][3*n+3].x)+3*(e[3*t][3*n+2].x+e[3*t+2][3*n].x)+-1*e[3*t][3*n].x)/9,e[3*t+1][3*n+1].y=(-4*e[3*t][3*n].y+6*(e[3*t][3*n+1].y+e[3*t+1][3*n].y)+-2*(e[3*t][3*n+3].y+e[3*t+3][3*n].y)+3*(e[3*t+3][3*n+1].y+e[3*t+1][3*n+3].y)+-1*e[3*t+3][3*n+3].y)/9,e[3*t+1][3*n+2].y=(-4*e[3*t][3*n+3].y+6*(e[3*t][3*n+2].y+e[3*t+1][3*n+3].y)+-2*(e[3*t][3*n].y+e[3*t+3][3*n+3].y)+3*(e[3*t+3][3*n+2].y+e[3*t+1][3*n].y)+-1*e[3*t+3][3*n].y)/9,e[3*t+2][3*n+1].y=(-4*e[3*t+3][3*n].y+6*(e[3*t+3][3*n+1].y+e[3*t+2][3*n].y)+-2*(e[3*t+3][3*n+3].y+e[3*t][3*n].y)+3*(e[3*t][3*n+1].y+e[3*t+2][3*n+3].y)+-1*e[3*t][3*n+3].y)/9,e[3*t+2][3*n+2].y=(-4*e[3*t+3][3*n+3].y+6*(e[3*t+3][3*n+2].y+e[3*t+2][3*n+3].y)+-2*(e[3*t+3][3*n].y+e[3*t][3*n+3].y)+3*(e[3*t][3*n+2].y+e[3*t+2][3*n].y)+-1*e[3*t][3*n].y)/9}}this.nodes=e,this.colors=s}paintMesh(t,e){let s=(this.nodes.length-1)/3,r=(this.nodes[0].length-1)/3;if(&quot;bilinear&quot;===this.type||s&lt;2||r&lt;2){let n;for(let o=0;o&lt;s;++o)for(let s=0;s&lt;r;++s){let r=[];for(let t=3*o,e=3*o+4;t&lt;e;++t)r.push(this.nodes[t].slice(3*s,3*s+4));let i=[];i.push(this.colors[o].slice(s,s+2)),i.push(this.colors[o+1].slice(s,s+2)),(n=new m(r,i)).paint(t,e)}}else{let n,o,a,h,l,d,u;const x=s,g=r;s++,r++;let w=new Array(s);for(let t=0;t&lt;s;++t){w[t]=new Array(r);for(let e=0;e&lt;r;++e)w[t][e]=[],w[t][e][0]=this.nodes[3*t][3*e],w[t][e][1]=this.colors[t][e]}for(let t=0;t&lt;s;++t)for(let e=0;e&lt;r;++e)0!==t&amp;&amp;t!==x&amp;&amp;(n=i(w[t-1][e][0],w[t][e][0]),o=i(w[t+1][e][0],w[t][e][0]),w[t][e][2]=c(w[t-1][e][1],w[t][e][1],w[t+1][e][1],n,o)),0!==e&amp;&amp;e!==g&amp;&amp;(n=i(w[t][e-1][0],w[t][e][0]),o=i(w[t][e+1][0],w[t][e][0]),w[t][e][3]=c(w[t][e-1][1],w[t][e][1],w[t][e+1][1],n,o));for(let t=0;t&lt;r;++t){w[0][t][2]=[],w[x][t][2]=[];for(let e=0;e&lt;4;++e)n=i(w[1][t][0],w[0][t][0]),o=i(w[x][t][0],w[x-1][t][0]),w[0][t][2][e]=n&gt;0?2*(w[1][t][1][e]-w[0][t][1][e])/n-w[1][t][2][e]:0,w[x][t][2][e]=o&gt;0?2*(w[x][t][1][e]-w[x-1][t][1][e])/o-w[x-1][t][2][e]:0}for(let t=0;t&lt;s;++t){w[t][0][3]=[],w[t][g][3]=[];for(let e=0;e&lt;4;++e)n=i(w[t][1][0],w[t][0][0]),o=i(w[t][g][0],w[t][g-1][0]),w[t][0][3][e]=n&gt;0?2*(w[t][1][1][e]-w[t][0][1][e])/n-w[t][1][3][e]:0,w[t][g][3][e]=o&gt;0?2*(w[t][g][1][e]-w[t][g-1][1][e])/o-w[t][g-1][3][e]:0}for(let s=0;s&lt;x;++s)for(let r=0;r&lt;g;++r){let n=i(w[s][r][0],w[s+1][r][0]),o=i(w[s][r+1][0],w[s+1][r+1][0]),c=i(w[s][r][0],w[s][r+1][0]),x=i(w[s+1][r][0],w[s+1][r+1][0]),g=[[],[],[],[]];for(let t=0;t&lt;4;++t){(d=[])[0]=w[s][r][1][t],d[1]=w[s+1][r][1][t],d[2]=w[s][r+1][1][t],d[3]=w[s+1][r+1][1][t],d[4]=w[s][r][2][t]*n,d[5]=w[s+1][r][2][t]*n,d[6]=w[s][r+1][2][t]*o,d[7]=w[s+1][r+1][2][t]*o,d[8]=w[s][r][3][t]*c,d[9]=w[s+1][r][3][t]*x,d[10]=w[s][r+1][3][t]*c,d[11]=w[s+1][r+1][3][t]*x,d[12]=0,d[13]=0,d[14]=0,d[15]=0,u=f(d);for(let e=0;e&lt;9;++e){g[t][e]=[];for(let s=0;s&lt;9;++s)g[t][e][s]=p(u,e/8,s/8),g[t][e][s]&gt;255?g[t][e][s]=255:g[t][e][s]&lt;0&amp;&amp;(g[t][e][s]=0)}}h=[];for(let t=3*s,e=3*s+4;t&lt;e;++t)h.push(this.nodes[t].slice(3*r,3*r+4));l=y(h);for(let s=0;s&lt;8;++s)for(let r=0;r&lt;8;++r)(a=new m(l[s][r],[[[g[0][s][r],g[1][s][r],g[2][s][r],g[3][s][r]],[g[0][s][r+1],g[1][s][r+1],g[2][s][r+1],g[3][s][r+1]]],[[g[0][s+1][r],g[1][s+1][r],g[2][s+1][r],g[3][s+1][r]],[g[0][s+1][r+1],g[1][s+1][r+1],g[2][s+1][r+1],g[3][s+1][r+1]]]])).paint(t,e)}}}transform(t){if(t instanceof x)for(let e=0,s=this.nodes.length;e&lt;s;++e)for(let s=0,r=this.nodes[0].length;s&lt;r;++s)this.nodes[e][s]=this.nodes[e][s].add(t);else if(t instanceof g)for(let e=0,s=this.nodes.length;e&lt;s;++e)for(let s=0,r=this.nodes[0].length;s&lt;r;++s)this.nodes[e][s]=this.nodes[e][s].transform(t)}scale(t){for(let e=0,s=this.nodes.length;e&lt;s;++e)for(let s=0,r=this.nodes[0].length;s&lt;r;++s)this.nodes[e][s]=this.nodes[e][s].scale(t)}}document.querySelectorAll(&quot;rect,circle,ellipse,path,text&quot;).forEach((r,n)=&gt;{let o=r.getAttribute(&quot;id&quot;);o||(o=&quot;patchjs_shape&quot;+n,r.setAttribute(&quot;id&quot;,o));const i=r.style.fill.match(/^url\(\s*&quot;?\s*#([^\s&quot;]+)&quot;?\s*\)/),a=r.style.stroke.match(/^url\(\s*&quot;?\s*#([^\s&quot;]+)&quot;?\s*\)/);if(i&amp;&amp;i[1]){const a=document.getElementById(i[1]);if(a&amp;&amp;&quot;meshgradient&quot;===a.nodeName){const i=r.getBBox();let l=document.createElementNS(s,&quot;canvas&quot;);d(l,{width:i.width,height:i.height});const c=l.getContext(&quot;2d&quot;);let u=c.createImageData(i.width,i.height);const f=new b(a);&quot;objectBoundingBox&quot;===a.getAttribute(&quot;gradientUnits&quot;)&amp;&amp;f.scale(new x(i.width,i.height));const p=a.getAttribute(&quot;gradientTransform&quot;);null!=p&amp;&amp;f.transform(h(p)),&quot;userSpaceOnUse&quot;===a.getAttribute(&quot;gradientUnits&quot;)&amp;&amp;f.transform(new x(-i.x,-i.y)),f.paintMesh(u.data,l.width),c.putImageData(u,0,0);const y=document.createElementNS(t,&quot;image&quot;);d(y,{width:i.width,height:i.height,x:i.x,y:i.y});let g=l.toDataURL();y.setAttributeNS(e,&quot;xlink:href&quot;,g),r.parentNode.insertBefore(y,r),r.style.fill=&quot;none&quot;;const w=document.createElementNS(t,&quot;use&quot;);w.setAttributeNS(e,&quot;xlink:href&quot;,&quot;#&quot;+o);const m=&quot;patchjs_clip&quot;+n,M=document.createElementNS(t,&quot;clipPath&quot;);M.setAttribute(&quot;id&quot;,m),M.appendChild(w),r.parentElement.insertBefore(M,r),y.setAttribute(&quot;clip-path&quot;,&quot;url(#&quot;+m+&quot;)&quot;),u=null,l=null,g=null}}if(a&amp;&amp;a[1]){const o=document.getElementById(a[1]);if(o&amp;&amp;&quot;meshgradient&quot;===o.nodeName){const i=parseFloat(r.style.strokeWidth.slice(0,-2))*(parseFloat(r.style.strokeMiterlimit)||parseFloat(r.getAttribute(&quot;stroke-miterlimit&quot;))||1),a=r.getBBox(),l=Math.trunc(a.width+i),c=Math.trunc(a.height+i),u=Math.trunc(a.x-i/2),f=Math.trunc(a.y-i/2);let p=document.createElementNS(s,&quot;canvas&quot;);d(p,{width:l,height:c});const y=p.getContext(&quot;2d&quot;);let g=y.createImageData(l,c);const w=new b(o);&quot;objectBoundingBox&quot;===o.getAttribute(&quot;gradientUnits&quot;)&amp;&amp;w.scale(new x(l,c));const m=o.getAttribute(&quot;gradientTransform&quot;);null!=m&amp;&amp;w.transform(h(m)),&quot;userSpaceOnUse&quot;===o.getAttribute(&quot;gradientUnits&quot;)&amp;&amp;w.transform(new x(-u,-f)),w.paintMesh(g.data,p.width),y.putImageData(g,0,0);const M=document.createElementNS(t,&quot;image&quot;);d(M,{width:l,height:c,x:0,y:0});let S=p.toDataURL();M.setAttributeNS(e,&quot;xlink:href&quot;,S);const k=&quot;pattern_clip&quot;+n,A=document.createElementNS(t,&quot;pattern&quot;);d(A,{id:k,patternUnits:&quot;userSpaceOnUse&quot;,width:l,height:c,x:u,y:f}),A.appendChild(M),o.parentNode.appendChild(A),r.style.stroke=&quot;url(#&quot;+k+&quot;)&quot;,g=null,p=null,S=null}}})}();
</script></svg>
